<svg width="48" height="48" viewBox="0 0 48 48" fill="none" xmlns="http://www.w3.org/2000/svg">
<rect width="48" height="48" rx="12" fill="white"/>
<path d="M15.4758 8L29.0048 8L29.0656 8.45174L24.1419 15.6246L15.4758 8Z" fill="#161616"/>
<path d="M29.005 8L23.9595 15.416L33.3816 39.9392L41.3777 39.9392L29.005 8Z" fill="#161616"/>
<g filter="url(#filter0_f_351_9866)">
<path d="M23.8987 15.416L29.0047 8L28.5792 8.12157L23.5947 15.112L23.8987 15.416Z" fill="black"/>
</g>
<path d="M16.8474 40H7L29.0047 8L32.4695 17.0835L16.8474 40Z" fill="#161616"/>
<g filter="url(#filter1_f_351_9866)">
<path d="M30.5479 32.5579H38.3122L38.4501 32.9226H30.6826L30.5479 32.5579Z" fill="black"/>
</g>
<path d="M27.0595 39.9392L19.0964 32.8879H38.6459L41.3774 39.9392H27.0595Z" fill="#161616"/>
<defs>
<filter id="filter0_f_351_9866" x="22.6221" y="7.02742" width="7.35508" height="9.36118" filterUnits="userSpaceOnUse" color-interpolation-filters="sRGB">
<feFlood flood-opacity="0" result="BackgroundImageFix"/>
<feBlend mode="normal" in="SourceGraphic" in2="BackgroundImageFix" result="shape"/>
<feGaussianBlur stdDeviation="0.486292" result="effect1_foregroundBlur_351_9866"/>
</filter>
<filter id="filter1_f_351_9866" x="29.5753" y="31.5853" width="9.84751" height="2.30991" filterUnits="userSpaceOnUse" color-interpolation-filters="sRGB">
<feFlood flood-opacity="0" result="BackgroundImageFix"/>
<feBlend mode="normal" in="SourceGraphic" in2="BackgroundImageFix" result="shape"/>
<feGaussianBlur stdDeviation="0.486292" result="effect1_foregroundBlur_351_9866"/>
</filter>
</defs>
</svg>
