<svg width="64" height="64" viewBox="0 0 64 64" fill="none" xmlns="http://www.w3.org/2000/svg">
<g clip-path="url(#clip0_13713_12536)">
<path d="M15.6991 6.39999H49.6137C54.7556 6.39999 58.9128 10.5573 58.9128 15.6991V48.3008C58.9128 53.4427 54.7556 57.6 49.6137 57.6H15.6991C10.5573 57.6 6.4 53.4427 6.4 48.3008V15.6991C6.4 10.5573 10.5573 6.39999 15.6991 6.39999Z" fill="#00005B"/>
<path d="M27.4926 37.0325H19.3532L17.6903 42.1962C17.6465 42.3932 17.4715 42.5244 17.2745 42.5026H13.161C12.9203 42.5026 12.8547 42.3713 12.9203 42.1087L19.9658 21.9132C20.0315 21.6944 20.0971 21.4974 20.1846 21.2349C20.2721 20.7754 20.3159 20.294 20.3159 19.8126C20.294 19.7032 20.3815 19.5938 20.4909 19.572H20.5566H26.1579C26.3111 19.572 26.4205 19.6376 26.4424 19.747L34.4287 42.065C34.4944 42.3056 34.4287 42.415 34.2099 42.415H29.6369C29.4838 42.4369 29.3306 42.3275 29.2868 42.1744L27.4926 36.9231V37.0325ZM20.6222 32.6783H26.1798C26.0485 32.2188 25.8735 31.6718 25.6766 31.1029C25.4797 30.5121 25.2827 29.8776 25.0858 29.2212C24.867 28.5429 24.6701 27.8865 24.4513 27.2082C24.2325 26.5299 24.0356 25.8954 23.8605 25.2608C23.6855 24.6482 23.5323 24.0793 23.3791 23.5542H23.3354C23.1385 24.495 22.8978 25.4359 22.5915 26.3767C22.2632 27.427 21.935 28.521 21.585 29.615C21.3005 30.7309 20.9504 31.7593 20.6222 32.6783Z" fill="#9999FF"/>
<path d="M47.3162 35.0632H40.3802C40.4677 35.7415 40.6865 36.4198 41.0585 37.0106C41.4523 37.6014 41.9993 38.0608 42.6557 38.3234C43.5309 38.6954 44.4937 38.8923 45.4564 38.8704C46.2222 38.8485 46.988 38.7829 47.732 38.6297C48.4103 38.5422 49.0667 38.3672 49.6793 38.1265C49.7887 38.039 49.8544 38.0827 49.8544 38.3015V41.6492C49.8544 41.7367 49.8325 41.8243 49.8106 41.9118C49.7668 41.9774 49.7231 42.0212 49.6574 42.0649C48.9573 42.3713 48.2352 42.5901 47.4694 42.7214C46.441 42.9183 45.4126 43.0058 44.3624 42.9839C42.6995 42.9839 41.2991 42.7214 40.1614 42.2181C39.0892 41.7586 38.1484 41.0366 37.4044 40.1395C36.7043 39.2861 36.201 38.3234 35.8947 37.2732C35.5884 36.2448 35.4352 35.1726 35.4352 34.0786C35.4352 32.8971 35.6103 31.7374 35.9822 30.5996C36.3323 29.5056 36.8793 28.4991 37.6232 27.602C38.3453 26.7268 39.2424 26.0267 40.2708 25.5234C41.2991 25.0202 42.5244 24.8451 43.9248 24.8451C45.0844 24.8232 46.2441 25.042 47.3162 25.5234C48.2133 25.9173 49.001 26.508 49.6137 27.2738C50.1826 28.0178 50.6421 28.8492 50.9265 29.7682C51.2109 30.6434 51.3422 31.5405 51.3422 32.4376C51.3422 32.9627 51.3203 33.4222 51.2985 33.8379C51.2547 34.2537 51.2328 34.56 51.2109 34.7569C51.1891 34.9101 51.0578 35.0414 50.9046 35.0414C50.7733 35.0414 50.5327 35.0632 50.1826 35.0851C49.8325 35.1289 49.4168 35.1508 48.9135 35.1508C48.4103 35.1508 47.8851 35.0632 47.3162 35.0632ZM40.3802 31.8687H44.9969C45.5658 31.8687 45.9815 31.8687 46.2441 31.8468C46.4191 31.8249 46.5942 31.7812 46.7473 31.6718V31.453C46.7473 31.1685 46.7036 30.906 46.6161 30.6434C46.2222 29.4181 45.0626 28.5867 43.7716 28.6304C42.5682 28.5648 41.4304 29.1993 40.8615 30.2933C40.599 30.7966 40.4458 31.3217 40.3802 31.8687Z" fill="#9999FF"/>
</g>
<defs>
<clipPath id="clip0_13713_12536">
<rect width="52.5128" height="51.2" fill="white" transform="translate(6.4 6.39999)"/>
</clipPath>
</defs>
</svg>
