<svg width="64" height="64" viewBox="0 0 64 64" fill="none" xmlns="http://www.w3.org/2000/svg">
<g clip-path="url(#clip0_13713_12528)">
<path d="M15.6991 6.39999H49.6137C54.7556 6.39999 58.9128 10.5573 58.9128 15.6991V48.3008C58.9128 53.4427 54.7556 57.6 49.6137 57.6H15.6991C10.5573 57.6 6.4 53.4427 6.4 48.3008V15.6991C6.4 10.5573 10.5573 6.39999 15.6991 6.39999Z" fill="#330000"/>
<path d="M31.7812 37.0325H23.6417L21.9788 42.1744C21.935 42.3713 21.76 42.5026 21.5631 42.4807H17.4496C17.2089 42.4807 17.1433 42.3494 17.2089 42.0868L24.2544 21.8038C24.32 21.5849 24.3856 21.3443 24.4732 21.0817C24.5607 20.6222 24.6044 20.1408 24.6044 19.6595C24.5826 19.5501 24.6701 19.4407 24.7795 19.4188H30.4465C30.6215 19.4188 30.7091 19.4844 30.7309 19.5938L38.7173 42.1306C38.7829 42.3713 38.7173 42.4807 38.4985 42.4807H33.9255C33.7723 42.5026 33.6192 42.3932 33.5754 42.24L31.7812 37.0325ZM24.9108 32.5908H30.4684C30.3371 32.1313 30.1621 31.5843 29.9651 31.0154C29.7682 30.4246 29.5713 29.7901 29.3744 29.1337C29.1556 28.4554 28.9586 27.799 28.7398 27.1207C28.521 26.4424 28.3241 25.8079 28.1491 25.1733C27.974 24.5607 27.8209 23.9918 27.6677 23.4667H27.6239C27.427 24.4075 27.1863 25.3484 26.88 26.2892C26.5518 27.3395 26.2236 28.4335 25.8735 29.5275C25.5672 30.6434 25.239 31.6718 24.9108 32.5908ZM43.5966 23.2479C42.8745 23.2697 42.1744 22.9853 41.6492 22.482C41.146 21.935 40.8834 21.213 40.9053 20.4691C40.8834 19.7251 41.1679 19.0249 41.693 18.5217C42.2181 18.0185 42.9183 17.7559 43.6403 17.7559C44.4937 17.7559 45.1501 18.0185 45.6315 18.5217C46.1128 19.0468 46.3754 19.747 46.3535 20.4691C46.3754 21.213 46.1128 21.935 45.5877 22.482C45.0845 23.0072 44.3405 23.2916 43.5966 23.2479ZM41.146 42.24V25.3921C41.146 25.1733 41.2335 25.0858 41.4304 25.0858H45.7627C45.9597 25.0858 46.0472 25.1952 46.0472 25.3921V42.24C46.0472 42.4807 45.9597 42.5901 45.7627 42.5901H41.4742C41.2554 42.5901 41.146 42.4588 41.146 42.24Z" fill="#FF9A00"/>
</g>
<defs>
<clipPath id="clip0_13713_12528">
<rect width="52.5128" height="51.2" fill="white" transform="translate(6.4 6.39999)"/>
</clipPath>
</defs>
</svg>
