<svg width="64" height="64" viewBox="0 0 64 64" fill="none" xmlns="http://www.w3.org/2000/svg">
<g clip-path="url(#clip0_13713_12561)">
<path d="M62.7448 34.9115C62.3756 32.3135 61.4758 29.8497 60.0694 27.5893C58.843 25.6166 57.2693 23.8621 55.391 22.3709L55.396 22.3663L35.6685 7.21436C35.6543 7.20184 35.6394 7.19005 35.624 7.17902C34.9681 6.67658 34.0801 6.40012 33.1245 6.40012C32.1676 6.40012 31.2449 6.6772 30.5276 7.18062C29.7563 7.71939 29.3154 8.43426 29.2846 9.19519C29.2564 9.90513 29.5951 10.5882 30.2408 11.1207C31.5104 12.1225 32.7772 13.1461 34.0458 14.1709C35.2769 15.166 36.5454 16.1907 37.8078 17.1883L13.6447 17.1719C10.8814 17.1719 8.99986 18.4695 8.61281 20.642C8.44275 21.5935 8.74285 22.6398 9.41376 23.4411C10.1255 24.2906 11.159 24.7591 12.3236 24.7591L14.1656 24.7604C16.7103 24.7604 19.2663 24.7541 21.8187 24.7479L24.2529 24.7423L2.32283 40.9666L2.23576 41.0303C1.01082 41.9692 0.208887 43.2855 0.0358653 44.6415C-0.0952863 45.6688 0.144358 46.6075 0.729183 47.3572C1.4262 48.251 2.51445 48.7426 3.7937 48.7426C5.05041 48.7426 6.33274 48.2664 7.40609 47.3994L19.2487 37.7077C19.198 38.1809 19.1366 38.8752 19.1436 39.3791C19.1569 40.177 19.4131 41.7779 19.8186 43.0776C20.6565 45.7487 22.0679 48.1925 24.0133 50.3387C26.0376 52.5716 28.503 54.3421 31.3406 55.5998C34.3405 56.9266 37.5653 57.6001 40.9259 57.6001H40.957C44.3283 57.592 47.5634 56.9078 50.573 55.5658C53.4152 54.2932 55.8795 52.5156 57.8961 50.2831C59.8392 48.1259 61.2486 45.678 62.0849 43.0092C62.4986 41.688 62.7636 40.3248 62.875 38.9449C62.9783 37.6112 62.9338 36.2542 62.7448 34.9115ZM41.1715 47.7137C33.7654 47.7137 27.7595 42.3412 27.7595 35.7134C27.7595 29.0864 33.7655 23.7139 41.1715 23.7139C48.5779 23.7139 54.5831 29.0864 54.5831 35.7134C54.5834 42.3412 48.5779 47.7137 41.1715 47.7137ZM48.906 34.6589C49.0153 36.637 48.2252 38.4738 46.8377 39.8334C45.4263 41.2186 43.4123 42.0886 41.1602 42.0886C38.9091 42.0886 36.8948 41.2186 35.4829 39.8334C34.096 38.4738 33.3075 36.6373 33.4161 34.6605C33.5225 32.7391 34.4598 31.043 35.8715 29.842C37.2598 28.6612 39.1239 27.9408 41.1601 27.9408C43.1966 27.9408 45.0602 28.6614 46.4485 29.842C47.861 31.043 48.7985 32.7378 48.906 34.6589Z" fill="#FF7B35"/>
<path d="M46.8377 39.8334C48.2252 38.4738 49.0153 36.637 48.906 34.6589C48.7985 32.7378 47.861 31.043 46.4485 29.842C45.0602 28.6614 43.1966 27.9408 41.1601 27.9408C39.1238 27.9408 37.2598 28.6612 35.8715 29.842C34.4598 31.043 33.5225 32.7391 33.4161 34.6605C33.3075 36.6373 34.096 38.4738 35.4829 39.8334C36.8948 41.2186 38.9091 42.0886 41.1602 42.0886C43.4123 42.0886 45.4263 41.2186 46.8377 39.8334Z" fill="#1B4975"/>
</g>
<defs>
<clipPath id="clip0_13713_12561">
<rect width="62.9302" height="51.2" fill="white" transform="translate(0 6.39999)"/>
</clipPath>
</defs>
</svg>
