<svg width="64" height="64" viewBox="0 0 64 64" fill="none" xmlns="http://www.w3.org/2000/svg">
<path d="M56.9344 20.155C36.6845 22.2708 32.0754 10.0011 14.9876 7.11939C11.1804 6.47739 5.80787 6.46626 2.80025 10.0746C-2.09488 15.9476 0.176623 20.8621 3.9085 32.9078C4.152 33.6938 4.219 34.5229 4.26737 35.3443C4.86675 45.5043 14.4362 38.9293 18.7137 53.6718C20.0384 58.2374 32.492 63.4158 40.7404 43.1214C43.4334 36.4955 53.5385 36.8684 59.5809 33.0415C66.1636 28.8726 65.4812 19.262 56.9344 20.155Z" fill="#EEF1FF"/>
<path opacity="0.1" d="M53.8556 21.9543H52.1269V14.34H53.7016C54.362 14.34 54.7 13.5484 54.2434 13.0714L49.8491 8.48113C49.5539 8.17263 49.0609 8.17263 48.7656 8.48113L44.3714 13.0714C43.9147 13.5484 44.2529 14.34 44.9131 14.34H46.4879V21.9543H41.1124V18.7639H42.6871C43.3475 18.7639 43.6855 17.9723 43.2289 17.4953L38.8346 12.905C38.5392 12.5965 38.0464 12.5965 37.7511 12.905L33.3569 17.4953C32.9002 17.9723 33.2384 18.7639 33.8986 18.7639H35.4734V21.9543H14.3629C13.6725 21.9543 13.1129 22.5139 13.1129 23.2043V50.4911H10.1444C9.45399 50.4911 8.89436 51.0508 8.89436 51.7411V58.3753C8.89436 59.0656 9.45399 59.6253 10.1444 59.6253H25.3047C25.9951 59.6253 26.5547 59.0656 26.5547 58.3753V56.1213H53.8556C54.546 56.1213 55.1056 55.5616 55.1056 54.8713V23.2043C55.1056 22.5139 54.546 21.9543 53.8556 21.9543Z" fill="#0000CA"/>
<path d="M52.1269 21.246V11.09H53.7016C54.362 11.09 54.7 10.2984 54.2434 9.82138L49.8491 5.23113C49.5539 4.92263 49.0609 4.92263 48.7656 5.23113L44.3714 9.82138C43.9147 10.2984 44.2529 11.09 44.9131 11.09H46.4879V21.2461L52.1269 21.246Z" fill="#9393FF"/>
<path d="M41.1124 25.67V15.5139H42.6871C43.3475 15.5139 43.6855 14.7223 43.2289 14.2453L38.8347 9.65502C38.5395 9.34652 38.0465 9.34652 37.7512 9.65502L33.357 14.2453C32.9004 14.7223 33.2385 15.5139 33.8987 15.5139H35.4735V25.67H41.1124Z" fill="#6C6CFF"/>
<path d="M53.8556 52.8713H14.3629C13.6725 52.8713 13.1129 52.3117 13.1129 51.6213V19.9543C13.1129 19.2639 13.6725 18.7043 14.3629 18.7043H53.8556C54.546 18.7043 55.1056 19.2639 55.1056 19.9543V51.6213C55.1056 52.3117 54.546 52.8713 53.8556 52.8713Z" fill="#FFD5BA"/>
<path d="M55.1056 24.5138V19.9543C55.1056 19.2639 54.546 18.7043 53.8556 18.7043H14.3629C13.6725 18.7043 13.1129 19.2639 13.1129 19.9543V24.5138H55.1056Z" fill="#FFAA66"/>
<path d="M47.376 22.5907C47.0307 22.5907 46.751 22.3109 46.751 21.9657V21.9513C46.751 21.606 47.0307 21.3263 47.376 21.3263C47.7212 21.3263 48.001 21.606 48.001 21.9513V21.9657C48.001 22.3108 47.7212 22.5907 47.376 22.5907Z" fill="white"/>
<path d="M49.2622 22.5907C48.917 22.5907 48.6372 22.3109 48.6372 21.9657V21.9513C48.6372 21.606 48.917 21.3263 49.2622 21.3263C49.6075 21.3263 49.8872 21.606 49.8872 21.9513V21.9657C49.8872 22.3108 49.6074 22.5907 49.2622 22.5907Z" fill="white"/>
<path d="M51.1485 22.5907C50.8032 22.5907 50.5235 22.3109 50.5235 21.9657V21.9513C50.5235 21.606 50.8032 21.3263 51.1485 21.3263C51.4937 21.3263 51.7735 21.606 51.7735 21.9513V21.9657C51.7735 22.3108 51.4937 22.5907 51.1485 22.5907Z" fill="white"/>
<path d="M43.8174 22.5762H17.07C16.7247 22.5762 16.445 22.2964 16.445 21.9512C16.445 21.6059 16.7247 21.3262 17.07 21.3262H43.8174C44.1626 21.3262 44.4424 21.6059 44.4424 21.9512C44.4424 22.2964 44.1626 22.5762 43.8174 22.5762Z" fill="#FFC498"/>
<path d="M25.945 29.8726L26.57 38.9401C26.57 38.9401 22.5625 47.3551 22.5625 47.3563C19.23 46.0163 16.8775 42.7526 16.8775 38.9401C16.8775 33.9326 20.9375 29.8726 25.945 29.8726Z" fill="#9393FF"/>
<path d="M22.5621 47.3535C23.6077 47.7744 24.7487 48.0083 25.945 48.0083C28.449 48.0083 30.7159 46.9933 32.3567 45.3524L29.8955 41.5162L25.945 38.9407L22.5621 47.3535Z" fill="#FFAA66"/>
<path d="M32.3569 45.3524C33.9977 43.7115 35.0127 41.4445 35.0127 38.9407C35.0127 33.9328 30.953 29.873 25.9451 29.873V38.9407L32.3569 45.3524Z" fill="#FF6C6C"/>
<path d="M29.7145 38.3084C29.5502 38.3084 29.3862 38.2441 29.2635 38.1163C29.0245 37.8673 29.0325 37.4716 29.2816 37.2326L35.8959 30.8836C36.0212 30.7632 36.1901 30.7008 36.3647 30.7104C36.5382 30.7204 36.6999 30.8023 36.8105 30.9363L40.0172 34.8167L44.7894 27.9288C44.9746 27.6613 45.3342 27.5806 45.6161 27.7438L50.884 30.7911C51.1827 30.9639 51.2849 31.3462 51.112 31.6451C50.9391 31.9438 50.5571 32.0459 50.258 31.8731L45.4889 29.1143L40.5749 36.2068C40.4634 36.3676 40.283 36.4671 40.0876 36.4752C39.8885 36.4824 39.7039 36.3997 39.5794 36.2489L36.2759 32.2516L30.1474 38.1343C30.026 38.2506 29.8701 38.3084 29.7145 38.3084Z" fill="#4D4DFF"/>
<path d="M45.3031 30.0528C46.2796 30.0528 47.0712 29.2612 47.0712 28.2847C47.0712 27.3082 46.2796 26.5165 45.3031 26.5165C44.3266 26.5165 43.535 27.3082 43.535 28.2847C43.535 29.2612 44.3266 30.0528 45.3031 30.0528Z" fill="#9393FF"/>
<path d="M50.5712 33.0979C51.5478 33.0979 52.3394 32.3063 52.3394 31.3298C52.3394 30.3533 51.5478 29.5616 50.5712 29.5616C49.5947 29.5616 48.8031 30.3533 48.8031 31.3298C48.8031 32.3063 49.5947 33.0979 50.5712 33.0979Z" fill="#FFAA66"/>
<path d="M40.061 37.6189C41.0375 37.6189 41.8291 36.8273 41.8291 35.8508C41.8291 34.8743 41.0375 34.0826 40.061 34.0826C39.0845 34.0826 38.2929 34.8743 38.2929 35.8508C38.2929 36.8273 39.0845 37.6189 40.061 37.6189Z" fill="#9393FF"/>
<path d="M36.328 33.0979C37.3045 33.0979 38.0961 32.3063 38.0961 31.3298C38.0961 30.3533 37.3045 29.5616 36.328 29.5616C35.3515 29.5616 34.5599 30.3533 34.5599 31.3298C34.5599 32.3063 35.3515 33.0979 36.328 33.0979Z" fill="#FF6C6C"/>
<path d="M29.7144 39.4515C30.6909 39.4515 31.4825 38.6599 31.4825 37.6834C31.4825 36.7069 30.6909 35.9153 29.7144 35.9153C28.7379 35.9153 27.9462 36.7069 27.9462 37.6834C27.9462 38.6599 28.7379 39.4515 29.7144 39.4515Z" fill="#FFAA66"/>
<path d="M25.3047 56.3754H10.1444C9.45399 56.3754 8.89436 55.8158 8.89436 55.1254V48.4913C8.89436 47.8009 9.45399 47.2413 10.1444 47.2413H25.3047C25.9951 47.2413 26.5547 47.8009 26.5547 48.4913V55.1254C26.5547 55.8158 25.9951 56.3754 25.3047 56.3754Z" fill="#FF2C2C"/>
<path d="M25.3047 53.1831H10.1444C9.45399 53.1831 8.89436 52.6235 8.89436 51.9331V45.0333C8.89436 44.3429 9.45399 43.7833 10.1444 43.7833H25.3047C25.9951 43.7833 26.5547 44.3429 26.5547 45.0333V51.9331C26.5547 52.6235 25.9951 53.1831 25.3047 53.1831Z" fill="#FF6C6C"/>
<path d="M53.8556 18.0793H52.7519V11.715H53.7017C54.2617 11.715 54.7462 11.395 54.9662 10.88C55.1862 10.365 55.0822 9.79376 54.6949 9.38901L50.3007 4.79889C50.0427 4.52926 49.6806 4.37451 49.3075 4.37451C48.9344 4.37451 48.5722 4.52914 48.3144 4.79876L43.92 9.38914C43.5327 9.79376 43.4289 10.3651 43.6489 10.8801C43.8689 11.395 44.3534 11.715 44.9132 11.715H45.8631V14.9776C45.8631 15.3229 46.1429 15.6026 46.4881 15.6026C46.8334 15.6026 47.1131 15.3229 47.1131 14.9776V11.09C47.1131 10.7448 46.8334 10.465 46.4881 10.465H44.9132C44.8929 10.465 44.8307 10.465 44.7984 10.3891C44.7659 10.3133 44.8089 10.2683 44.8229 10.2536L49.2172 5.66326C49.2477 5.63139 49.2831 5.62464 49.3075 5.62464C49.3319 5.62464 49.3672 5.63139 49.3979 5.66339L53.792 10.2536C53.8061 10.2683 53.8491 10.3133 53.8167 10.3891C53.7842 10.465 53.7221 10.465 53.7017 10.465H52.1269C51.7816 10.465 51.5019 10.7448 51.5019 11.09V18.0793H41.7375V16.139H42.6872C43.2472 16.139 43.7317 15.819 43.9517 15.3041C44.1717 14.7891 44.0679 14.2179 43.6805 13.813L39.2862 9.22276C39.0282 8.95326 38.6662 8.79851 38.2931 8.79851H38.293C37.9199 8.79851 37.5579 8.95301 37.2996 9.22276L32.9055 13.8131C32.5182 14.2176 32.4142 14.789 32.6342 15.304C32.8542 15.819 33.3387 16.139 33.8987 16.139H34.8486V18.0793H14.3629C13.329 18.0793 12.4879 18.9204 12.4879 19.9543V43.1581H10.1444C9.11049 43.1581 8.26936 43.9993 8.26936 45.0331V55.1254C8.26936 56.1593 9.11049 57.0004 10.1444 57.0004H25.3046C26.3385 57.0004 27.1796 56.1593 27.1796 55.1254V53.4963H53.8555C54.8894 53.4963 55.7305 52.6551 55.7305 51.6213V19.9543C55.7306 18.9203 54.8895 18.0793 53.8556 18.0793ZM35.4735 14.8889H33.8986C33.8782 14.8889 33.8161 14.8889 33.7836 14.813C33.7512 14.7371 33.7942 14.6921 33.8084 14.6774L38.2024 10.0871C38.2329 10.0553 38.2684 10.0485 38.2929 10.0485C38.3171 10.0485 38.3527 10.0553 38.3831 10.0871L42.7774 14.6774C42.7915 14.6921 42.8345 14.7371 42.802 14.813C42.7696 14.8889 42.7074 14.8889 42.687 14.8889H41.1122C40.767 14.8889 40.4872 15.1686 40.4872 15.5139V18.0791H36.0984V15.5139C36.0985 15.1688 35.8187 14.8889 35.4735 14.8889ZM25.3047 55.7504H10.1444C9.79974 55.7504 9.51936 55.47 9.51936 55.1254V53.6988C9.71524 53.7683 9.92499 53.8081 10.1444 53.8081H25.3046C25.524 53.8081 25.7337 53.7683 25.9296 53.6988V55.1254C25.9297 55.47 25.6492 55.7504 25.3047 55.7504ZM54.4806 51.6213C54.4806 51.9659 54.2002 52.2463 53.8556 52.2463H27.1797V45.0331C27.1797 43.9993 26.3386 43.1581 25.3047 43.1581H23.1046C22.7594 43.1581 22.4796 43.4379 22.4796 43.7831C22.4796 44.1284 22.7594 44.4081 23.1046 44.4081H25.3047C25.6494 44.4081 25.9297 44.6885 25.9297 45.0331V51.9331C25.9297 52.2778 25.6494 52.5581 25.3047 52.5581H10.1444C9.79974 52.5581 9.51936 52.2778 9.51936 51.9331V45.0331C9.51936 44.6885 9.79974 44.4081 10.1444 44.4081H19.298C19.6432 44.4081 19.923 44.1284 19.923 43.7831C19.923 43.4379 19.6432 43.1581 19.298 43.1581H13.7379V19.9543C13.7379 19.6096 14.0182 19.3293 14.3629 19.3293H53.8555C54.2001 19.3293 54.4805 19.6096 54.4805 19.9543V51.6213H54.4806Z" fill="#0000CA"/>
<path d="M13.2755 50.8338H11.5997C11.2545 50.8338 10.9747 50.5541 10.9747 50.2088V46.7571C10.9747 46.4118 11.2545 46.1321 11.5997 46.1321C11.945 46.1321 12.2247 46.4118 12.2247 46.7571V49.5838H13.2755C13.6207 49.5838 13.9005 49.8636 13.9005 50.2088C13.9005 50.5541 13.6207 50.8338 13.2755 50.8338Z" fill="white"/>
<path d="M16.3032 49.5871V47.379C16.6336 47.3624 16.897 47.0916 16.897 46.7571C16.897 46.4119 16.6172 46.1321 16.272 46.1321H15.0845C14.7392 46.1321 14.4595 46.4119 14.4595 46.7571C14.4595 47.0916 14.7229 47.3624 15.0532 47.379V49.5871C14.7229 49.6038 14.4595 49.8745 14.4595 50.209C14.4595 50.5543 14.7392 50.834 15.0845 50.834H16.272C16.6172 50.834 16.897 50.5543 16.897 50.209C16.897 49.8745 16.6336 49.6038 16.3032 49.5871Z" fill="white"/>
<path d="M19.1856 50.834C18.9151 50.834 18.6752 50.6599 18.5914 50.4028L17.4661 46.951C17.3592 46.6228 17.5385 46.2701 17.8666 46.163C18.1947 46.0559 18.5475 46.2354 18.6546 46.5635L19.1856 48.1924L19.7166 46.5635C19.8236 46.2354 20.1766 46.0558 20.5046 46.163C20.8327 46.27 21.0121 46.6228 20.9051 46.951L19.7799 50.4028C19.696 50.6599 19.4561 50.834 19.1856 50.834Z" fill="white"/>
<path d="M23.8494 49.584H22.7554V49.1081H23.1826C23.5279 49.1081 23.8076 48.8284 23.8076 48.4831C23.8076 48.1379 23.5279 47.8581 23.1826 47.8581H22.7554V47.3821H23.8494C24.1946 47.3821 24.4744 47.1024 24.4744 46.7571C24.4744 46.4119 24.1946 46.1321 23.8494 46.1321H22.1304C21.7851 46.1321 21.5054 46.4119 21.5054 46.7571V50.2089C21.5054 50.5541 21.7851 50.8339 22.1304 50.8339H23.8494C24.1946 50.8339 24.4744 50.5541 24.4744 50.2089C24.4744 49.8636 24.1946 49.584 23.8494 49.584Z" fill="white"/>
<path d="M20.1644 27.5873H19.0827C18.7375 27.5873 18.4577 27.3075 18.4577 26.9623C18.4577 26.617 18.7375 26.3373 19.0827 26.3373H20.1644C20.5096 26.3373 20.7894 26.617 20.7894 26.9623C20.7894 27.3075 20.5096 27.5873 20.1644 27.5873Z" fill="#9393FF"/>
<path d="M17.1462 27.5873H16.9132C16.568 27.5873 16.2882 27.3075 16.2882 26.9623C16.2882 26.617 16.568 26.3373 16.9132 26.3373H17.1462C17.4915 26.3373 17.7712 26.617 17.7712 26.9623C17.7712 27.3075 17.4915 27.5873 17.1462 27.5873Z" fill="#FF6C6C"/>
<path d="M20.1644 29.8698H19.0827C18.7375 29.8698 18.4577 29.59 18.4577 29.2448C18.4577 28.8995 18.7375 28.6198 19.0827 28.6198H20.1644C20.5096 28.6198 20.7894 28.8995 20.7894 29.2448C20.7894 29.59 20.5096 29.8698 20.1644 29.8698Z" fill="#9393FF"/>
<path d="M17.1462 29.8698H16.9132C16.568 29.8698 16.2882 29.59 16.2882 29.2448C16.2882 28.8995 16.568 28.6198 16.9132 28.6198H17.1462C17.4915 28.6198 17.7712 28.8995 17.7712 29.2448C17.7712 29.59 17.4915 29.8698 17.1462 29.8698Z" fill="#FF6C6C"/>
<path d="M48.8032 45.3912H43.159C42.8137 45.3912 42.534 45.1115 42.534 44.7662C42.534 44.421 42.8137 44.1412 43.159 44.1412H48.8032C49.1485 44.1412 49.4282 44.421 49.4282 44.7662C49.4282 45.1115 49.1485 45.3912 48.8032 45.3912Z" fill="#9393FF"/>
<path d="M51.4727 45.3912H51.2397C50.8945 45.3912 50.6147 45.1115 50.6147 44.7662C50.6147 44.421 50.8945 44.1412 51.2397 44.1412H51.4727C51.818 44.1412 52.0977 44.421 52.0977 44.7662C52.0977 45.1115 51.818 45.3912 51.4727 45.3912Z" fill="#6C6CFF"/>
<path d="M48.8032 47.6737H35.2425C34.8972 47.6737 34.6175 47.394 34.6175 47.0487C34.6175 46.7035 34.8972 46.4237 35.2425 46.4237H48.8031C49.1484 46.4237 49.4281 46.7035 49.4281 47.0487C49.4281 47.394 49.1485 47.6737 48.8032 47.6737Z" fill="#9393FF"/>
<path d="M51.4727 47.6737H51.2397C50.8945 47.6737 50.6147 47.394 50.6147 47.0487C50.6147 46.7035 50.8945 46.4237 51.2397 46.4237H51.4727C51.818 46.4237 52.0977 46.7035 52.0977 47.0487C52.0977 47.394 51.818 47.6737 51.4727 47.6737Z" fill="#FF9C33"/>
<path d="M48.8032 49.9562H37.7425C37.3972 49.9562 37.1175 49.6765 37.1175 49.3312C37.1175 48.986 37.3972 48.7062 37.7425 48.7062H48.8031C49.1484 48.7062 49.4281 48.986 49.4281 49.3312C49.4281 49.6765 49.1485 49.9562 48.8032 49.9562Z" fill="#9393FF"/>
<path d="M51.4727 49.9562H51.2397C50.8945 49.9562 50.6147 49.6765 50.6147 49.3312C50.6147 48.986 50.8945 48.7062 51.2397 48.7062H51.4727C51.818 48.7062 52.0977 48.986 52.0977 49.3312C52.0977 49.6765 51.818 49.9562 51.4727 49.9562Z" fill="#FF6C6C"/>
<path d="M43.0967 42.0513C42.7515 42.0513 42.4717 41.7715 42.4717 41.4263V40.3636C42.4717 40.0184 42.7515 39.7386 43.0967 39.7386C43.442 39.7386 43.7217 40.0184 43.7217 40.3636V41.4263C43.7217 41.7715 43.442 42.0513 43.0967 42.0513Z" fill="#FF6C6C"/>
<path d="M45.1821 42.0513C44.8369 42.0513 44.5571 41.7715 44.5571 41.4263V38.8636C44.5571 38.5184 44.8369 38.2386 45.1821 38.2386C45.5274 38.2386 45.8071 38.5184 45.8071 38.8636V41.4263C45.8071 41.7715 45.5274 42.0513 45.1821 42.0513Z" fill="#FF9C33"/>
<path d="M47.2675 42.0513C46.9222 42.0513 46.6425 41.7715 46.6425 41.4263V38.3636C46.6425 38.0184 46.9222 37.7386 47.2675 37.7386C47.6127 37.7386 47.8925 38.0184 47.8925 38.3636V41.4263C47.8925 41.7715 47.6126 42.0513 47.2675 42.0513Z" fill="#FF9C33"/>
<path d="M49.3526 42.0513C49.0074 42.0513 48.7276 41.7715 48.7276 41.4263V35.8636C48.7276 35.5184 49.0074 35.2386 49.3526 35.2386C49.6979 35.2386 49.9776 35.5184 49.9776 35.8636V41.4263C49.9776 41.7715 49.6979 42.0513 49.3526 42.0513Z" fill="#6C6CFF"/>
<path d="M51.438 42.0513C51.0927 42.0513 50.813 41.7715 50.813 41.4263V35.8636C50.813 35.5184 51.0927 35.2386 51.438 35.2386C51.7832 35.2386 52.063 35.5184 52.063 35.8636V41.4263C52.063 41.7715 51.7832 42.0513 51.438 42.0513Z" fill="#6C6CFF"/>
<path d="M40.7086 42.0513H37.018C36.6727 42.0513 36.393 41.7715 36.393 41.4263C36.393 41.081 36.6727 40.8013 37.018 40.8013H40.7086C41.0539 40.8013 41.3336 41.081 41.3336 41.4263C41.3336 41.7715 41.0539 42.0513 40.7086 42.0513Z" fill="#FF6C6C"/>
<path d="M21.3595 34.2854H21.1265C20.7812 34.2854 20.5015 34.0057 20.5015 33.6604C20.5015 33.3152 20.7812 33.0354 21.1265 33.0354H21.3595C21.7047 33.0354 21.9845 33.3152 21.9845 33.6604C21.9845 34.0057 21.7047 34.2854 21.3595 34.2854Z" fill="#FF6C6C"/>
<path d="M29.2705 45.3912H29.0375C28.6922 45.3912 28.4125 45.1115 28.4125 44.7662C28.4125 44.421 28.6922 44.1412 29.0375 44.1412H29.2705C29.6157 44.1412 29.8955 44.421 29.8955 44.7662C29.8955 45.1115 29.6157 45.3912 29.2705 45.3912Z" fill="#9393FF"/>
<path d="M28.6686 33.609H28.4355C28.0902 33.609 27.8105 33.3293 27.8105 32.984C27.8105 32.6388 28.0902 32.359 28.4355 32.359H28.6686C29.0139 32.359 29.2936 32.6388 29.2936 32.984C29.2936 33.3293 29.0137 33.609 28.6686 33.609Z" fill="#FFC498"/>
<path d="M29.9214 10.2882C29.7422 10.2882 29.5645 10.2117 29.4409 10.0633C29.2197 9.79803 29.2557 9.40403 29.5209 9.18303L30.0604 8.73341L29.5209 8.28366C29.2557 8.06266 29.2199 7.66853 29.4409 7.40341C29.6617 7.13828 30.056 7.10241 30.3211 7.32341L31.4369 8.25316C31.5794 8.37191 31.6617 8.54778 31.6617 8.73328C31.6617 8.91878 31.5794 9.09478 31.4369 9.21341L30.3211 10.1432C30.2044 10.2407 30.0624 10.2882 29.9214 10.2882Z" fill="#6C6CFF"/>
<path d="M22.0046 15.5295C21.8255 15.5295 21.6477 15.453 21.5241 15.3046C21.303 15.0394 21.339 14.6454 21.6041 14.4244L22.1436 13.9747L21.6041 13.525C21.339 13.304 21.3031 12.9099 21.5241 12.6447C21.745 12.3796 22.1392 12.3436 22.4044 12.5647L23.5201 13.4945C23.6626 13.6132 23.745 13.7891 23.745 13.9746C23.745 14.1601 23.6626 14.3361 23.5201 14.4547L22.4044 15.3845C22.2876 15.4821 22.1456 15.5295 22.0046 15.5295Z" fill="#FF6C6C"/>
<path d="M6.36574 41.6998C6.18662 41.6998 6.00887 41.6233 5.88524 41.4749C5.66412 41.2096 5.70012 40.8156 5.96524 40.5946L6.50474 40.145L5.96524 39.6953C5.70012 39.4743 5.66424 39.0801 5.88524 38.815C6.10599 38.5499 6.50037 38.5139 6.76549 38.735L7.88124 39.6648C8.02374 39.7835 8.10612 39.9594 8.10612 40.1449C8.10612 40.3304 8.02374 40.5064 7.88124 40.625L6.76549 41.5548C6.64862 41.6523 6.50674 41.6998 6.36574 41.6998Z" fill="#FFAA66"/>
<path d="M7.76549 36.0689C7.42024 36.0689 7.14049 35.7891 7.14049 35.4439V34.2628C7.14049 33.9175 7.42024 33.6378 7.76549 33.6378C8.11074 33.6378 8.39049 33.9175 8.39049 34.2628V35.4439C8.39049 35.7891 8.11074 36.0689 7.76549 36.0689Z" fill="#FF6C6C"/>
<path d="M9.51123 36.0689C9.16598 36.0689 8.88623 35.7891 8.88623 35.4439V34.2628C8.88623 33.9175 9.16598 33.6378 9.51123 33.6378C9.85648 33.6378 10.1362 33.9175 10.1362 34.2628V35.4439C10.1362 35.7891 9.85648 36.0689 9.51123 36.0689Z" fill="#FF6C6C"/>
<path d="M51.4664 58.6564C51.1211 58.6564 50.8414 58.3767 50.8414 58.0314V56.8503C50.8414 56.505 51.1211 56.2253 51.4664 56.2253C51.8116 56.2253 52.0914 56.505 52.0914 56.8503V58.0314C52.0914 58.3767 51.8116 58.6564 51.4664 58.6564Z" fill="#6C6CFF"/>
<path d="M53.2122 58.6564C52.867 58.6564 52.5872 58.3767 52.5872 58.0314V56.8503C52.5872 56.505 52.867 56.2253 53.2122 56.2253C53.5575 56.2253 53.8372 56.505 53.8372 56.8503V58.0314C53.8372 58.3767 53.5575 58.6564 53.2122 58.6564Z" fill="#6C6CFF"/>
</svg>
