<svg width="32" height="32" viewBox="0 0 32 32" fill="none" xmlns="http://www.w3.org/2000/svg">
<path d="M28.4672 10.0775C18.3423 11.1354 16.0377 5.00057 7.49382 3.55969C5.59019 3.23869 2.90394 3.23313 1.40013 5.03732C-1.04743 7.97382 0.0883189 10.4311 1.95426 16.4539C2.07601 16.8469 2.10951 17.2614 2.13369 17.6721C2.43338 22.7521 7.21813 19.4646 9.35688 26.8359C10.0192 29.1187 16.246 31.7079 20.3702 21.5607C21.7167 18.2478 26.7693 18.4342 29.7904 16.5208C33.0818 14.4363 32.7406 9.63101 28.4672 10.0775Z" fill="#EEF1FF"/>
<path opacity="0.1" d="M26.9278 10.9771H26.0634V7.17H26.8508C27.181 7.17 27.35 6.77419 27.1217 6.53569L24.9246 4.24057C24.7769 4.08632 24.5304 4.08632 24.3828 4.24057L22.1857 6.53569C21.9574 6.77419 22.1264 7.17 22.4566 7.17H23.2439V10.9771H20.5562V9.38194H21.3436C21.6738 9.38194 21.8428 8.98613 21.6144 8.74763L19.4173 6.4525C19.2696 6.29825 19.0232 6.29825 18.8756 6.4525L16.6784 8.74763C16.4501 8.98613 16.6192 9.38194 16.9493 9.38194H17.7367V10.9771H7.18144C6.83625 10.9771 6.55644 11.2569 6.55644 11.6021V25.2456H5.07219C4.727 25.2456 4.44719 25.5254 4.44719 25.8706V29.1876C4.44719 29.5328 4.727 29.8126 5.07219 29.8126H12.6524C12.9976 29.8126 13.2774 29.5328 13.2774 29.1876V28.0606H26.9278C27.273 28.0606 27.5528 27.7808 27.5528 27.4356V11.6021C27.5528 11.2569 27.273 10.9771 26.9278 10.9771Z" fill="#0000CA"/>
<path d="M26.0634 10.623V5.545H26.8508C27.181 5.545 27.35 5.14919 27.1217 4.91069L24.9246 2.61557C24.7769 2.46132 24.5304 2.46132 24.3828 2.61557L22.1857 4.91069C21.9574 5.14919 22.1264 5.545 22.4566 5.545H23.2439V10.6231L26.0634 10.623Z" fill="#9393FF"/>
<path d="M20.5562 12.835V7.75692H21.3436C21.6737 7.75692 21.8427 7.3611 21.6144 7.1226L19.4174 4.82748C19.2697 4.67323 19.0232 4.67323 18.8756 4.82748L16.6785 7.1226C16.4502 7.3611 16.6192 7.75692 16.9494 7.75692H17.7367V12.835H20.5562Z" fill="#6C6CFF"/>
<path d="M26.9278 26.4356H7.18144C6.83625 26.4356 6.55644 26.1558 6.55644 25.8106V9.97711C6.55644 9.63192 6.83625 9.35211 7.18144 9.35211H26.9278C27.273 9.35211 27.5528 9.63192 27.5528 9.97711V25.8106C27.5528 26.1558 27.273 26.4356 26.9278 26.4356Z" fill="#FFD5BA"/>
<path d="M27.5528 12.2569V9.97711C27.5528 9.63192 27.273 9.35211 26.9278 9.35211H7.18144C6.83625 9.35211 6.55644 9.63192 6.55644 9.97711V12.2569H27.5528Z" fill="#FFAA66"/>
<path d="M23.688 11.2953C23.5154 11.2953 23.3755 11.1554 23.3755 10.9828V10.9756C23.3755 10.803 23.5154 10.6631 23.688 10.6631C23.8606 10.6631 24.0005 10.803 24.0005 10.9756V10.9828C24.0005 11.1553 23.8606 11.2953 23.688 11.2953Z" fill="white"/>
<path d="M24.6311 11.2953C24.4585 11.2953 24.3186 11.1554 24.3186 10.9828V10.9756C24.3186 10.803 24.4585 10.6631 24.6311 10.6631C24.8038 10.6631 24.9436 10.803 24.9436 10.9756V10.9828C24.9436 11.1553 24.8037 11.2953 24.6311 11.2953Z" fill="white"/>
<path d="M25.5742 11.2953C25.4016 11.2953 25.2617 11.1554 25.2617 10.9828V10.9756C25.2617 10.803 25.4016 10.6631 25.5742 10.6631C25.7469 10.6631 25.8867 10.803 25.8867 10.9756V10.9828C25.8867 11.1553 25.7469 11.2953 25.5742 11.2953Z" fill="white"/>
<path d="M21.9087 11.288H8.535C8.36238 11.288 8.2225 11.1481 8.2225 10.9755C8.2225 10.8029 8.36238 10.663 8.535 10.663H21.9087C22.0813 10.663 22.2212 10.8029 22.2212 10.9755C22.2212 11.1481 22.0813 11.288 21.9087 11.288Z" fill="#FFC498"/>
<path d="M12.9725 14.9362L13.285 19.47C13.285 19.47 11.2813 23.6775 11.2813 23.6781C9.615 23.0081 8.43875 21.3762 8.43875 19.47C8.43875 16.9662 10.4688 14.9362 12.9725 14.9362Z" fill="#9393FF"/>
<path d="M11.2811 23.6767C11.8039 23.8872 12.3744 24.0041 12.9725 24.0041C14.2245 24.0041 15.3579 23.4966 16.1784 22.6762L14.9478 20.758L12.9725 19.4703L11.2811 23.6767Z" fill="#FFAA66"/>
<path d="M16.1784 22.6762C16.9989 21.8557 17.5064 20.7222 17.5064 19.4703C17.5064 16.9663 15.4765 14.9365 12.9726 14.9365V19.4703L16.1784 22.6762Z" fill="#FF6C6C"/>
<path d="M14.8573 19.1542C14.7751 19.1542 14.6931 19.122 14.6318 19.0581C14.5123 18.9336 14.5163 18.7357 14.6408 18.6162L17.9479 15.4417C18.0106 15.3816 18.0951 15.3504 18.1824 15.3552C18.2691 15.3602 18.3499 15.4011 18.4053 15.4681L20.0086 17.4083L22.3947 13.9644C22.4873 13.8306 22.6671 13.7902 22.8081 13.8719L25.442 15.3955C25.5914 15.4819 25.6424 15.6731 25.556 15.8225C25.4696 15.9719 25.2786 16.0229 25.129 15.9365L22.7444 14.5571L20.2874 18.1034C20.2317 18.1837 20.1415 18.2335 20.0438 18.2376C19.9442 18.2412 19.8519 18.1998 19.7897 18.1244L18.1379 16.1257L15.0737 19.0671C15.013 19.1252 14.9351 19.1542 14.8573 19.1542Z" fill="#4D4DFF"/>
<path d="M22.6516 15.0264C23.1398 15.0264 23.5356 14.6306 23.5356 14.1423C23.5356 13.654 23.1398 13.2582 22.6516 13.2582C22.1633 13.2582 21.7675 13.654 21.7675 14.1423C21.7675 14.6306 22.1633 15.0264 22.6516 15.0264Z" fill="#9393FF"/>
<path d="M25.2856 16.5489C25.7739 16.5489 26.1697 16.1531 26.1697 15.6649C26.1697 15.1766 25.7739 14.7808 25.2856 14.7808C24.7974 14.7808 24.4016 15.1766 24.4016 15.6649C24.4016 16.1531 24.7974 16.5489 25.2856 16.5489Z" fill="#FFAA66"/>
<path d="M20.0305 18.8094C20.5188 18.8094 20.9146 18.4136 20.9146 17.9254C20.9146 17.4371 20.5188 17.0413 20.0305 17.0413C19.5422 17.0413 19.1464 17.4371 19.1464 17.9254C19.1464 18.4136 19.5422 18.8094 20.0305 18.8094Z" fill="#9393FF"/>
<path d="M18.164 16.5489C18.6523 16.5489 19.0481 16.1531 19.0481 15.6649C19.0481 15.1766 18.6523 14.7808 18.164 14.7808C17.6757 14.7808 17.2799 15.1766 17.2799 15.6649C17.2799 16.1531 17.6757 16.5489 18.164 16.5489Z" fill="#FF6C6C"/>
<path d="M14.8572 19.7258C15.3454 19.7258 15.7413 19.33 15.7413 18.8417C15.7413 18.3535 15.3454 17.9576 14.8572 17.9576C14.3689 17.9576 13.9731 18.3535 13.9731 18.8417C13.9731 19.33 14.3689 19.7258 14.8572 19.7258Z" fill="#FFAA66"/>
<path d="M12.6524 28.1877H5.07219C4.727 28.1877 4.44719 27.9079 4.44719 27.5627V24.2456C4.44719 23.9004 4.727 23.6206 5.07219 23.6206H12.6524C12.9976 23.6206 13.2774 23.9004 13.2774 24.2456V27.5627C13.2774 27.9079 12.9976 28.1877 12.6524 28.1877Z" fill="#FF2C2C"/>
<path d="M12.6524 26.5915H5.07219C4.727 26.5915 4.44719 26.3117 4.44719 25.9665V22.5166C4.44719 22.1714 4.727 21.8916 5.07219 21.8916H12.6524C12.9976 21.8916 13.2774 22.1714 13.2774 22.5166V25.9665C13.2774 26.3117 12.9976 26.5915 12.6524 26.5915Z" fill="#FF6C6C"/>
<path d="M26.9278 9.03963H26.3759V5.85751H26.8509C27.1309 5.85751 27.3731 5.69751 27.4831 5.44001C27.5931 5.18251 27.5411 4.89688 27.3474 4.69451L25.1504 2.39944C25.0214 2.26463 24.8403 2.18726 24.6538 2.18726C24.4672 2.18726 24.2861 2.26457 24.1572 2.39938L21.96 4.69457C21.7664 4.89688 21.7144 5.18257 21.8244 5.44007C21.9344 5.69751 22.1767 5.85751 22.4566 5.85751H22.9316V7.48882C22.9316 7.66144 23.0714 7.80132 23.2441 7.80132C23.4167 7.80132 23.5566 7.66144 23.5566 7.48882V5.54501C23.5566 5.37238 23.4167 5.23251 23.2441 5.23251H22.4566C22.4464 5.23251 22.4154 5.23251 22.3992 5.19457C22.3829 5.15663 22.4044 5.13413 22.4114 5.12682L24.6086 2.83163C24.6239 2.81569 24.6416 2.81232 24.6538 2.81232C24.6659 2.81232 24.6836 2.81569 24.6989 2.83169L26.896 5.12682C26.9031 5.13413 26.9246 5.15663 26.9084 5.19457C26.8921 5.23251 26.8611 5.23251 26.8509 5.23251H26.0634C25.8908 5.23251 25.7509 5.37238 25.7509 5.54501V9.03963H20.8688V8.06951H21.3436C21.6236 8.06951 21.8659 7.90951 21.9759 7.65207C22.0859 7.39457 22.0339 7.10894 21.8403 6.90651L19.6431 4.61138C19.5141 4.47663 19.3331 4.39926 19.1466 4.39926H19.1465C18.9599 4.39926 18.7789 4.47651 18.6498 4.61138L16.4528 6.90657C16.2591 7.10882 16.2071 7.39451 16.3171 7.65201C16.4271 7.90951 16.6694 8.06951 16.9494 8.06951H17.4243V9.03963H7.18144C6.6645 9.03963 6.24394 9.46019 6.24394 9.97713V21.5791H5.07219C4.55525 21.5791 4.13469 21.9996 4.13469 22.5166V27.5627C4.13469 28.0796 4.55525 28.5002 5.07219 28.5002H12.6523C13.1693 28.5002 13.5898 28.0796 13.5898 27.5627V26.7481H26.9278C27.4447 26.7481 27.8653 26.3276 27.8653 25.8106V9.97713C27.8653 9.46013 27.4448 9.03963 26.9278 9.03963ZM17.7368 7.44444H16.9493C16.9391 7.44444 16.9081 7.44444 16.8918 7.40651C16.8756 7.36857 16.8971 7.34607 16.9042 7.33869L19.1012 5.04357C19.1164 5.02763 19.1342 5.02426 19.1464 5.02426C19.1586 5.02426 19.1764 5.02763 19.1916 5.04357L21.3887 7.33869C21.3958 7.34607 21.4173 7.36857 21.401 7.40651C21.3848 7.44444 21.3537 7.44444 21.3435 7.44444H20.5561C20.3835 7.44444 20.2436 7.58432 20.2436 7.75694V9.03957H18.0492V7.75694C18.0493 7.58438 17.9094 7.44444 17.7368 7.44444ZM12.6524 27.8752H5.07219C4.89988 27.8752 4.75969 27.735 4.75969 27.5627V26.8494C4.85763 26.8841 4.9625 26.9041 5.07219 26.9041H12.6523C12.762 26.9041 12.8669 26.8841 12.9648 26.8494V27.5627C12.9649 27.735 12.8246 27.8752 12.6524 27.8752ZM27.2403 25.8106C27.2403 25.9829 27.1001 26.1231 26.9278 26.1231H13.5899V22.5166C13.5899 21.9996 13.1693 21.5791 12.6524 21.5791H11.5523C11.3797 21.5791 11.2398 21.7189 11.2398 21.8916C11.2398 22.0642 11.3797 22.2041 11.5523 22.2041H12.6524C12.8247 22.2041 12.9649 22.3443 12.9649 22.5166V25.9666C12.9649 26.1389 12.8247 26.2791 12.6524 26.2791H5.07219C4.89988 26.2791 4.75969 26.1389 4.75969 25.9666V22.5166C4.75969 22.3443 4.89988 22.2041 5.07219 22.2041H9.649C9.82163 22.2041 9.9615 22.0642 9.9615 21.8916C9.9615 21.7189 9.82163 21.5791 9.649 21.5791H6.86894V9.97713C6.86894 9.80482 7.00913 9.66463 7.18144 9.66463H26.9278C27.1001 9.66463 27.2403 9.80482 27.2403 9.97713V25.8106H27.2403Z" fill="#0000CA"/>
<path d="M6.63776 25.417H5.79988C5.62726 25.417 5.48738 25.2771 5.48738 25.1045V23.3786C5.48738 23.206 5.62726 23.0661 5.79988 23.0661C5.97251 23.0661 6.11238 23.206 6.11238 23.3786V24.792H6.63776C6.81038 24.792 6.95026 24.9319 6.95026 25.1045C6.95026 25.2771 6.81038 25.417 6.63776 25.417Z" fill="white"/>
<path d="M8.15163 24.7935V23.6895C8.31681 23.6812 8.4485 23.5458 8.4485 23.3785C8.4485 23.2059 8.30863 23.066 8.136 23.066H7.54225C7.36963 23.066 7.22975 23.2059 7.22975 23.3785C7.22975 23.5458 7.36144 23.6812 7.52663 23.6895V24.7935C7.36144 24.8019 7.22975 24.9372 7.22975 25.1045C7.22975 25.2771 7.36963 25.417 7.54225 25.417H8.136C8.30863 25.417 8.4485 25.2771 8.4485 25.1045C8.4485 24.9372 8.31681 24.8019 8.15163 24.7935Z" fill="white"/>
<path d="M9.59282 25.417C9.45757 25.417 9.33763 25.3299 9.2957 25.2014L8.73307 23.4755C8.67963 23.3114 8.76926 23.1351 8.93332 23.0815C9.09738 23.0279 9.27376 23.1177 9.32732 23.2818L9.59282 24.0962L9.85832 23.2818C9.91182 23.1177 10.0883 23.0279 10.2523 23.0815C10.4164 23.135 10.5061 23.3114 10.4526 23.4755L9.88995 25.2014C9.84801 25.3299 9.72807 25.417 9.59282 25.417Z" fill="white"/>
<path d="M11.9247 24.792H11.3777V24.554H11.5913C11.764 24.554 11.9038 24.4142 11.9038 24.2415C11.9038 24.0689 11.764 23.929 11.5913 23.929H11.3777V23.691H11.9247C12.0973 23.691 12.2372 23.5512 12.2372 23.3785C12.2372 23.2059 12.0973 23.066 11.9247 23.066H11.0652C10.8926 23.066 10.7527 23.2059 10.7527 23.3785V25.1044C10.7527 25.277 10.8926 25.4169 11.0652 25.4169H11.9247C12.0973 25.4169 12.2372 25.277 12.2372 25.1044C12.2372 24.9318 12.0973 24.792 11.9247 24.792Z" fill="white"/>
<path d="M10.0822 13.7936H9.54138C9.36876 13.7936 9.22888 13.6538 9.22888 13.4811C9.22888 13.3085 9.36876 13.1686 9.54138 13.1686H10.0822C10.2548 13.1686 10.3947 13.3085 10.3947 13.4811C10.3947 13.6538 10.2548 13.7936 10.0822 13.7936Z" fill="#9393FF"/>
<path d="M8.57313 13.7936H8.45663C8.28401 13.7936 8.14413 13.6538 8.14413 13.4811C8.14413 13.3085 8.28401 13.1686 8.45663 13.1686H8.57313C8.74576 13.1686 8.88563 13.3085 8.88563 13.4811C8.88563 13.6538 8.74576 13.7936 8.57313 13.7936Z" fill="#FF6C6C"/>
<path d="M10.0822 14.9349H9.54138C9.36876 14.9349 9.22888 14.795 9.22888 14.6224C9.22888 14.4498 9.36876 14.3099 9.54138 14.3099H10.0822C10.2548 14.3099 10.3947 14.4498 10.3947 14.6224C10.3947 14.795 10.2548 14.9349 10.0822 14.9349Z" fill="#9393FF"/>
<path d="M8.57313 14.9349H8.45663C8.28401 14.9349 8.14413 14.795 8.14413 14.6224C8.14413 14.4498 8.28401 14.3099 8.45663 14.3099H8.57313C8.74576 14.3099 8.88563 14.4498 8.88563 14.6224C8.88563 14.795 8.74576 14.9349 8.57313 14.9349Z" fill="#FF6C6C"/>
<path d="M24.4016 22.6956H21.5795C21.4069 22.6956 21.267 22.5557 21.267 22.3831C21.267 22.2105 21.4069 22.0706 21.5795 22.0706H24.4016C24.5742 22.0706 24.7141 22.2105 24.7141 22.3831C24.7141 22.5557 24.5742 22.6956 24.4016 22.6956Z" fill="#9393FF"/>
<path d="M25.7364 22.6956H25.6199C25.4472 22.6956 25.3074 22.5557 25.3074 22.3831C25.3074 22.2105 25.4472 22.0706 25.6199 22.0706H25.7364C25.909 22.0706 26.0489 22.2105 26.0489 22.3831C26.0489 22.5557 25.909 22.6956 25.7364 22.6956Z" fill="#6C6CFF"/>
<path d="M24.4016 23.8369H17.6212C17.4486 23.8369 17.3087 23.697 17.3087 23.5244C17.3087 23.3517 17.4486 23.2119 17.6212 23.2119H24.4016C24.5742 23.2119 24.7141 23.3517 24.7141 23.5244C24.7141 23.697 24.5742 23.8369 24.4016 23.8369Z" fill="#9393FF"/>
<path d="M25.7364 23.8369H25.6199C25.4472 23.8369 25.3074 23.697 25.3074 23.5244C25.3074 23.3517 25.4472 23.2119 25.6199 23.2119H25.7364C25.909 23.2119 26.0489 23.3517 26.0489 23.5244C26.0489 23.697 25.909 23.8369 25.7364 23.8369Z" fill="#FF9C33"/>
<path d="M24.4016 24.9781H18.8712C18.6986 24.9781 18.5587 24.8382 18.5587 24.6656C18.5587 24.493 18.6986 24.3531 18.8712 24.3531H24.4016C24.5742 24.3531 24.7141 24.493 24.7141 24.6656C24.7141 24.8382 24.5742 24.9781 24.4016 24.9781Z" fill="#9393FF"/>
<path d="M25.7364 24.9781H25.6199C25.4472 24.9781 25.3074 24.8382 25.3074 24.6656C25.3074 24.493 25.4472 24.3531 25.6199 24.3531H25.7364C25.909 24.3531 26.0489 24.493 26.0489 24.6656C26.0489 24.8382 25.909 24.9781 25.7364 24.9781Z" fill="#FF6C6C"/>
<path d="M21.5484 21.0256C21.3757 21.0256 21.2359 20.8858 21.2359 20.7131V20.1818C21.2359 20.0092 21.3757 19.8693 21.5484 19.8693C21.721 19.8693 21.8609 20.0092 21.8609 20.1818V20.7131C21.8609 20.8858 21.721 21.0256 21.5484 21.0256Z" fill="#FF6C6C"/>
<path d="M22.5911 21.0256C22.4184 21.0256 22.2786 20.8858 22.2786 20.7131V19.4318C22.2786 19.2592 22.4184 19.1193 22.5911 19.1193C22.7637 19.1193 22.9036 19.2592 22.9036 19.4318V20.7131C22.9036 20.8858 22.7637 21.0256 22.5911 21.0256Z" fill="#FF9C33"/>
<path d="M23.6337 21.0256C23.4611 21.0256 23.3212 20.8858 23.3212 20.7131V19.1818C23.3212 19.0092 23.4611 18.8693 23.6337 18.8693C23.8064 18.8693 23.9462 19.0092 23.9462 19.1818V20.7131C23.9462 20.8858 23.8063 21.0256 23.6337 21.0256Z" fill="#FF9C33"/>
<path d="M24.6763 21.0256C24.5037 21.0256 24.3638 20.8858 24.3638 20.7131V17.9318C24.3638 17.7592 24.5037 17.6193 24.6763 17.6193C24.8489 17.6193 24.9888 17.7592 24.9888 17.9318V20.7131C24.9888 20.8858 24.8489 21.0256 24.6763 21.0256Z" fill="#6C6CFF"/>
<path d="M25.719 21.0256C25.5464 21.0256 25.4065 20.8858 25.4065 20.7131V17.9318C25.4065 17.7592 25.5464 17.6193 25.719 17.6193C25.8916 17.6193 26.0315 17.7592 26.0315 17.9318V20.7131C26.0315 20.8858 25.8916 21.0256 25.719 21.0256Z" fill="#6C6CFF"/>
<path d="M20.3543 21.0256H18.509C18.3364 21.0256 18.1965 20.8858 18.1965 20.7131C18.1965 20.5405 18.3364 20.4006 18.509 20.4006H20.3543C20.5269 20.4006 20.6668 20.5405 20.6668 20.7131C20.6668 20.8858 20.5269 21.0256 20.3543 21.0256Z" fill="#FF6C6C"/>
<path d="M10.6797 17.1427H10.5632C10.3906 17.1427 10.2507 17.0028 10.2507 16.8302C10.2507 16.6576 10.3906 16.5177 10.5632 16.5177H10.6797C10.8524 16.5177 10.9922 16.6576 10.9922 16.8302C10.9922 17.0028 10.8524 17.1427 10.6797 17.1427Z" fill="#FF6C6C"/>
<path d="M14.6353 22.6956H14.5188C14.3461 22.6956 14.2063 22.5557 14.2063 22.3831C14.2063 22.2105 14.3461 22.0706 14.5188 22.0706H14.6353C14.8079 22.0706 14.9478 22.2105 14.9478 22.3831C14.9478 22.5557 14.8079 22.6956 14.6353 22.6956Z" fill="#9393FF"/>
<path d="M14.3343 16.8045H14.2178C14.0451 16.8045 13.9053 16.6646 13.9053 16.492C13.9053 16.3194 14.0451 16.1795 14.2178 16.1795H14.3343C14.5069 16.1795 14.6468 16.3194 14.6468 16.492C14.6468 16.6646 14.5069 16.8045 14.3343 16.8045Z" fill="#FFC498"/>
<path d="M14.9607 5.14405C14.8711 5.14405 14.7823 5.1058 14.7204 5.03161C14.6099 4.89899 14.6279 4.70199 14.7604 4.59149L15.0302 4.36667L14.7604 4.1418C14.6279 4.0313 14.6099 3.83424 14.7204 3.70167C14.8309 3.56911 15.028 3.55117 15.1606 3.66167L15.7184 4.12655C15.7897 4.18592 15.8309 4.27386 15.8309 4.36661C15.8309 4.45936 15.7897 4.54736 15.7184 4.60667L15.1606 5.07155C15.1022 5.1203 15.0312 5.14405 14.9607 5.14405Z" fill="#6C6CFF"/>
<path d="M11.0023 7.76474C10.9128 7.76474 10.8239 7.72649 10.7621 7.6523C10.6515 7.51968 10.6695 7.32268 10.8021 7.21218L11.0718 6.98737L10.8021 6.76249C10.6695 6.65199 10.6516 6.45493 10.7621 6.32237C10.8725 6.1898 11.0696 6.1718 11.2022 6.28237L11.7601 6.74724C11.8313 6.80662 11.8725 6.89455 11.8725 6.9873C11.8725 7.08005 11.8313 7.16805 11.7601 7.22737L11.2022 7.69224C11.1438 7.74105 11.0728 7.76474 11.0023 7.76474Z" fill="#FF6C6C"/>
<path d="M3.18288 20.8499C3.09332 20.8499 3.00444 20.8116 2.94263 20.7374C2.83207 20.6048 2.85007 20.4078 2.98263 20.2973L3.25238 20.0725L2.98263 19.8476C2.85007 19.7371 2.83213 19.5401 2.94263 19.4075C3.053 19.2749 3.25019 19.2569 3.38275 19.3675L3.94063 19.8324C4.01188 19.8918 4.05307 19.9797 4.05307 20.0724C4.05307 20.1652 4.01188 20.2532 3.94063 20.3125L3.38275 20.7774C3.32432 20.8261 3.25338 20.8499 3.18288 20.8499Z" fill="#FFAA66"/>
<path d="M3.88275 18.0345C3.71013 18.0345 3.57025 17.8946 3.57025 17.722V17.1314C3.57025 16.9588 3.71013 16.8189 3.88275 16.8189C4.05538 16.8189 4.19525 16.9588 4.19525 17.1314V17.722C4.19525 17.8946 4.05538 18.0345 3.88275 18.0345Z" fill="#FF6C6C"/>
<path d="M4.75563 18.0345C4.58301 18.0345 4.44313 17.8946 4.44313 17.722V17.1314C4.44313 16.9588 4.58301 16.8189 4.75563 16.8189C4.92826 16.8189 5.06813 16.9588 5.06813 17.1314V17.722C5.06813 17.8946 4.92826 18.0345 4.75563 18.0345Z" fill="#FF6C6C"/>
<path d="M25.7332 29.3282C25.5606 29.3282 25.4207 29.1883 25.4207 29.0157V28.4251C25.4207 28.2525 25.5606 28.1126 25.7332 28.1126C25.9058 28.1126 26.0457 28.2525 26.0457 28.4251V29.0157C26.0457 29.1883 25.9058 29.3282 25.7332 29.3282Z" fill="#6C6CFF"/>
<path d="M26.6061 29.3282C26.4335 29.3282 26.2936 29.1883 26.2936 29.0157V28.4251C26.2936 28.2525 26.4335 28.1126 26.6061 28.1126C26.7787 28.1126 26.9186 28.2525 26.9186 28.4251V29.0157C26.9186 29.1883 26.7787 29.3282 26.6061 29.3282Z" fill="#6C6CFF"/>
</svg>
