<svg width="64" height="64" viewBox="0 0 64 64" fill="none" xmlns="http://www.w3.org/2000/svg">
<path d="M2.00927 36.9928C4.35015 44.9932 11.0977 61.3133 22.4995 59.8484C33.9353 58.379 29.4694 43.6328 39.938 41.6117C44.5464 40.7219 47.6701 48.6978 52.2888 48.4497C58.2373 48.13 61.265 42.2418 62.9273 37.2917C66.4519 26.7957 61.1736 8.99766 48.8199 5.91516C38.0394 3.22528 36.7784 16.397 27.4046 12.5712C22.136 10.4208 22.6624 3.99916 16.2456 2.70341C-3.1666 -1.21647 -1.1056 26.3472 2.00927 36.9928Z" fill="#EEF1FF"/>
<path opacity="0.1" d="M32 31.9211C27.2667 31.9211 22.8337 33.2048 19.0281 35.4413V33.6975C19.0281 33.3523 18.7482 33.0725 18.4031 33.0725H7.58162C7.2365 33.0725 6.95662 33.3523 6.95662 33.6975V41.7895C6.95662 42.1346 7.2365 42.4145 7.58162 42.4145H11.3097C8.315 46.498 6.5 51.5008 6.367 56.921C6.35837 57.2722 6.64137 57.562 6.99275 57.562H41.1079V60.5745C41.1079 60.9196 41.3877 61.1995 41.7329 61.1995H52.5545C52.8996 61.1995 53.1795 60.9196 53.1795 60.5745V57.562H57.0075C57.3589 57.562 57.6417 57.2722 57.6332 56.921C57.2929 43.0561 45.9467 31.9211 32 31.9211Z" fill="#0000CB"/>
<path d="M50.075 14.0047V41.1578C50.075 41.7628 49.5837 42.2528 48.98 42.2528H15.02C14.4162 42.2528 13.925 41.7628 13.925 41.1578V14.0047L14.5505 13.3797H49.3839L50.075 14.0047Z" fill="white"/>
<path d="M50.075 9.3497V14.0047H13.925V9.3497C13.925 8.7447 14.4162 8.2547 15.02 8.2547H48.98C49.5837 8.2547 50.075 8.7447 50.075 9.3497Z" fill="#FF6C6C"/>
<path d="M17.6905 11.9992C18.0357 11.9992 18.3155 11.7194 18.3155 11.3742C18.3155 11.029 18.0357 10.7492 17.6905 10.7492C17.3453 10.7492 17.0655 11.029 17.0655 11.3742C17.0655 11.7194 17.3453 11.9992 17.6905 11.9992Z" fill="white"/>
<path d="M19.92 11.9992C20.2652 11.9992 20.545 11.7194 20.545 11.3742C20.545 11.029 20.2652 10.7492 19.92 10.7492C19.5748 10.7492 19.295 11.029 19.295 11.3742C19.295 11.7194 19.5748 11.9992 19.92 11.9992Z" fill="white"/>
<path d="M22.1496 11.9992C22.4948 11.9992 22.7746 11.7194 22.7746 11.3742C22.7746 11.029 22.4948 10.7492 22.1496 10.7492C21.8044 10.7492 21.5246 11.029 21.5246 11.3742C21.5246 11.7194 21.8044 11.9992 22.1496 11.9992Z" fill="white"/>
<path d="M45.8474 24.4824H26.0974V16.7509H45.8474C46.1925 16.7509 46.4724 17.0307 46.4724 17.3759V23.8574C46.4724 24.2025 46.1925 24.4824 45.8474 24.4824Z" fill="#B2B2FF"/>
<path d="M44.3474 39.3485H19.6531C19.308 39.3485 19.0281 39.0686 19.0281 38.7235V27.242C19.0281 26.8969 19.308 26.617 19.6531 26.617H44.3472C44.6924 26.617 44.9722 26.8969 44.9722 27.242V38.7235C44.9724 39.0688 44.6925 39.3485 44.3474 39.3485Z" fill="#FF9393"/>
<path d="M26.0974 24.4824H18.1532C17.8081 24.4824 17.5282 24.2025 17.5282 23.8574V17.3759C17.5282 17.0307 17.8081 16.7509 18.1532 16.7509H26.0974C26.4425 16.7509 26.7224 17.0307 26.7224 17.3759V23.8574C26.7224 24.2025 26.4425 24.4824 26.0974 24.4824Z" fill="#8282FF"/>
<path d="M24.498 22.1176L23.5032 21.1229C23.9182 20.3307 23.7934 19.3274 23.1285 18.6625C22.3097 17.8439 20.9777 17.8439 20.159 18.6625C19.3404 19.4811 19.3404 20.8134 20.159 21.632C20.5684 22.0412 21.106 22.246 21.6437 22.246C21.9794 22.246 22.3149 22.1662 22.6194 22.0067L23.6141 23.0015C23.7362 23.1235 23.8961 23.1845 24.0561 23.1845C24.2161 23.1845 24.376 23.1235 24.4981 23.0015C24.742 22.7574 24.742 22.3616 24.498 22.1176ZM21.043 20.7481C20.7117 20.4169 20.7117 19.8777 21.043 19.5465C21.2086 19.3809 21.4262 19.298 21.6439 19.298C21.8615 19.298 22.079 19.3809 22.2447 19.5465C22.576 19.8777 22.576 20.4169 22.2447 20.7481C21.9135 21.0794 21.3742 21.0795 21.043 20.7481Z" fill="white"/>
<path d="M30.2777 22.9006H28.8532C28.6461 22.9006 28.4782 22.7327 28.4782 22.5256V18.7076C28.4782 18.5005 28.6461 18.3326 28.8532 18.3326H30.2777C30.4849 18.3326 30.6527 18.5005 30.6527 18.7076V22.5256C30.6527 22.7326 30.4849 22.9006 30.2777 22.9006Z" fill="#FF6C6C"/>
<path d="M44.8237 32.3537L40.565 39.73L32 37.4375V28.9212C36.6712 28.9212 41.0512 30.1712 44.8237 32.3537Z" fill="#FFAA66"/>
<path d="M57.6337 53.9187C57.6425 54.2712 57.36 54.5624 57.0075 54.5624H49.1237L46.8325 45.9999L54.21 41.7399C56.2925 45.3374 57.5237 49.4887 57.6337 53.9187Z" fill="#FF4D4D"/>
<path d="M54.21 41.74L46.8325 46L40.565 39.7299L44.8237 32.3537C48.715 34.6049 51.9587 37.85 54.21 41.74Z" fill="#FF6C6C"/>
<path d="M32 28.9212V37.4375L23.4362 39.73L19.1775 32.3537C22.95 30.17 27.3287 28.9212 32 28.9212Z" fill="#FFC498"/>
<path d="M23.4362 39.7299L17.1675 46L9.78999 41.74C12.0412 37.8487 15.2862 34.6037 19.1775 32.3537L23.4362 39.7299Z" fill="#9393FF"/>
<path d="M19.0287 33.6974V41.79C19.0287 42.135 18.7487 42.415 18.4037 42.415H10.9587L9.78999 41.74C11.8112 38.245 14.635 35.2712 18.0087 33.0724H18.4037C18.7487 33.0724 19.0287 33.3524 19.0287 33.6974Z" fill="#8282FF"/>
<path d="M17.1675 45.9999L14.8762 54.5624H6.99249C6.63999 54.5624 6.35749 54.2712 6.36624 53.9187C6.47624 49.4887 7.70749 45.3374 9.78999 41.7399L17.1675 45.9999Z" fill="#B2B2FF"/>
<path d="M10.9587 42.4149H9.41374C9.53499 42.1874 9.66124 41.9624 9.78999 41.7399L10.9587 42.4149Z" fill="#9393FF"/>
<path d="M32 37.4378C22.5426 37.4378 14.8759 45.1046 14.8759 54.5619H17.2064L18.4039 53.9369H45.7231L46.7936 54.5619H49.1241C49.1241 45.1046 41.4574 37.4378 32 37.4378Z" fill="white"/>
<path d="M32 39.7684C23.8297 39.7684 17.2064 46.3918 17.2064 54.5621H26.4342L27.6071 53.9371H36.5982L37.5657 54.5621H46.7936C46.7936 46.3917 40.1702 39.7684 32 39.7684Z" fill="#D8D8FF"/>
<path d="M32 48.9962C28.9261 48.9962 26.4342 51.4881 26.4342 54.562H37.5657C37.5657 51.4881 35.0739 48.9962 32 48.9962Z" fill="#8282FF"/>
<path d="M31.558 52.7908L28.2779 49.5107C28.1221 49.3549 28.0599 49.1286 28.114 48.9149L31.3941 35.9924C31.5536 35.3642 32.4462 35.3642 32.6057 35.9924L35.8859 48.9149C35.9401 49.1286 35.8779 49.3548 35.722 49.5107L32.4419 52.7908C32.1979 53.0349 31.8021 53.0349 31.558 52.7908Z" fill="#4D4DFF"/>
<path d="M30.3021 47.8566L31.7756 40.682C31.8257 40.438 32.1742 40.438 32.2244 40.682L33.6979 47.8566C33.7211 47.9698 33.686 48.087 33.6042 48.1688L32.2429 49.5301C32.1087 49.6643 31.8911 49.6643 31.757 49.5301L30.3956 48.1688C30.314 48.087 30.2789 47.9698 30.3021 47.8566Z" fill="#6C6CFF"/>
<path d="M32 50.0199C32.5654 50.0199 33.0237 49.5616 33.0237 48.9962C33.0237 48.4308 32.5654 47.9724 32 47.9724C31.4346 47.9724 30.9762 48.4308 30.9762 48.9962C30.9762 49.5616 31.4346 50.0199 32 50.0199Z" fill="white"/>
<path d="M18.4031 39.4143H7.58162C7.23649 39.4143 6.95662 39.1344 6.95662 38.7893V30.6974C6.95662 30.3523 7.23649 30.0724 7.58162 30.0724H18.4031C18.7482 30.0724 19.0281 30.3523 19.0281 30.6974V38.7894C19.0281 39.1346 18.7484 39.4143 18.4031 39.4143Z" fill="#6C6CFF"/>
<path d="M9.4975 36.027C9.4975 36.3721 9.77737 36.652 10.1225 36.652H16.1139C16.459 36.652 16.7389 36.3721 16.7389 36.027C16.7389 35.6819 16.459 35.402 16.1139 35.402H10.1225C9.77737 35.402 9.4975 35.6819 9.4975 36.027Z" fill="white"/>
<path d="M9.4975 33.4598C9.4975 33.805 9.77737 34.0848 10.1225 34.0848H13.6139C13.959 34.0848 14.2389 33.805 14.2389 33.4598C14.2389 33.1147 13.959 32.8348 13.6139 32.8348H10.1225C9.77737 32.8348 9.4975 33.1147 9.4975 33.4598Z" fill="white"/>
<path d="M52.5544 58.1996H41.7329C41.3877 58.1996 41.1079 57.9197 41.1079 57.5746V49.4826C41.1079 49.1375 41.3877 48.8576 41.7329 48.8576H52.5544C52.8995 48.8576 53.1794 49.1375 53.1794 49.4826V57.5746C53.1794 57.9197 52.8995 58.1996 52.5544 58.1996Z" fill="#FF6C6C"/>
<path d="M50.3554 35.7748C45.4201 30.9522 38.9014 28.2962 32 28.2962C28.5631 28.2962 25.2209 28.9506 22.0657 30.2415C21.7462 30.3722 21.5934 30.7372 21.724 31.0566C21.8547 31.376 22.2192 31.529 22.5391 31.3983C25.5431 30.1693 28.7261 29.5462 32 29.5462C45.4595 29.5462 56.6779 40.4876 57.0075 53.9375H53.8044V49.4826C53.8044 48.7933 53.2436 48.2326 52.5544 48.2326H41.7329C41.0436 48.2326 40.4829 48.7933 40.4829 49.4826V53.9375L6.99237 53.9365C7.11537 48.9182 8.71912 44.113 11.6305 40.0393H18.4032C19.0925 40.0393 19.6532 39.4786 19.6532 38.7893V30.6975C19.6532 30.0082 19.0925 29.4475 18.4032 29.4475H14.5506V9.34933C14.5506 9.09021 14.7615 8.87933 15.0206 8.87933H48.9796C49.2387 8.87933 49.4496 9.09021 49.4496 9.34933V32.7931C49.4496 33.1383 49.7294 33.4181 50.0746 33.4181C50.4199 33.4181 50.6996 33.1383 50.6996 32.7931V9.34933C50.6996 8.40096 49.928 7.62933 48.9796 7.62933H15.0205C14.0721 7.62933 13.3005 8.40096 13.3005 9.34933V29.4475H7.58162C6.89237 29.4475 6.33162 30.0082 6.33162 30.6975V38.7893C6.33162 39.4786 6.89237 40.0393 7.58162 40.0393H10.1127C7.37262 44.157 5.86449 48.9317 5.74274 53.9056C5.73424 54.2455 5.86024 54.5666 6.09774 54.8101C6.33499 55.0533 6.65274 55.1875 6.99249 55.1875H40.4827V57.5746C40.4827 58.2638 41.0435 58.8246 41.7327 58.8246H52.5542C53.2435 58.8246 53.8042 58.2638 53.8042 57.5746V55.1875H57.0074C57.3471 55.1875 57.6649 55.0535 57.9021 54.8101C58.1395 54.5666 58.2656 54.2453 58.2571 53.9058C58.0886 47.0285 55.2824 40.5895 50.3554 35.7748ZM7.58162 30.6975H18.4031L18.4039 38.7893H7.58162V30.6975ZM41.7327 57.5746V49.4827H52.5542L52.5551 57.5746H41.7327Z" fill="#0000CB"/>
<path d="M43.6486 54.8121C43.6486 55.1572 43.9285 55.4371 44.2736 55.4371H50.265C50.6101 55.4371 50.89 55.1572 50.89 54.8121C50.89 54.4669 50.6101 54.1871 50.265 54.1871H44.2736C43.9285 54.1871 43.6486 54.4669 43.6486 54.8121Z" fill="white"/>
<path d="M43.6486 52.2449C43.6486 52.5901 43.9285 52.8699 44.2736 52.8699H47.765C48.1101 52.8699 48.39 52.5901 48.39 52.2449C48.39 51.8998 48.1101 51.6199 47.765 51.6199H44.2736C43.9285 51.6199 43.6486 51.8998 43.6486 52.2449Z" fill="white"/>
<path d="M20.331 6.26947C19.9857 6.26947 19.706 5.98972 19.706 5.64447C19.706 5.26547 19.3975 4.95697 19.0185 4.95697C18.6732 4.95697 18.3935 4.67722 18.3935 4.33197C18.3935 3.98672 18.6732 3.70697 19.0185 3.70697C19.3975 3.70697 19.706 3.39847 19.706 3.01947C19.706 2.67422 19.9857 2.39447 20.331 2.39447C20.6762 2.39447 20.956 2.67422 20.956 3.01947C20.956 3.39847 21.2645 3.70697 21.6435 3.70697C21.9887 3.70697 22.2685 3.98672 22.2685 4.33197C22.2685 4.67722 21.9887 4.95697 21.6435 4.95697C21.2645 4.95697 20.956 5.26547 20.956 5.64447C20.956 5.98972 20.6762 6.26947 20.331 6.26947Z" fill="#FF9C33"/>
<path d="M35.9051 62.3555C35.5599 62.3555 35.2801 62.0757 35.2801 61.7305C35.2801 61.3515 34.9716 61.043 34.5926 61.043C34.2474 61.043 33.9676 60.7632 33.9676 60.418C33.9676 60.0727 34.2474 59.793 34.5926 59.793C34.9716 59.793 35.2801 59.4845 35.2801 59.1053C35.2801 58.7601 35.5599 58.4803 35.9051 58.4803C36.2504 58.4803 36.5301 58.7601 36.5301 59.1053C36.5301 59.4845 36.8386 59.793 37.2176 59.793C37.5629 59.793 37.8426 60.0727 37.8426 60.418C37.8426 60.7632 37.5629 61.043 37.2176 61.043C36.8386 61.043 36.5301 61.3515 36.5301 61.7305C36.5301 62.0756 36.2504 62.3555 35.9051 62.3555Z" fill="#FF6C6C"/>
<path d="M55.5225 30.988C55.1772 30.988 54.8975 30.7082 54.8975 30.363C54.8975 29.984 54.589 29.6755 54.21 29.6755C53.8647 29.6755 53.585 29.3957 53.585 29.0505C53.585 28.7052 53.8647 28.4255 54.21 28.4255C54.589 28.4255 54.8975 28.117 54.8975 27.738C54.8975 27.3927 55.1772 27.113 55.5225 27.113C55.8677 27.113 56.1475 27.3927 56.1475 27.738C56.1475 28.117 56.456 28.4255 56.835 28.4255C57.1802 28.4255 57.46 28.7052 57.46 29.0505C57.46 29.3957 57.1802 29.6755 56.835 29.6755C56.456 29.6755 56.1475 29.984 56.1475 30.363C56.1475 30.7082 55.8676 30.988 55.5225 30.988Z" fill="#FF9C33"/>
<path d="M7.20962 27.1908C7.04975 27.1908 6.88962 27.1298 6.76775 27.0077L5.45525 25.6952C5.21112 25.4512 5.21112 25.0555 5.45525 24.8115L6.76775 23.499C7.01162 23.2548 7.40762 23.2548 7.6515 23.499L8.964 24.8115C9.20812 25.0555 9.20812 25.4512 8.964 25.6952L7.6515 27.0077C7.5295 27.1298 7.3695 27.1908 7.20962 27.1908ZM6.781 25.2533L7.20962 25.6819L7.63825 25.2533L7.20962 24.8247L6.781 25.2533Z" fill="#FF6C6C"/>
<path d="M55.5225 23.563C55.3626 23.563 55.2025 23.502 55.0806 23.3798L53.7681 22.0673C53.524 21.8233 53.524 21.4276 53.7681 21.1836L55.0806 19.8711C55.3245 19.627 55.7205 19.627 55.9644 19.8711L57.2769 21.1836C57.521 21.4276 57.521 21.8233 57.2769 22.0673L55.9644 23.3798C55.8424 23.502 55.6824 23.563 55.5225 23.563ZM55.0939 21.6255L55.5225 22.0541L55.9511 21.6255L55.5225 21.1968L55.0939 21.6255Z" fill="#6C6CFF"/>
</svg>
