<svg width="40" height="40" viewBox="0 0 40 40" fill="none" xmlns="http://www.w3.org/2000/svg">
<path d="M18.8489 16.2947C19.7937 15.7492 21.3291 15.7559 22.2597 16.3095L36.0194 24.4949C36.9217 25.0316 36.9206 25.8853 36.017 26.4213L22.2598 34.5818C21.3288 35.1341 19.7952 35.1401 18.8513 34.5952L4.69283 26.4215C3.75791 25.8818 3.75791 25.0067 4.69283 24.467L18.8489 16.2947Z" fill="#1E1E1E"/>
<path d="M20.5673 9.86517L36.4417 19.0295C37.3766 19.5692 37.3766 20.4443 36.4417 20.984L20.5673 30.1483L4.69283 20.984C3.75791 20.4443 3.75791 19.5692 4.69283 19.0295L20.5673 9.86517Z" fill="#474646"/>
<path d="M37.1448 20.5792V14.5721L20.5673 23.9743V30.1599L37.1448 20.5792Z" fill="#474646"/>
<path d="M18.8744 5.4048C19.8094 4.86507 21.3252 4.86507 22.2601 5.4048L36.4417 13.5918C37.3766 14.1316 37.3766 15.0067 36.4417 15.5464L22.2601 23.7334C21.3252 24.2732 19.8094 24.2732 18.8744 23.7334L4.69283 15.5464C3.75791 15.0067 3.75791 14.1316 4.69283 13.5918L18.8744 5.4048Z" fill="#848484"/>
<path d="M20.5673 30.1599L37.1448 20.5103V24.7086C37.1448 25.4031 36.7763 26.0454 36.1768 26.396L22.5467 34.3662L20.5673 30.1599Z" fill="#1E1E1E"/>
<path d="M3.49478 25.7362L19.0826 34.7376C19.7424 35.1186 20.5673 34.6424 20.5673 33.8805V15.147C20.5673 14.7916 20.3767 14.4634 20.0679 14.2873L4.48008 5.39565C3.82029 5.01929 3 5.49574 3 6.25533V24.8791C3 25.2327 3.18861 25.5594 3.49478 25.7362Z" fill="#C2C2C2"/>
</svg>
