<svg width="40" height="40" viewBox="0 0 40 40" fill="none" xmlns="http://www.w3.org/2000/svg">
<g clip-path="url(#clip0_13713_12491)">
<path d="M28.1464 4.2807C27.1609 4.09971 26.1612 4.00578 25.1589 4C20.8733 4 16.7632 5.68571 13.7328 8.68629C10.7024 11.6869 9 15.7565 9 20C9 24.2435 10.7024 28.3131 13.7328 31.3137C16.7632 34.3143 20.8733 36 25.1589 36C26.1605 36.0014 27.1603 35.9147 28.1464 35.7409C28.6868 35.6643 29.1779 35.3877 29.5207 34.967C29.8634 34.5462 30.0325 34.0125 29.9938 33.4733C29.9551 32.9341 29.7115 32.4294 29.3121 32.0609C28.9127 31.6924 28.3871 31.4874 27.8411 31.4872L27.3178 31.552C26.6064 31.6901 25.8837 31.7624 25.1589 31.7679C22.1035 31.6381 19.2167 30.3449 17.1011 28.1583C14.9855 25.9717 13.8045 23.0605 13.8045 20.0324C13.8045 17.0043 14.9855 14.0931 17.1011 11.9065C19.2167 9.71985 22.1035 8.4267 25.1589 8.2969C25.883 8.29532 26.6058 8.36037 27.3178 8.49123V8.49123L27.8411 8.55601C28.4119 8.55038 28.9578 8.32336 29.3614 7.92369C29.765 7.52401 29.9943 6.98355 30 6.41836C30.0046 5.90255 29.8188 5.40284 29.4774 5.01317C29.1361 4.6235 28.6628 4.3707 28.1464 4.30229" fill="#19A2A8"/>
<path d="M27.8191 17.8626H19.7942C19.491 17.8325 19.1848 17.8656 18.8953 17.9598C18.6058 18.0541 18.3394 18.2074 18.1135 18.4098C17.8875 18.6122 17.7068 18.8593 17.5832 19.1351C17.4596 19.4109 17.3957 19.7093 17.3957 20.0111C17.3957 20.3128 17.4596 20.6112 17.5832 20.887C17.7068 21.1628 17.8875 21.4099 18.1135 21.6123C18.3394 21.8147 18.6058 21.968 18.8953 22.0623C19.1848 22.1565 19.491 22.1896 19.7942 22.1595H27.8191C28.1223 22.1896 28.4286 22.1565 28.7181 22.0623C29.0076 21.968 29.2739 21.8147 29.4999 21.6123C29.7259 21.4099 29.9065 21.1628 30.0301 20.887C30.1537 20.6112 30.2176 20.3128 30.2176 20.0111C30.2176 19.7093 30.1537 19.4109 30.0301 19.1351C29.9065 18.8593 29.7259 18.6122 29.4999 18.4098C29.2739 18.2074 29.0076 18.0541 28.7181 17.9598C28.4286 17.8656 28.1223 17.8325 27.8191 17.8626" fill="#19A2A8"/>
</g>
<defs>
<clipPath id="clip0_13713_12491">
<rect width="21" height="32" fill="white" transform="translate(9 4)"/>
</clipPath>
</defs>
</svg>
