<svg width="64" height="64" viewBox="0 0 64 64" fill="none" xmlns="http://www.w3.org/2000/svg">
<g clip-path="url(#clip0_13713_13139)">
<path d="M60.3711 16.5751C56.003 11.3164 49.1861 10.591 44.1423 14.3987C42.7073 15.4819 40.9696 15.8451 39.3026 15.412C35.357 14.3867 31.2296 15.0869 27.7143 17.3198C25.3509 18.8209 22.4723 18.5599 20.2669 16.7596C18.8029 15.5646 17.1029 14.7082 15.2347 14.3053C8.305 12.8107 1.56762 18.1897 0.235497 26.2871C-1.12688 34.5682 3.564 42.5266 10.635 44.0007C12.3626 44.3608 14.071 44.3001 15.6835 43.8813C18.3005 43.2017 21.0348 44.338 22.7236 46.7742C23.7896 48.312 25.0751 49.6844 26.5683 50.8247C34.2846 56.7171 44.6216 54.1732 49.6566 45.143C49.662 45.1335 49.6673 45.1238 49.6726 45.1143C50.5948 43.4541 52.029 42.2706 53.6876 41.8787C56.1068 41.3071 58.4128 39.9178 60.2821 37.7103C65.2038 31.898 65.2448 22.4423 60.3711 16.5751Z" fill="#EEF1FF"/>
<path opacity="0.1" d="M60.125 41.2018V32.278C60.125 31.5875 59.5653 31.0276 58.8746 31.0276H52.748V17.3713C52.748 16.3356 51.9083 15.4958 50.8725 15.4958H16.7262C15.6905 15.4958 14.8507 16.3355 14.8507 17.3713V27.2766H5.12537C4.43487 27.2766 3.875 27.8363 3.875 28.527V41.2018H60.125Z" fill="#2626BC"/>
<path d="M39.4263 53.1579H28.1725L29.6462 47.3204L30.4237 44.2391H37.175L37.9525 47.3204L39.4263 53.1579Z" fill="#9FB0FE"/>
<path d="M37.9525 47.3204H29.6462L30.4237 44.2391H37.175L37.9525 47.3204Z" fill="#8399FE"/>
<path d="M50.8726 45.9453H16.7264C15.6906 45.9453 14.8509 45.1057 14.8509 44.0698V19.6213C14.8509 18.5856 15.6905 17.7458 16.7264 17.7458H50.8726C51.9084 17.7458 52.7481 18.5855 52.7481 19.6213V44.0698C52.7481 45.1056 51.9084 45.9453 50.8726 45.9453Z" fill="white"/>
<path d="M47.612 31.9366H19.987C19.7799 31.9366 19.612 31.7687 19.612 31.5616V22.5248H47.987V31.5617C47.987 31.7687 47.8191 31.9366 47.612 31.9366Z" fill="#FFA8CF"/>
<path d="M36.4562 34.8611H23.1413C22.796 34.8611 22.5163 34.5812 22.5163 34.2361C22.5163 33.891 22.796 33.6111 23.1413 33.6111H36.4562C36.8015 33.6111 37.0812 33.891 37.0812 34.2361C37.0812 34.5812 36.8014 34.8611 36.4562 34.8611Z" fill="#B7C5FF"/>
<path d="M36.4562 37.3611H23.1413C22.796 37.3611 22.5163 37.0812 22.5163 36.7361C22.5163 36.391 22.796 36.1111 23.1413 36.1111H36.4562C36.8015 36.1111 37.0812 36.391 37.0812 36.7361C37.0812 37.0812 36.8014 37.3611 36.4562 37.3611Z" fill="#B7C5FF"/>
<path d="M43.0812 37.3611H41.0162C40.671 37.3611 40.3912 37.0812 40.3912 36.7361C40.3912 36.391 40.671 36.1111 41.0162 36.1111H43.0812C43.4265 36.1111 43.7062 36.391 43.7062 36.7361C43.7062 37.0812 43.4264 37.3611 43.0812 37.3611Z" fill="#FFA8CF"/>
<path d="M52.7481 22.5249V19.6213C52.7481 18.5856 51.9084 17.7458 50.8726 17.7458H16.7264C15.6906 17.7458 14.8509 18.5855 14.8509 19.6213V22.5249H52.7481Z" fill="#6583FE"/>
<path d="M14.8509 40.9464V44.0698C14.8509 45.1056 15.6906 45.9453 16.7264 45.9453H50.8726C51.9084 45.9453 52.7481 45.1057 52.7481 44.0698V40.9464H14.8509Z" fill="#B7C5FF"/>
<path d="M58.8746 53.1578H49.6222C48.9317 53.1578 48.3719 52.5981 48.3719 51.9075V34.528C48.3719 33.8375 48.9316 33.2776 49.6222 33.2776H58.8746C59.5651 33.2776 60.125 33.8373 60.125 34.528V51.9075C60.125 52.598 59.5652 53.1578 58.8746 53.1578Z" fill="#FF7EB8"/>
<path d="M48.372 45.4102V51.9075C48.372 52.598 48.9317 53.1578 49.6222 53.1578H58.8746C59.5651 53.1578 60.125 52.5981 60.125 51.9075V45.4102H48.372Z" fill="white"/>
<path d="M56.6287 35.055L57.2076 33.2776H51.2894L51.8682 35.055C51.9521 35.3123 52.192 35.4866 52.4626 35.4866H56.0342C56.305 35.4866 56.5449 35.3123 56.6287 35.055Z" fill="#B7C5FF"/>
<path d="M21.8797 53.1579H5.12537C4.43487 53.1579 3.875 52.5981 3.875 51.9075V30.777C3.875 30.0865 4.43475 29.5266 5.12537 29.5266H21.8797C22.5702 29.5266 23.1301 30.0864 23.1301 30.777V51.9075C23.13 52.598 22.5702 53.1579 21.8797 53.1579Z" fill="white"/>
<path d="M23.13 33.6111V30.777C23.13 30.0865 22.5703 29.5266 21.8796 29.5266H5.12537C4.43487 29.5266 3.875 30.0864 3.875 30.777V33.6111H23.13Z" fill="#02FFB3"/>
<path d="M11.065 50.6393H7.18999C6.98287 50.6393 6.81499 50.4715 6.81499 50.2643V36.8268C6.81499 36.6197 6.98287 36.4518 7.18999 36.4518H11.065C11.2721 36.4518 11.44 36.6197 11.44 36.8268V50.2643C11.44 50.4715 11.2721 50.6393 11.065 50.6393Z" fill="#FFA8CF"/>
<path d="M19.815 41.0768H13.565C13.3579 41.0768 13.19 40.909 13.19 40.7018V36.8268C13.19 36.6197 13.3579 36.4518 13.565 36.4518H19.815C20.0221 36.4518 20.19 36.6197 20.19 36.8268V40.7018C20.19 40.909 20.0221 41.0768 19.815 41.0768Z" fill="#FFA8CF"/>
<path d="M19.815 50.6393H13.565C13.3579 50.6393 13.19 50.4714 13.19 50.2643V43.1953C13.19 42.9882 13.3579 42.8203 13.565 42.8203H19.815C20.0221 42.8203 20.19 42.9882 20.19 43.1953V50.2643C20.19 50.4714 20.0221 50.6393 19.815 50.6393Z" fill="#FFA8CF"/>
<path d="M18.6288 19.5031C18.2835 19.5031 18.0038 19.783 18.0038 20.1281V20.1425C18.0038 20.4876 18.2835 20.7675 18.6288 20.7675C18.974 20.7675 19.2538 20.4876 19.2538 20.1425V20.1281C19.2538 19.783 18.974 19.5031 18.6288 19.5031Z" fill="#2626BC"/>
<path d="M20.546 19.5031C20.2007 19.5031 19.921 19.783 19.921 20.1281V20.1425C19.921 20.4876 20.2007 20.7675 20.546 20.7675C20.8912 20.7675 21.171 20.4876 21.171 20.1425V20.1281C21.171 19.783 20.8912 19.5031 20.546 19.5031Z" fill="#2626BC"/>
<path d="M22.4631 19.5031C22.1179 19.5031 21.8381 19.783 21.8381 20.1281V20.1425C21.8381 20.4876 22.1179 20.7675 22.4631 20.7675C22.8084 20.7675 23.0881 20.4876 23.0881 20.1425V20.1281C23.0881 19.783 22.8084 19.5031 22.4631 19.5031Z" fill="#2626BC"/>
<path d="M58.8746 32.6526H53.373V19.6213C53.373 18.2426 52.2513 17.1208 50.8725 17.1208H16.7262C15.3475 17.1208 14.2257 18.2426 14.2257 19.6213V26.0841C14.2257 26.4292 14.5055 26.7091 14.8507 26.7091C15.196 26.7091 15.4757 26.4292 15.4757 26.0841V23.1499H52.123V32.6526H49.6222C48.5882 32.6526 47.7469 33.4939 47.7469 34.528V37.5037C47.7469 37.8489 48.0266 38.1287 48.3719 38.1287C48.7171 38.1287 48.9969 37.8489 48.9969 37.5037V34.528C48.9969 34.1831 49.2774 33.9026 49.6222 33.9026H50.8356L51.2739 35.2486C51.4421 35.7647 51.9197 36.1116 52.4626 36.1116H56.0342C56.5771 36.1116 57.0547 35.7649 57.223 35.2486L57.6613 33.9027H58.8746C59.2195 33.9027 59.5 34.1832 59.5 34.5281V51.9076C59.5 52.2524 59.2195 52.5329 58.8746 52.5329H49.6222C49.2774 52.5329 48.9969 52.2524 48.9969 51.9076V40.9465C48.9969 40.6013 48.7171 40.3215 48.3719 40.3215H23.755V30.7771C23.755 29.7431 22.9138 28.9018 21.8796 28.9018H5.12537C4.09137 28.9018 3.25 29.7431 3.25 30.7771V51.9076C3.25 52.9416 4.09125 53.7829 5.12537 53.7829H21.8796C22.9136 53.7829 23.755 52.9416 23.755 51.9076V46.5705H29.1908L27.6861 52.533H26.2663C25.921 52.533 25.6413 52.8128 25.6413 53.158C25.6413 53.5031 25.921 53.783 26.2663 53.783H41.3326C41.6779 53.783 41.9576 53.5031 41.9576 53.158C41.9576 52.8128 41.6779 52.533 41.3326 52.533H39.9128L38.4082 46.5705H47.747V51.9076C47.747 52.9416 48.5883 53.7829 49.6224 53.7829H58.8747C59.9087 53.7829 60.7501 52.9416 60.7501 51.9076V34.528C60.75 33.494 59.9088 32.6526 58.8746 32.6526ZM15.4759 21.8999V19.6213C15.4759 18.9318 16.0368 18.3708 16.7264 18.3708H50.8726C51.5622 18.3708 52.1231 18.9318 52.1231 19.6213V21.8999H15.4759ZM56.0342 34.8616H52.4624L52.1501 33.9027H56.3466L56.0342 34.8616ZM5.12537 30.1516H21.8796C22.2245 30.1516 22.505 30.4321 22.505 30.7768V32.986H4.5V30.7768C4.5 30.4321 4.7805 30.1516 5.12537 30.1516ZM22.505 51.9075C22.505 52.2522 22.2245 52.5327 21.8796 52.5327H5.12537C4.7805 52.5327 4.5 52.2522 4.5 51.9075V34.2361H22.505V51.9075ZM38.6236 52.5329H28.9753L30.4797 46.5703H37.1191L38.6236 52.5329ZM23.755 45.3203V41.5714H47.747V45.3203H23.755Z" fill="#2626BC"/>
<path d="M7.14675 32.2011C7.492 32.2011 7.77175 31.9212 7.77175 31.5761V31.5617C7.77175 31.2166 7.492 30.9367 7.14675 30.9367C6.8015 30.9367 6.52175 31.2166 6.52175 31.5617V31.5761C6.52175 31.9212 6.8015 32.2011 7.14675 32.2011Z" fill="#2626BC"/>
<path d="M9.06387 32.2011C9.40912 32.2011 9.68887 31.9212 9.68887 31.5761V31.5617C9.68887 31.2166 9.40912 30.9367 9.06387 30.9367C8.71862 30.9367 8.43887 31.2166 8.43887 31.5617V31.5761C8.43887 31.9212 8.71862 32.2011 9.06387 32.2011Z" fill="#2626BC"/>
<path d="M10.981 32.2011C11.3263 32.2011 11.606 31.9212 11.606 31.5761V31.5617C11.606 31.2166 11.3263 30.9367 10.981 30.9367C10.6358 30.9367 10.356 31.2166 10.356 31.5617V31.5761C10.356 31.9212 10.6358 32.2011 10.981 32.2011Z" fill="#2626BC"/>
<path d="M33.5121 26.8937L33.7995 26.6065L34.0869 26.8937C34.209 27.0157 34.3689 27.0767 34.5288 27.0767C34.6886 27.0767 34.8487 27.0157 34.9707 26.8936C35.2147 26.6495 35.2148 26.2538 34.9706 26.0097L34.2414 25.2806C33.9975 25.0366 33.6015 25.0366 33.3576 25.2806L32.6284 26.0097C32.3843 26.2538 32.3843 26.6495 32.6283 26.8936C32.8724 27.1378 33.2682 27.1378 33.5121 26.8937Z" fill="#2626BC"/>
<path d="M53 50.2435H51.25C51.0429 50.2435 50.875 50.0756 50.875 49.8685V39.1393C50.875 38.9322 51.0429 38.7643 51.25 38.7643H53C53.2071 38.7643 53.375 38.9322 53.375 39.1393V49.8685C53.375 50.0756 53.2071 50.2435 53 50.2435Z" fill="#97FFD2"/>
<path d="M49.737 14.2169C49.3917 14.2169 49.112 13.937 49.112 13.5919C49.112 13.1782 48.7756 12.8419 48.362 12.8419C48.0167 12.8419 47.737 12.562 47.737 12.2169C47.737 11.8717 48.0167 11.5919 48.362 11.5919C48.7756 11.5919 49.112 11.2555 49.112 10.8419C49.112 10.4967 49.3917 10.2169 49.737 10.2169C50.0822 10.2169 50.362 10.4967 50.362 10.8419C50.362 11.2555 50.6984 11.5919 51.112 11.5919C51.4572 11.5919 51.737 11.8717 51.737 12.2169C51.737 12.562 51.4572 12.8419 51.112 12.8419C50.6984 12.8419 50.362 13.1782 50.362 13.5919C50.362 13.9371 50.0821 14.2169 49.737 14.2169Z" fill="#97FFD2"/>
<path d="M57.2076 30.4182C56.8624 30.4182 56.5826 30.1383 56.5826 29.7932C56.5826 29.3796 56.2461 29.0432 55.8325 29.0432C55.4872 29.0432 55.2075 28.7633 55.2075 28.4182C55.2075 28.0731 55.4872 27.7932 55.8325 27.7932C56.2461 27.7932 56.5826 27.4568 56.5826 27.0432C56.5826 26.6981 56.8624 26.4182 57.2076 26.4182C57.5529 26.4182 57.8326 26.6981 57.8326 27.0432C57.8326 27.4568 58.169 27.7932 58.5825 27.7932C58.9277 27.7932 59.2075 28.0731 59.2075 28.4182C59.2075 28.7633 58.9277 29.0432 58.5825 29.0432C58.169 29.0432 57.8326 29.3796 57.8326 29.7932C57.8326 30.1383 57.5529 30.4182 57.2076 30.4182Z" fill="#6583FE"/>
<path d="M55.4575 16.9889C55.2976 16.9889 55.1375 16.9279 55.0156 16.8059L53.6406 15.4309C53.3965 15.1868 53.3965 14.791 53.6406 14.547L55.0156 13.172C55.2595 12.928 55.6555 12.928 55.8994 13.172L57.2744 14.547C57.5185 14.7911 57.5185 15.1869 57.2744 15.4309L55.8994 16.8059C55.7775 16.9279 55.6174 16.9889 55.4575 16.9889ZM54.9664 14.9889L55.4575 15.48L55.9486 14.9889L55.4575 14.4978L54.9664 14.9889Z" fill="#FF7EB8"/>
<path d="M9.12762 26.0419C8.96775 26.0419 8.80762 25.9809 8.68575 25.8589L7.31075 24.4839C7.06662 24.2397 7.06662 23.844 7.31075 23.6L8.68575 22.225C8.92962 21.981 9.32562 21.981 9.5695 22.225L10.9445 23.6C11.1886 23.8441 11.1886 24.2399 10.9445 24.4839L9.5695 25.8589C9.4475 25.9809 9.2875 26.0419 9.12762 26.0419ZM8.6365 24.0419L9.12762 24.533L9.61875 24.0419L9.12762 23.5507L8.6365 24.0419Z" fill="#FF7EB8"/>
<path d="M45.4166 28.8257C45.8025 28.8257 46.1154 29.1386 46.1154 29.5245C46.1154 29.9104 45.8025 30.2232 45.4166 30.2232C45.0307 30.2232 44.7179 29.9104 44.7179 29.5245C44.7179 29.1386 45.0307 28.8257 45.4166 28.8257Z" fill="#FF5BA8"/>
<path d="M45.4166 26.712C45.8025 26.712 46.1154 27.0248 46.1154 27.4107C46.1154 27.7966 45.8025 28.1095 45.4166 28.1095C45.0307 28.1095 44.7179 27.7966 44.7179 27.4107C44.7179 27.0248 45.0307 26.712 45.4166 26.712Z" fill="#FF5BA8"/>
<path d="M45.4166 24.5982C45.8025 24.5982 46.1154 24.9111 46.1154 25.297C46.1154 25.6828 45.8025 25.9957 45.4166 25.9957C45.0307 25.9957 44.7179 25.6828 44.7179 25.297C44.7179 24.9111 45.0307 24.5982 45.4166 24.5982Z" fill="#FF5BA8"/>
</g>
<defs>
<clipPath id="clip0_13713_13139">
<rect width="64" height="64" fill="white"/>
</clipPath>
</defs>
</svg>
