<svg width="40" height="40" viewBox="0 0 40 40" fill="none" xmlns="http://www.w3.org/2000/svg">
<path d="M36 30C36 33.31 33.31 36 30 36H10C6.69 36 4 33.31 4 30V10C4 6.69 6.69 4 10 4H30C33.31 4 36 6.69 36 10V30Z" fill="#336AEA"/>
<path d="M18 29.38C18 29.73 17.72 30 17.38 30H10.63C10.28 30 10.01 29.72 10.01 29.38V27.63C10.01 27.28 10.29 27.01 10.63 27.01H17.38C17.73 27.01 18 27.29 18 27.63V29.38ZM29.37 15C29.72 15 29.99 14.72 29.99 14.38V10.63C29.99 10.28 29.71 10.01 29.37 10.01H10.62C10.27 10.01 10 10.29 10 10.63V24.38C10 24.73 10.28 25 10.62 25H17.37C17.72 25 17.99 24.72 17.99 24.38V22.63C17.99 22.28 18.27 22.01 18.61 22.01H29.36C29.71 22.01 29.98 21.73 29.98 21.39V17.64C29.98 17.29 29.7 17.02 29.36 17.02H18.62C18.27 17.02 18 16.74 18 16.4V15.65C18 15.3 18.28 15.03 18.62 15.03H29.37V15Z" fill="white"/>
</svg>
