<svg width="40" height="40" viewBox="0 0 40 40" fill="none" xmlns="http://www.w3.org/2000/svg">
<path d="M30.5751 10.9149C30.5751 10.9149 26.3414 10.0747 23.8726 11.4332V7H17.7643V9.81086C17.7643 9.81086 17.8666 12.1837 14.0499 12.6555C10.2331 13.1273 2 15.4991 2 23.5474V32.9522C2 32.9522 5.73761 33.5929 7.53728 30.1846C7.53728 30.1846 10.9181 33.406 17.7643 31.4111C17.7643 31.4111 21.9821 29.8595 23.2276 25.5867C24.4732 21.314 22.1837 16.5198 27.8181 16.0501C27.8181 16.0501 31.9642 15.5877 31.9136 21.3815C31.8629 27.1763 30.9963 32.0275 35.7018 32.0887L38.0124 32.0824V20.7957C38.0113 20.7957 38.3712 13.0534 30.5751 10.9149ZM17.8202 22.1362L17.7959 22.1162C17.8118 22.2618 17.8202 22.4096 17.8202 22.5605C17.8202 24.8077 15.9984 26.6306 13.7501 26.6306C11.5029 26.6306 9.67999 24.8088 9.67999 22.5605C9.67999 20.4495 11.2876 18.7142 13.3458 18.5105L13.3205 18.4904C16.5694 18.1168 18.0324 17.5732 18.0324 17.5732C18.0324 17.5732 17.6239 19.7929 17.8202 22.1362Z" fill="#609AEF"/>
<path d="M2.04431 8.32788H4.30419C4.30419 8.32788 6.89233 8.38277 7.75575 10.4432C7.75575 10.4432 8.05235 11.1672 8.04074 11.9103C8.03019 12.6534 8.04074 12.8529 8.04074 12.8529C8.04074 12.8529 3.87881 13.8673 2.04431 17.5722V8.32788Z" fill="#0249B8"/>
</svg>
