<svg width="64" height="64" viewBox="0 0 64 64" fill="none" xmlns="http://www.w3.org/2000/svg">
<g clip-path="url(#clip0_13713_13219)">
<path d="M59.8169 7.44085C54.7578 -1.02115 46.3851 3.61848 38.3278 3.33623C28.0409 2.97598 21.4646 -4.59552 13.1409 5.90398C6.44288 14.3526 9.0355 25.8077 7.44675 35.7169C6.3765 42.3917 0.981251 47.6832 0.0601265 54.2416C-0.518248 58.3592 3.16738 62.3439 7.23 63.2284C23.2303 66.7121 31.9708 47.0995 45.0906 41.3986C57.1726 36.1489 71.1455 26.3896 59.8169 7.44085Z" fill="#EEF1FF"/>
<path opacity="0.1" d="M44.7299 18.9814V13.8826C44.7299 12.502 43.6106 11.3826 42.2299 11.3826H23.0821V10.349C23.0821 9.65862 22.5225 9.099 21.8321 9.099H9.71875C9.02838 9.099 8.46875 9.65862 8.46875 10.349V21.8965C8.46875 22.5869 9.02838 23.1465 9.71875 23.1465H15.1504V46.8535H9.71875C9.02838 46.8535 8.46875 47.4131 8.46875 48.1035V59.651C8.46875 60.3414 9.02838 60.901 9.71875 60.901H21.8321C22.5225 60.901 23.0821 60.3414 23.0821 59.651V58.5196H42.2299C43.6106 58.5196 44.7299 57.4004 44.7299 56.0196V50.9207C51.615 48.8752 56.6374 42.4998 56.6374 34.9506C56.6374 27.4015 51.615 21.0266 44.7299 18.9814ZM19.2701 23.1465V34.375H16.4004V23.1465H19.2701ZM16.4005 35.625H19.2703V46.8535H16.4005V35.625ZM44.7299 43.2199V26.6817C47.5892 28.3284 49.5146 31.4149 49.5146 34.9507C49.5146 38.4871 47.5892 41.5734 44.7299 43.2199Z" fill="#2626BC"/>
<path d="M42.2299 55.5196H21.7701C20.3894 55.5196 19.2701 54.4004 19.2701 53.0196V10.8826C19.2701 9.50188 20.3894 8.38263 21.7701 8.38263H42.2299C43.6106 8.38263 44.7299 9.50188 44.7299 10.8826V53.0196C44.7299 54.4004 43.6106 55.5196 42.2299 55.5196Z" fill="#6582FD"/>
<path d="M21.8321 9.099H20.0198C19.5575 9.55262 19.2701 10.1837 19.2701 10.8826V23.1466H21.8321C22.5225 23.1466 23.0821 22.587 23.0821 21.8966V10.3491C23.0821 9.65862 22.5225 9.099 21.8321 9.099Z" fill="#4369FC"/>
<path d="M39.9786 18.7296V24.9939C39.9786 25.2254 40.1618 25.4136 40.3931 25.4236C41.9678 25.491 43.4433 25.9409 44.7299 26.6817V18.9814C43.3588 18.5741 41.9143 18.3375 40.4203 18.2986C40.1782 18.2922 39.9786 18.4875 39.9786 18.7296Z" fill="#4369FC"/>
<path d="M44.7299 43.2198C43.4433 43.9607 41.9678 44.4105 40.393 44.4778C40.1618 44.4877 39.9785 44.676 39.9785 44.9075V51.1726C39.9785 51.4147 40.1781 51.61 40.4203 51.6037C41.9141 51.5648 43.3588 51.3282 44.7299 50.9208V43.2198Z" fill="#4369FC"/>
<path d="M21.7701 53.6446C21.4255 53.6446 21.1451 53.3643 21.1451 53.0196V10.8826C21.1451 10.538 21.4255 10.2576 21.7701 10.2576H42.2299C42.5745 10.2576 42.8549 10.538 42.8549 10.8826V53.0196C42.8549 53.3643 42.5745 53.6446 42.2299 53.6446H21.7701Z" fill="#9EAFFD"/>
<path d="M21.1451 10.8826V23.1465H21.8321C22.5225 23.1465 23.0821 22.5869 23.0821 21.8965V10.349C23.0821 10.3181 23.0798 10.2879 23.0775 10.2576H21.7701C21.4255 10.2576 21.1451 10.538 21.1451 10.8826Z" fill="#8298FD"/>
<path d="M42.855 18.54V25.8575C42.0725 25.61 41.2475 25.46 40.3925 25.4237C40.1613 25.4137 39.9788 25.225 39.9788 24.9937V18.73C39.9788 18.4875 40.1788 18.2925 40.42 18.2987C41.2475 18.32 42.0613 18.4025 42.855 18.54Z" fill="#8298FD"/>
<path d="M42.855 44.0437V51.3612C42.0613 51.5 41.2475 51.5824 40.42 51.6037C40.1788 51.6099 39.9788 51.415 39.9788 51.1725V44.9075C39.9788 44.6762 40.1613 44.4875 40.3925 44.4775C41.2475 44.4412 42.0725 44.2925 42.855 44.0437Z" fill="#8298FD"/>
<path d="M33.2643 13.2378H30.7359C30.1873 13.2378 29.7426 12.793 29.7426 12.2445C29.7426 11.6959 30.1874 11.2513 30.7359 11.2513H33.2643C33.8129 11.2513 34.2575 11.696 34.2575 12.2445C34.2575 12.793 33.8128 13.2378 33.2643 13.2378Z" fill="#4369FC"/>
<path d="M39.3066 38.6488H24.6934C24.003 38.6488 23.4434 38.0892 23.4434 37.3988V28.0663L32 27.6913L40.5566 28.0663V37.3988C40.5566 38.0892 39.997 38.6488 39.3066 38.6488Z" fill="#FF7EB7"/>
<path d="M40.5566 28.0663V26.6013C40.5566 25.9109 39.997 25.3513 39.3066 25.3513H24.6934C24.003 25.3513 23.4434 25.9109 23.4434 26.6013V28.0663H40.5566Z" fill="#FD2C8E"/>
<path d="M30.2529 30.4415V33.9102C30.2529 34.2479 30.6164 34.4607 30.9109 34.2954L34.0015 32.561C34.3023 32.3923 34.3023 31.9593 34.0015 31.7904L30.9109 30.056C30.6164 29.891 30.2529 30.1039 30.2529 30.4415Z" fill="white"/>
<path d="M38.217 36.9717C37.8718 36.9717 37.592 36.6959 37.592 36.3507V36.3425C37.592 35.9973 37.8718 35.7175 38.217 35.7175C38.5623 35.7175 38.842 35.9973 38.842 36.3425C38.842 36.6878 38.5623 36.9717 38.217 36.9717Z" fill="white"/>
<path d="M36.2305 36.9717C35.8853 36.9717 35.6055 36.6959 35.6055 36.3507V36.3425C35.6055 35.9973 35.8853 35.7175 36.2305 35.7175C36.5758 35.7175 36.8555 35.9973 36.8555 36.3425C36.8555 36.6878 36.5756 36.9717 36.2305 36.9717Z" fill="white"/>
<path d="M50.2878 45.037C47.5594 47.1894 44.1416 48.5067 40.4203 48.6036C40.1783 48.6099 39.9785 48.4146 39.9785 48.1725V41.9075C39.9785 41.676 40.1618 41.4877 40.393 41.4779C45.4674 41.2609 49.5145 37.0785 49.5145 31.9507C49.5145 26.8237 45.4674 22.6406 40.393 22.4236C40.1618 22.4137 39.9785 22.2254 39.9785 21.994V15.7297C39.9785 15.4876 40.1781 15.2924 40.4203 15.2986C49.4163 15.5327 56.6373 22.8984 56.6373 31.9507C56.6373 36.0122 55.1836 39.7342 52.7684 42.6251L51.0001 43.22L50.2878 45.037Z" fill="#6582FD"/>
<path d="M48.3088 17.5216L44.7474 23.6909C43.4572 22.9441 41.9749 22.4911 40.3928 22.4231C40.1619 22.4136 39.9786 22.225 39.9786 21.9934V15.7294C39.9786 15.4874 40.1784 15.2919 40.4204 15.2988C43.2893 15.3736 45.9782 16.1738 48.3088 17.5216Z" fill="#02FFB2"/>
<path d="M56.6374 31.9506L53.0625 32.3256L49.5146 31.9506C49.5146 30.2134 49.0495 28.5839 48.2383 27.1818L54.4075 23.6195C55.826 26.0699 56.6374 28.9155 56.6374 31.9506Z" fill="#8298FD"/>
<path d="M56.6374 31.9506C56.6374 34.9849 55.826 37.8305 54.4075 40.2809L51.13 38.7639L48.2383 36.7195C49.0496 35.3174 49.5146 33.6879 49.5146 31.9506H56.6374Z" fill="#02FFB2"/>
<path d="M54.4075 40.2809C52.945 42.8087 50.8375 44.9171 48.3096 46.3795L46.2351 43.4697L44.7474 40.2101C46.1944 39.373 47.401 38.1672 48.2381 36.7194L54.4075 40.2809Z" fill="#FF5BA7"/>
<path d="M48.3096 46.3796C45.9781 47.7284 43.2901 48.5285 40.4204 48.6034C40.1784 48.6103 39.9785 48.4148 39.9785 48.1728V41.9079C39.9785 41.6763 40.162 41.4876 40.3928 41.4781C41.9749 41.4101 43.4571 40.9571 44.7474 40.2104L48.3096 46.3796Z" fill="#FF7EB7"/>
<path d="M36.5958 18.0461H32.6393C32.294 18.0461 32.0143 17.7663 32.0143 17.4211C32.0143 17.0758 32.294 16.7961 32.6393 16.7961H36.5958C36.941 16.7961 37.2208 17.0758 37.2208 17.4211C37.2208 17.7663 36.9409 18.0461 36.5958 18.0461Z" fill="white"/>
<path d="M36.5958 20.3239H35.1393C34.794 20.3239 34.5143 20.0441 34.5143 19.6989C34.5143 19.3536 34.794 19.0739 35.1393 19.0739H36.5958C36.941 19.0739 37.2208 19.3536 37.2208 19.6989C37.2208 20.0441 36.9409 20.3239 36.5958 20.3239Z" fill="white"/>
<path d="M25.9595 18.0542C25.6144 18.0542 25.3345 17.7745 25.3345 17.4292V17.4131C25.3345 17.0678 25.6144 16.7881 25.9595 16.7881C26.3046 16.7881 26.5845 17.0678 26.5845 17.4131V17.4292C26.5845 17.7743 26.3046 18.0542 25.9595 18.0542Z" fill="white"/>
<path d="M30.4026 18.0461H27.9461C27.601 18.0461 27.3211 17.7663 27.3211 17.4211C27.3211 17.0758 27.601 16.7961 27.9461 16.7961H30.4026C30.7478 16.7961 31.0276 17.0758 31.0276 17.4211C31.0276 17.7663 30.7478 18.0461 30.4026 18.0461Z" fill="white"/>
<path d="M32.9026 20.3239H29.5603C29.2151 20.3239 28.9353 20.0441 28.9353 19.6989C28.9353 19.3536 29.2151 19.0739 29.5603 19.0739H32.9026C33.2479 19.0739 33.5276 19.3536 33.5276 19.6989C33.5276 20.0441 33.2478 20.3239 32.9026 20.3239Z" fill="white"/>
<path d="M36.5958 44.8364H32.6393C32.294 44.8364 32.0143 44.5566 32.0143 44.2114C32.0143 43.8661 32.294 43.5864 32.6393 43.5864H36.5958C36.941 43.5864 37.2208 43.8661 37.2208 44.2114C37.2208 44.5566 36.9409 44.8364 36.5958 44.8364Z" fill="white"/>
<path d="M36.5958 47.1141H35.1393C34.794 47.1141 34.5143 46.8344 34.5143 46.4891C34.5143 46.1439 34.794 45.8641 35.1393 45.8641H36.5958C36.941 45.8641 37.2208 46.1439 37.2208 46.4891C37.2208 46.8344 36.9409 47.1141 36.5958 47.1141Z" fill="white"/>
<path d="M25.9595 44.8446C25.6144 44.8446 25.3345 44.5649 25.3345 44.2196V44.2034C25.3345 43.8581 25.6144 43.5784 25.9595 43.5784C26.3046 43.5784 26.5845 43.8581 26.5845 44.2034V44.2196C26.5845 44.5649 26.3046 44.8446 25.9595 44.8446Z" fill="white"/>
<path d="M30.4026 44.8364H27.9461C27.601 44.8364 27.3211 44.5566 27.3211 44.2114C27.3211 43.8661 27.601 43.5864 27.9461 43.5864H30.4026C30.7478 43.5864 31.0276 43.8661 31.0276 44.2114C31.0276 44.5566 30.7478 44.8364 30.4026 44.8364Z" fill="white"/>
<path d="M32.9026 47.1141H29.5603C29.2151 47.1141 28.9353 46.8344 28.9353 46.4891C28.9353 46.1439 29.2151 45.8641 29.5603 45.8641H32.9026C33.2479 45.8641 33.5276 46.1439 33.5276 46.4891C33.5276 46.8344 33.2478 47.1141 32.9026 47.1141Z" fill="white"/>
<path d="M21.8321 20.1465H9.71875C9.02838 20.1465 8.46875 19.5869 8.46875 18.8965V7.349C8.46875 6.65862 9.02838 6.099 9.71875 6.099H21.8321C22.5225 6.099 23.0821 6.65862 23.0821 7.349V18.8965C23.0821 19.5869 22.5225 20.1465 21.8321 20.1465Z" fill="#02FFB2"/>
<path d="M23.0821 9.814V7.349C23.0821 6.65862 22.5225 6.099 21.8321 6.099H9.71875C9.02838 6.099 8.46875 6.65862 8.46875 7.349V9.814H23.0821Z" fill="#DBFCED"/>
<path d="M13.7884 12.3933V15.8619C13.7884 16.1996 14.1519 16.4124 14.4464 16.2471L17.537 14.5128C17.8378 14.344 17.8378 13.911 17.537 13.7421L14.4464 12.0078C14.1519 11.8428 13.7884 12.0556 13.7884 12.3933Z" fill="white"/>
<path d="M21.8321 57.901H9.71875C9.02838 57.901 8.46875 57.3414 8.46875 56.651V45.1035C8.46875 44.4131 9.02838 43.8535 9.71875 43.8535H21.8321C22.5225 43.8535 23.0821 44.4131 23.0821 45.1035V56.651C23.0821 57.3414 22.5225 57.901 21.8321 57.901Z" fill="#B6C4FF"/>
<path d="M23.0821 47.5685V45.1035C23.0821 44.4131 22.5225 43.8535 21.8321 43.8535H9.71875C9.02838 43.8535 8.46875 44.4131 8.46875 45.1035V47.5685H23.0821Z" fill="#D1DDFF"/>
<path d="M13.7884 50.1478V53.6164C13.7884 53.9542 14.1519 54.1669 14.4464 54.0017L17.537 52.2673C17.8378 52.0985 17.8378 51.6655 17.537 51.4967L14.4464 49.7625C14.1519 49.5973 13.7884 49.8102 13.7884 50.1478Z" fill="white"/>
<path d="M52.3496 19.8812C50.3724 17.8551 47.9772 16.3727 45.355 15.5176V10.8825C45.355 9.15937 43.9531 7.7575 42.23 7.7575H26.5912C26.2461 7.7575 25.9662 8.03725 25.9662 8.3825C25.9662 8.72775 26.2461 9.0075 26.5912 9.0075H42.23C43.2639 9.0075 44.105 9.84862 44.105 10.8825V15.1625C42.9152 14.8721 41.6871 14.7064 40.4366 14.6739C40.1509 14.6671 39.8786 14.7726 39.673 14.9729C39.4671 15.1735 39.3536 15.4424 39.3536 15.7297V21.994C39.3536 22.5605 39.7984 23.0235 40.3664 23.0481C41.7155 23.1057 42.9819 23.459 44.105 24.0438V39.858C42.9817 40.4426 41.7152 40.7959 40.3661 40.8536C39.7984 40.8781 39.3536 41.3411 39.3536 41.9077V48.1729C39.3536 48.4602 39.467 48.729 39.673 48.9297C39.8719 49.1234 40.132 49.2291 40.4081 49.2291C40.4176 49.2291 40.427 49.229 40.4366 49.2287C41.688 49.1962 42.9149 49.0291 44.1051 48.7386V53.0204C44.1051 54.0542 43.264 54.8954 42.2301 54.8954H23.7071V45.1039C23.7071 44.07 22.866 43.2289 21.8321 43.2289H19.8951V20.7715H21.8321C22.866 20.7715 23.7071 19.9304 23.7071 18.8965V7.349C23.7071 6.31512 22.866 5.474 21.8321 5.474H9.71875C8.68488 5.474 7.84375 6.31512 7.84375 7.349V18.8965C7.84375 19.9304 8.68488 20.7715 9.71875 20.7715H15.1505V43.2285H9.71875C8.68488 43.2285 7.84375 44.0696 7.84375 45.1035V56.651C7.84375 57.6849 8.68488 58.526 9.71875 58.526H21.8321C22.866 58.526 23.7071 57.6849 23.7071 56.651V56.145H42.23C43.9531 56.145 45.355 54.7431 45.355 53.02V48.3828C47.2642 47.759 49.0589 46.801 50.6743 45.5269C50.9453 45.3131 50.9916 44.9201 50.7779 44.6491C50.564 44.3781 50.1711 44.3316 49.9001 44.5455C47.2199 46.6599 44.0092 47.8426 40.6037 47.9725V42.0929C45.9657 41.7685 50.1398 37.3486 50.1398 31.9507C50.1398 26.5525 45.966 22.1325 40.6037 21.8086V15.9299C49.2602 16.2587 56.0125 23.2581 56.0125 31.9507C56.0125 35.701 54.6899 39.3493 52.2882 42.2238C52.0669 42.4886 52.1023 42.8828 52.3671 43.1041C52.632 43.3255 53.0263 43.2901 53.2475 43.0252C55.8366 39.9264 57.2625 35.9934 57.2625 31.9507C57.2624 27.414 55.5176 23.1276 52.3496 19.8812ZM9.71875 19.5215C9.37413 19.5215 9.09375 19.2411 9.09375 18.8965V7.349C9.09375 7.00437 9.37413 6.724 9.71875 6.724H21.8321C22.1767 6.724 22.4571 7.00437 22.4571 7.349V18.8965C22.4571 19.2411 22.1767 19.5215 21.8321 19.5215H9.71875ZM16.4005 31.375V20.7715H18.6453V31.375H16.4005ZM18.6451 32.625V43.2285H16.4004V32.625H18.6451ZM22.4571 56.651C22.4571 56.9956 22.1767 57.276 21.8321 57.276H9.71875C9.37413 57.276 9.09375 56.9956 9.09375 56.651V45.1035C9.09375 44.7589 9.37413 44.4785 9.71875 44.4785H21.8321C22.1767 44.4785 22.4571 44.7589 22.4571 45.1035V56.651ZM45.355 24.8359C47.5085 26.4629 48.8896 29.0442 48.8896 31.9507C48.8896 34.8572 47.5085 37.4385 45.355 39.0655V24.8359Z" fill="#2626BC"/>
<path d="M13.0527 8.7576C12.7076 8.7576 12.4277 8.48185 12.4277 8.1366V8.1286C12.4277 7.78335 12.7076 7.5036 13.0527 7.5036C13.3979 7.5036 13.6777 7.78335 13.6777 8.1286C13.6777 8.47385 13.3979 8.7576 13.0527 8.7576Z" fill="#FF7EB7"/>
<path d="M11.0661 8.7576C10.721 8.7576 10.4411 8.48185 10.4411 8.1366V8.1286C10.4411 7.78335 10.721 7.5036 11.0661 7.5036C11.4112 7.5036 11.6911 7.78335 11.6911 8.1286C11.6911 8.47385 11.4112 8.7576 11.0661 8.7576Z" fill="#FF7EB7"/>
<path d="M13.0527 46.586C12.7076 46.586 12.4277 46.3103 12.4277 45.9651V45.957C12.4277 45.6117 12.7076 45.332 13.0527 45.332C13.3979 45.332 13.6777 45.6117 13.6777 45.957C13.6777 46.3022 13.3979 46.586 13.0527 46.586Z" fill="#FFA7CE"/>
<path d="M11.0661 46.586C10.721 46.586 10.4411 46.3103 10.4411 45.9651V45.957C10.4411 45.6117 10.721 45.332 11.0661 45.332C11.4112 45.332 11.6911 45.6117 11.6911 45.957C11.6911 46.3022 11.4112 46.586 11.0661 46.586Z" fill="#FFA7CE"/>
<path d="M56.5064 18.171C56.1611 18.171 55.8814 17.8913 55.8814 17.546C55.8814 17.167 55.5729 16.8585 55.1939 16.8585C54.8486 16.8585 54.5689 16.5788 54.5689 16.2335C54.5689 15.8883 54.8486 15.6085 55.1939 15.6085C55.5729 15.6085 55.8814 15.3 55.8814 14.921C55.8814 14.5758 56.1611 14.296 56.5064 14.296C56.8516 14.296 57.1314 14.5758 57.1314 14.921C57.1314 15.3 57.4399 15.6085 57.8189 15.6085C58.1641 15.6085 58.4439 15.8883 58.4439 16.2335C58.4439 16.5788 58.1641 16.8585 57.8189 16.8585C57.4399 16.8585 57.1314 17.167 57.1314 17.546C57.1314 17.8913 56.8515 18.171 56.5064 18.171Z" fill="#01EBA4"/>
<path d="M7.39513 40.2192C7.05 40.2192 6.77013 39.9395 6.77013 39.5942C6.77013 39.2152 6.46175 38.9067 6.08263 38.9067C5.7375 38.9067 5.45763 38.627 5.45763 38.2817C5.45763 37.9365 5.7375 37.6567 6.08263 37.6567C6.46175 37.6567 6.77013 37.3482 6.77013 36.9692C6.77013 36.624 7.05 36.3442 7.39513 36.3442C7.74025 36.3442 8.02013 36.624 8.02013 36.9692C8.02013 37.3482 8.3285 37.6567 8.70763 37.6567C9.05275 37.6567 9.33263 37.9365 9.33263 38.2817C9.33263 38.627 9.05275 38.9067 8.70763 38.9067C8.3285 38.9067 8.02013 39.2152 8.02013 39.5942C8.02013 39.9395 7.74025 40.2192 7.39513 40.2192Z" fill="#6582FD"/>
<path d="M10.5061 32.0042C10.3461 32.0042 10.1862 31.9432 10.0641 31.8211L8.75162 30.5086C8.5075 30.2646 8.5075 29.8689 8.75162 29.6249L10.0641 28.3124C10.3082 28.0682 10.7039 28.0682 10.948 28.3124L12.2605 29.6249C12.5046 29.8689 12.5046 30.2646 12.2605 30.5086L10.948 31.8211C10.826 31.9432 10.6661 32.0042 10.5061 32.0042ZM10.0775 30.0667L10.5061 30.4954L10.9347 30.0667L10.5061 29.6381L10.0775 30.0667Z" fill="#01EBA4"/>
<path d="M50.0365 55.582C49.8766 55.582 49.7165 55.521 49.5946 55.3989L48.2821 54.0864C48.038 53.8424 48.038 53.4466 48.2821 53.2026L49.5946 51.8901C49.8385 51.646 50.2345 51.646 50.4784 51.8901L51.7909 53.2026C52.035 53.4466 52.035 53.8424 51.7909 54.0864L50.4784 55.3989C50.3565 55.521 50.1964 55.582 50.0365 55.582ZM49.6079 53.6445L50.0365 54.0731L50.4651 53.6445L50.0365 53.2159L49.6079 53.6445Z" fill="#01EBA4"/>
<path d="M51.1253 13.6264C50.9654 13.6264 50.8053 13.5654 50.6834 13.4432L49.3709 12.1307C49.1268 11.8867 49.1268 11.491 49.3709 11.247L50.6834 9.9345C50.9273 9.69037 51.3232 9.69037 51.5671 9.9345L52.8796 11.247C53.1237 11.491 53.1237 11.8867 52.8796 12.1307L51.5671 13.4432C51.4452 13.5652 51.2851 13.6264 51.1253 13.6264ZM50.6966 11.6889L51.1253 12.1175L51.5539 11.6889L51.1253 11.2602L50.6966 11.6889Z" fill="#FF7EB7"/>
</g>
<defs>
<clipPath id="clip0_13713_13219">
<rect width="64" height="64" fill="white"/>
</clipPath>
</defs>
</svg>
