<svg width="64" height="64" viewBox="0 0 64 64" fill="none" xmlns="http://www.w3.org/2000/svg">
<path d="M10.2883 3.4966C0.719764 7.43422 -3.75286 22.2396 3.83014 30.5657C7.10439 34.1608 12.665 35.9298 14.2615 40.5232C16.2526 46.252 16.2699 57.7547 23.7486 60.2676C42.6423 66.6158 57.7573 62.2166 63.2051 41.2877C65.3649 32.9908 62.881 26.3201 58.6695 19.4972C49.5953 4.79584 26.8468 -3.31765 10.2883 3.4966Z" fill="#EEF1FF"/>
<path opacity="0.1" d="M43.015 22.1831H37.0385V19.4952C37.0385 19.26 36.848 19.0695 36.6142 19.0695H34.898C34.651 18.1917 34.3015 17.356 33.8639 16.5769L35.078 15.3627C35.2435 15.1971 35.2435 14.9279 35.078 14.761L31.2754 10.9596C31.1098 10.7927 30.8404 10.7927 30.6749 10.9596L29.4608 12.1737C28.6815 11.7362 27.8459 11.3866 26.9682 11.1396V9.42337C26.9682 9.18812 26.7777 8.99762 26.5424 8.99762H21.1655C20.9303 8.99762 20.7398 9.18812 20.7398 9.42337V11.1395C19.862 11.3865 19.0263 11.736 18.2472 12.1736L17.033 10.9595C16.8674 10.7926 16.5982 10.7926 16.4312 10.9595L12.6298 14.7609C12.4629 14.9277 12.4629 15.1971 12.6298 15.3626L13.8439 16.5767C13.4063 17.356 13.0568 18.1916 12.8098 19.0694H11.0938C10.8585 19.0694 10.668 19.2599 10.668 19.4951V24.872C10.668 25.1072 10.8585 25.2977 11.0938 25.2977H12.8099C13.0569 26.1755 13.4064 27.0112 13.844 27.7904L12.6299 29.0045C12.463 29.1701 12.463 29.4394 12.6299 29.605L16.4313 33.4077C16.5982 33.5732 16.8675 33.5732 17.0332 33.4077L18.2473 32.1936C19.0265 32.6311 19.8622 32.9807 20.7399 33.2277V34.9439C20.7399 35.1777 20.9304 35.3682 21.1657 35.3682H25.536L23.8534 51.7425V57.0664C23.8534 59.4957 25.8228 61.4651 28.2522 61.4651H43.015C45.4444 61.4651 47.4138 59.4957 47.4138 57.0664V26.5819C47.4138 24.1525 45.4444 22.1831 43.015 22.1831ZM19.0947 22.1836C19.0947 19.5544 21.2247 17.4244 23.8539 17.4244C26.4818 17.4244 28.6129 19.5541 28.6132 22.1831H28.252C25.8227 22.1831 23.8533 24.1525 23.8533 26.5819V26.9429C21.2243 26.9425 19.0947 24.8114 19.0947 22.1836Z" fill="#2626BB"/>
<path d="M36.6142 15.8195H34.898C34.651 14.9417 34.3015 14.106 33.8639 13.3269L35.078 12.1127C35.2437 11.9471 35.2437 11.6779 35.078 11.511L31.2754 7.70962C31.1098 7.54274 30.8404 7.54274 30.6749 7.70962L29.4608 8.92374C28.6815 8.48624 27.8459 8.13662 26.9682 7.88962V6.17337C26.9682 5.93812 26.7777 5.74762 26.5424 5.74762H21.1655C20.9303 5.74762 20.7398 5.93812 20.7398 6.17337V7.88949C19.862 8.13649 19.0263 8.48599 18.2472 8.92362L17.033 7.70949C16.8674 7.54262 16.598 7.54262 16.4312 7.70949L12.6298 11.5109C12.4629 11.6777 12.4629 11.9471 12.6298 12.1126L13.8439 13.3267C13.4063 14.106 13.0568 14.9416 12.8098 15.8194H11.0938C10.8585 15.8194 10.668 16.0099 10.668 16.2451V21.622C10.668 21.8572 10.8585 22.0477 11.0938 22.0477H12.8099C13.0569 22.9255 13.4064 23.7612 13.844 24.5404L12.6299 25.7545C12.463 25.9201 12.463 26.1894 12.6299 26.355L16.4313 30.1577C16.5982 30.3232 16.8675 30.3232 17.0332 30.1577L18.2473 28.9436C19.0265 29.3811 19.8622 29.7307 20.7399 29.9777V31.6939C20.7399 31.9277 20.9304 32.1182 21.1657 32.1182H26.5425C26.7778 32.1182 26.9683 31.9277 26.9683 31.6939V29.9777C27.846 29.7307 28.6818 29.3812 29.4609 28.9436L30.675 30.1577C30.8407 30.3232 31.11 30.3232 31.2755 30.1577L35.0782 26.355C35.2438 26.1894 35.2438 25.9201 35.0782 25.7545L33.864 24.5404C34.3017 23.7611 34.6512 22.9255 34.8982 22.0477H36.6143C36.8482 22.0477 37.0387 21.8572 37.0387 21.622V16.2451C37.0385 16.01 36.848 15.8195 36.6142 15.8195ZM23.8539 23.6929C21.2247 23.6929 19.0947 21.5616 19.0947 18.9336C19.0947 16.3044 21.2247 14.1744 23.8539 14.1744C26.4819 14.1744 28.6132 16.3044 28.6132 18.9336C28.6132 21.5616 26.4819 23.6929 23.8539 23.6929Z" fill="#FF7EB7"/>
<path d="M23.8539 10.1693C19.0132 10.1693 15.0895 14.0929 15.0895 18.9336C15.0895 23.7744 19.013 27.698 23.8539 27.698C28.6948 27.698 32.6183 23.7744 32.6183 18.9336C32.6183 14.0929 28.6947 10.1693 23.8539 10.1693ZM23.8539 23.6929C21.2247 23.6929 19.0947 21.5616 19.0947 18.9336C19.0947 16.3044 21.2247 14.1744 23.8539 14.1744C26.4819 14.1744 28.6132 16.3044 28.6132 18.9336C28.6132 21.5616 26.4819 23.6929 23.8539 23.6929Z" fill="#FFA7CE"/>
<path d="M23.8539 11.8959C19.9672 11.8959 16.8162 15.0469 16.8162 18.9336C16.8162 22.8204 19.9672 25.97 23.8539 25.97C27.7407 25.97 30.8903 22.8204 30.8903 18.9336C30.8904 15.0469 27.7407 11.8959 23.8539 11.8959ZM23.8539 23.6929C21.2247 23.6929 19.0947 21.5616 19.0947 18.9336C19.0947 16.3044 21.2247 14.1744 23.8539 14.1744C26.4819 14.1744 28.6132 16.3044 28.6132 18.9336C28.6132 21.5616 26.4819 23.6929 23.8539 23.6929Z" fill="#FFC3DE"/>
<path d="M24.93 8.44449H22.7773C22.6363 8.44449 22.522 8.33024 22.522 8.18924V7.55249C22.522 7.41149 22.6363 7.29724 22.7773 7.29724H24.93C25.071 7.29724 25.1853 7.41149 25.1853 7.55249V8.18924C25.1853 8.33024 25.071 8.44449 24.93 8.44449Z" fill="#FFA7CE"/>
<path d="M24.93 30.5694H22.7773C22.6363 30.5694 22.522 30.4551 22.522 30.3141V29.6774C22.522 29.5364 22.6363 29.4221 22.7773 29.4221H24.93C25.071 29.4221 25.1853 29.5364 25.1853 29.6774V30.3141C25.1853 30.4551 25.071 30.5694 24.93 30.5694Z" fill="#FFA7CE"/>
<path d="M17.1982 10.7555L15.6759 12.2777C15.5763 12.3773 15.4147 12.3773 15.315 12.2777L14.8648 11.8275C14.7652 11.7278 14.7652 11.5662 14.8648 11.4666L16.387 9.94435C16.4867 9.84472 16.6483 9.84472 16.7479 9.94435L17.1982 10.3946C17.2978 10.4942 17.2978 10.6558 17.1982 10.7555Z" fill="#FFA7CE"/>
<path d="M32.8427 26.4001L31.3204 27.9224C31.2208 28.022 31.0592 28.022 30.9595 27.9224L30.5093 27.4721C30.4097 27.3725 30.4097 27.2109 30.5093 27.1113L32.0315 25.589C32.1312 25.4894 32.2928 25.4894 32.3924 25.589L32.8427 26.0392C32.9424 26.1389 32.9424 26.3005 32.8427 26.4001Z" fill="#FFA7CE"/>
<path d="M13.3649 17.857V20.0097C13.3649 20.1507 13.2507 20.265 13.1097 20.265H12.4729C12.3319 20.265 12.2177 20.1507 12.2177 20.0097V17.857C12.2177 17.716 12.3319 17.6017 12.4729 17.6017H13.1097C13.2507 17.6017 13.3649 17.716 13.3649 17.857Z" fill="#FFA7CE"/>
<path d="M35.4897 17.857V20.0097C35.4897 20.1507 35.3754 20.265 35.2344 20.265H34.5977C34.4567 20.265 34.3424 20.1507 34.3424 20.0097V17.857C34.3424 17.716 34.4567 17.6017 34.5977 17.6017H35.2344C35.3754 17.6017 35.4897 17.716 35.4897 17.857Z" fill="#FFA7CE"/>
<path d="M15.6759 25.589L17.1982 27.1113C17.2978 27.2109 17.2978 27.3725 17.1982 27.4722L16.7479 27.9224C16.6483 28.022 16.4867 28.022 16.387 27.9224L14.8648 26.4002C14.7652 26.3005 14.7652 26.1389 14.8648 26.0393L15.315 25.589C15.4147 25.4893 15.5763 25.4893 15.6759 25.589Z" fill="#FFA7CE"/>
<path d="M31.3205 9.94438L32.8428 11.4666C32.9424 11.5663 32.9424 11.7279 32.8428 11.8275L32.3925 12.2778C32.2929 12.3774 32.1313 12.3774 32.0317 12.2778L30.5094 10.7555C30.4098 10.6559 30.4098 10.4943 30.5094 10.3946L30.9597 9.94438C31.0593 9.84463 31.2208 9.84463 31.3205 9.94438Z" fill="#FFA7CE"/>
<path d="M47.4138 23.3325V53.8162C47.4138 56.245 45.4438 58.215 43.015 58.215H28.2525C25.8225 58.215 23.8538 56.245 23.8538 53.8162V36.4812H25.0238V32.93H23.8538V23.3325C23.8538 20.9025 25.8225 18.9325 28.2525 18.9325H43.015C45.4438 18.9325 47.4138 20.9025 47.4138 23.3325Z" fill="#8298FD"/>
<path d="M30.4963 18.9331V18.9339C30.4963 22.6015 27.5218 25.576 23.8541 25.576C23.8538 25.576 23.8535 25.576 23.8533 25.576V37.3345H27.6061C27.9344 37.3345 28.2003 37.0686 28.2003 36.7421V34.3471C29.4253 34.0024 30.5915 33.5145 31.679 32.9039L33.3735 34.5984C33.6045 34.8294 33.9805 34.8294 34.2115 34.5984L39.5186 29.2912C39.7496 29.0602 39.7496 28.6842 39.5186 28.4532L37.8241 26.7587C38.4348 25.6712 38.9226 24.505 39.2674 23.28H41.6624C41.9888 23.28 42.2546 23.0141 42.2546 22.6859V18.9331H30.4963Z" fill="#FF7EB7"/>
<path d="M30.4963 18.9339C30.4963 22.6015 27.5218 25.576 23.8541 25.576C23.8539 25.576 23.8535 25.576 23.8533 25.576V31.2711H23.8539C30.6681 31.2711 36.1914 25.7479 36.1914 18.9336V18.9331H30.4963V18.9339Z" fill="#FFA7CE"/>
<path d="M33.054 18.9335C33.054 18.9334 33.054 18.9332 33.054 18.9331H30.4963V18.9339C30.4963 22.6015 27.5218 25.576 23.8541 25.576C23.8539 25.576 23.8535 25.576 23.8533 25.576V28.1339H23.8538C28.9353 28.1337 33.054 24.015 33.054 18.9335Z" fill="#FFC3DE"/>
<path d="M37.834 22.6341H33.433C32.917 22.6341 32.4987 22.2159 32.4987 21.6998C32.4987 21.1838 32.9169 20.7654 33.433 20.7654H37.834C38.35 20.7654 38.7684 21.1836 38.7684 21.6998C38.7683 22.2158 38.35 22.6341 37.834 22.6341Z" fill="#2D58DF"/>
<path d="M36.1993 29.2363L34.1565 31.279C33.9124 31.5231 33.5168 31.5231 33.2726 31.279L32.8959 30.9023C32.6518 30.6581 32.6518 30.2625 32.8959 30.0184L34.9386 27.9756C35.1828 27.7315 35.5784 27.7315 35.8225 27.9756L36.1993 28.3524C36.4434 28.5964 36.4434 28.9921 36.1993 29.2363Z" fill="#FFA7CE"/>
<path d="M38.3185 55.4493H32.9485C32.6033 55.4493 32.3235 55.1696 32.3235 54.8243C32.3235 54.4791 32.6033 54.1993 32.9485 54.1993H38.3185C38.6638 54.1993 38.9435 54.4791 38.9435 54.8243C38.9435 55.1696 38.6638 55.4493 38.3185 55.4493Z" fill="#6582FD"/>
<path d="M41.7244 49.2504C41.6492 49.2504 41.5728 49.2369 41.4986 49.208L35.7961 46.9964L30.0936 49.208C29.7721 49.3326 29.4097 49.1731 29.2848 48.8513C29.1601 48.5295 29.3197 48.1674 29.6416 48.0425L35.5701 45.7431C35.7153 45.6868 35.8767 45.6868 36.0219 45.7431L41.9504 48.0425C42.2723 48.1674 42.4321 48.5295 42.3072 48.8513C42.2112 49.0988 41.9749 49.2504 41.7244 49.2504Z" fill="#9EAFFD"/>
<path d="M42.3382 41.3454C42.3007 41.1334 42.1491 40.9555 41.9506 40.8755L36.0221 38.5762C35.8768 38.5198 35.7154 38.5198 35.5702 38.5762L29.6417 40.8755C29.4058 40.9684 29.2423 41.204 29.2427 41.4583V48.6252C29.2427 48.883 29.4012 49.1145 29.6417 49.2079L35.5702 51.5073C35.7162 51.5622 35.8761 51.5622 36.0221 51.5073L41.9506 49.2079C42.1912 49.1145 42.3496 48.883 42.3496 48.6252V41.4583C42.3496 41.4199 42.3449 41.3824 42.3382 41.3454ZM35.7961 39.8295L39.9962 41.4584L35.7961 43.0873L31.5959 41.4584L35.7961 39.8295ZM30.4926 42.3712L35.1711 44.1857V50.0118L30.4926 48.1973V42.3712ZM36.4211 50.0118V44.1857L41.0996 42.3712V48.1973L36.4211 50.0118Z" fill="#D1DDFF"/>
<path d="M29.8677 43.5736C31.4732 43.5736 32.7748 42.2721 32.7748 40.6665C32.7748 39.061 31.4732 37.7594 29.8677 37.7594C28.2621 37.7594 26.9605 39.061 26.9605 40.6665C26.9605 42.2721 28.2621 43.5736 29.8677 43.5736Z" fill="#01EBA4"/>
<path d="M30.0455 42.0842C29.8847 42.0842 29.7239 42.0224 29.6015 41.8992L28.816 41.1065C28.5747 40.8629 28.5747 40.4703 28.816 40.2267L29.6015 39.434C29.8444 39.1889 30.2403 39.1872 30.4854 39.43C30.7307 39.673 30.7324 40.0688 30.4894 40.3139L30.1399 40.6665L30.4894 41.0192C30.7323 41.2643 30.7307 41.66 30.4854 41.903C30.3637 42.0238 30.2047 42.0842 30.0455 42.0842Z" fill="#DBFCED"/>
<path d="M43.5048 37.5272H38.5375C38.1923 37.5272 37.9125 37.2475 37.9125 36.9022C37.9125 36.557 38.1923 36.2772 38.5375 36.2772H43.5048C43.85 36.2772 44.1298 36.557 44.1298 36.9022C44.1298 37.2475 43.85 37.5272 43.5048 37.5272Z" fill="#6582FD"/>
<path d="M43.5048 35.3261H38.5375C38.1923 35.3261 37.9125 35.0464 37.9125 34.7011C37.9125 34.3559 38.1923 34.0761 38.5375 34.0761H43.5048C43.85 34.0761 44.1298 34.3559 44.1298 34.7011C44.1298 35.0464 43.85 35.3261 43.5048 35.3261Z" fill="#6582FD"/>
<path d="M43.5048 32.625H41.3962C41.0509 32.625 40.7712 32.3453 40.7712 32C40.7712 31.6547 41.0509 31.375 41.3962 31.375H43.5048C43.8501 31.375 44.1298 31.6547 44.1298 32C44.1298 32.3453 43.8501 32.625 43.5048 32.625Z" fill="#01EBA4"/>
<path d="M43.5048 25.6443H41.3962C41.0509 25.6443 40.7712 25.3646 40.7712 25.0193C40.7712 24.6741 41.0509 24.3943 41.3962 24.3943H43.5048C43.8501 24.3943 44.1298 24.6741 44.1298 25.0193C44.1298 25.3646 43.8501 25.6443 43.5048 25.6443Z" fill="#6582FD"/>
<path d="M43.5048 27.8229H41.3962C41.0509 27.8229 40.7712 27.5431 40.7712 27.1979C40.7712 26.8526 41.0509 26.5729 41.3962 26.5729H43.5048C43.8501 26.5729 44.1298 26.8526 44.1298 27.1979C44.1298 27.5431 43.8501 27.8229 43.5048 27.8229Z" fill="#6582FD"/>
<path d="M11.9625 34.056C11.6173 34.056 11.3375 33.7762 11.3375 33.431C11.3375 33.052 11.029 32.7435 10.65 32.7435C10.3048 32.7435 10.025 32.4637 10.025 32.1185C10.025 31.7732 10.3048 31.4935 10.65 31.4935C11.029 31.4935 11.3375 31.185 11.3375 30.806C11.3375 30.4607 11.6173 30.181 11.9625 30.181C12.3078 30.181 12.5875 30.4607 12.5875 30.806C12.5875 31.185 12.896 31.4935 13.275 31.4935C13.6203 31.4935 13.9 31.7732 13.9 32.1185C13.9 32.4637 13.6203 32.7435 13.275 32.7435C12.896 32.7435 12.5875 33.052 12.5875 33.431C12.5875 33.7762 12.3078 34.056 11.9625 34.056Z" fill="#01EBA4"/>
<path d="M53.5285 28.443C53.1833 28.443 52.9035 28.1632 52.9035 27.818C52.9035 27.439 52.595 27.1305 52.2159 27.1305C51.8706 27.1305 51.5909 26.8507 51.5909 26.5055C51.5909 26.1602 51.8706 25.8805 52.2159 25.8805C52.595 25.8805 52.9035 25.572 52.9035 25.193C52.9035 24.8477 53.1833 24.568 53.5285 24.568C53.8738 24.568 54.1535 24.8477 54.1535 25.193C54.1535 25.572 54.4619 25.8805 54.8409 25.8805C55.1861 25.8805 55.4659 26.1602 55.4659 26.5055C55.4659 26.8507 55.1861 27.1305 54.8409 27.1305C54.4619 27.1305 54.1535 27.439 54.1535 27.818C54.1535 28.1632 53.8736 28.443 53.5285 28.443Z" fill="#01EBA4"/>
<path d="M41.0211 14.3611C40.8613 14.3611 40.7011 14.3001 40.5793 14.178L39.2668 12.8655C39.0226 12.6215 39.0226 12.2257 39.2668 11.9817L40.5793 10.6692C40.8231 10.4251 41.2191 10.4251 41.463 10.6692L42.7755 11.9817C43.0196 12.2257 43.0196 12.6215 42.7755 12.8655L41.463 14.178C41.3411 14.3 41.181 14.3611 41.0211 14.3611ZM40.5925 12.4236L41.0211 12.8522L41.4498 12.4236L41.0211 11.995L40.5925 12.4236Z" fill="#FF7EB7"/>
<path d="M19.5319 54.3307C19.372 54.3307 19.2119 54.2697 19.09 54.1476L17.7775 52.8351C17.5334 52.5911 17.5334 52.1953 17.7775 51.9513L19.09 50.6388C19.3339 50.3947 19.7299 50.3947 19.9738 50.6388L21.2863 51.9513C21.5304 52.1953 21.5304 52.5911 21.2863 52.8351L19.9738 54.1476C19.8518 54.2696 19.6918 54.3307 19.5319 54.3307ZM19.1033 52.3932L19.5319 52.8218L19.9605 52.3932L19.5319 51.9646L19.1033 52.3932Z" fill="#FF7EB7"/>
<path d="M52.1214 34.6865C51.9615 34.6865 51.8014 34.6255 51.6795 34.5034L50.367 33.1909C50.1229 32.9469 50.1229 32.5511 50.367 32.3071L51.6795 30.9946C51.9234 30.7505 52.3194 30.7505 52.5633 30.9946L53.8758 32.3071C54.1199 32.5511 54.1199 32.9469 53.8758 33.1909L52.5633 34.5034C52.4413 34.6255 52.2813 34.6865 52.1214 34.6865ZM51.6928 32.749L52.1214 33.1776L52.55 32.749L52.1214 32.3204L51.6928 32.749Z" fill="#8298FD"/>
<path d="M43.0149 18.3081H37.6638V16.2449C37.6638 15.6656 37.1925 15.1945 36.6134 15.1945H35.3613C35.1659 14.593 34.9223 14.0061 34.6338 13.4409L35.5199 12.5546C35.9294 12.1451 35.9294 11.4789 35.5199 11.0692L31.718 7.26723C31.5196 7.06873 31.2559 6.95935 30.9751 6.95935C30.6946 6.95935 30.4309 7.06861 30.2325 7.26711L29.3463 8.15323C28.7811 7.86473 28.1943 7.62123 27.5926 7.42573V6.1736C27.5926 5.59435 27.1214 5.12323 26.5423 5.12323H21.1653C20.5861 5.12323 20.115 5.59448 20.115 6.1736V7.42573C19.5134 7.62123 18.9264 7.86485 18.3613 8.15323L17.475 7.26711C17.0656 6.85748 16.3991 6.85748 15.9896 7.26711L12.1874 11.0692C11.7779 11.4787 11.7779 12.145 12.1874 12.5547L13.0736 13.4409C12.785 14.006 12.5415 14.593 12.3461 15.1945H11.0939C10.5148 15.1945 10.0436 15.6657 10.0436 16.2449V21.6219C10.0436 22.2011 10.5149 22.6722 11.0939 22.6722H12.3461C12.5415 23.2737 12.7851 23.8606 13.0736 24.4259L12.1874 25.3121C11.7779 25.7216 11.7779 26.3879 12.1874 26.7975L15.9895 30.5996C16.3989 31.0092 17.0654 31.0092 17.4749 30.5996L18.3611 29.7135C18.9263 30.002 19.5133 30.2455 20.1149 30.441V31.6931C20.1149 32.2724 20.5861 32.7435 21.1651 32.7435H23.2283V33.4034C23.2283 33.7486 23.508 34.0284 23.8533 34.0284C24.1985 34.0284 24.4783 33.7486 24.4783 33.4034V23.3319C24.4783 21.251 26.1711 19.5581 28.2519 19.5581H43.0149C45.0958 19.5581 46.7886 21.251 46.7886 23.3319V53.8161C46.7886 55.897 45.0958 57.5899 43.0149 57.5899H41.1658C40.8205 57.5899 40.5408 57.8696 40.5408 58.2149C40.5408 58.5601 40.8205 58.8399 41.1658 58.8399H43.0149C45.785 58.8399 48.0386 56.5862 48.0386 53.8161V23.3319C48.0388 20.5617 45.785 18.3081 43.0149 18.3081ZM21.3649 31.4935V29.9775C21.3649 29.6975 21.1788 29.4517 20.9091 29.3759C20.0908 29.1456 19.298 28.8167 18.5529 28.3986C18.3085 28.2612 18.003 28.3036 17.8051 28.5017L16.7321 29.5746L13.2124 26.0549L14.2854 24.982C14.4835 24.7839 14.5256 24.4784 14.3885 24.2341C13.97 23.4886 13.6413 22.696 13.4113 21.878C13.3354 21.6085 13.0896 21.4222 12.8096 21.4222H11.2936V16.4445H12.8096C13.0896 16.4445 13.3354 16.2584 13.4113 15.9887C13.6415 15.1704 13.9703 14.3777 14.3885 13.6326C14.5256 13.3885 14.4835 13.0829 14.2854 12.8847L13.2124 11.8119L16.7321 8.2921L17.8051 9.36498C18.003 9.5631 18.3086 9.60548 18.5529 9.46811C19.298 9.04986 20.0908 8.72098 20.9091 8.49086C21.1786 8.41498 21.3649 8.16923 21.3649 7.88923V6.37311H26.3425V7.8891C26.3425 8.16898 26.5286 8.41486 26.7983 8.49061C27.6166 8.72111 28.4094 9.04986 29.1544 9.46798C29.3986 9.60523 29.7043 9.56285 29.9021 9.36485L30.9751 8.29198L34.4949 11.8117L33.422 12.8847C33.2239 13.0827 33.1818 13.3882 33.3189 13.6325C33.7374 14.378 34.0661 15.1706 34.2961 15.9886C34.372 16.2581 34.6178 16.4444 34.8978 16.4444H36.4138V18.308H29.2004C28.8894 15.6327 26.6109 13.549 23.8536 13.549C20.8848 13.549 18.4694 15.9644 18.4694 18.9332C18.4694 21.6905 20.5531 23.9689 23.2283 24.2797V31.4934H21.3649V31.4935ZM23.239 23.0197C21.2501 22.7219 19.7194 21.004 19.7194 18.9334C19.7194 16.6537 21.574 14.7991 23.8536 14.7991C25.9244 14.7991 27.6441 16.3295 27.942 18.3186C25.4193 18.4731 23.3945 20.4971 23.239 23.0197Z" fill="#2626BC"/>
<path d="M38.3206 57.59H28.2519C26.1711 57.59 24.4783 55.8971 24.4783 53.8162V36.2485C24.4783 35.9032 24.1985 35.6235 23.8533 35.6235C23.508 35.6235 23.2283 35.9032 23.2283 36.2485V53.8161C23.2283 56.5862 25.4819 58.8398 28.2519 58.8398H38.3206C38.6659 58.8398 38.9456 58.5601 38.9456 58.2148C38.9456 57.8696 38.6659 57.59 38.3206 57.59Z" fill="#2626BC"/>
</svg>
