<svg width="40" height="40" viewBox="0 0 40 40" fill="none" xmlns="http://www.w3.org/2000/svg">
<g clip-path="url(#clip0_13729_12428)">
<g clip-path="url(#clip1_13729_12428)">
<g filter="url(#filter0_d_13729_12428)">
<path d="M14.4375 4.89838C15.6683 4.22838 17.6625 4.22755 18.8958 4.89838L29.4375 10.6317C30.6683 11.3017 31.6667 12.9792 31.6667 14.3767V25.6317C31.6667 27.03 30.6708 28.705 29.4375 29.3759L18.8958 35.1092C17.665 35.7792 15.6708 35.7809 14.4375 35.1092L3.89582 29.3759C2.66499 28.7059 1.66666 27.0284 1.66666 25.6317V14.3767C1.66666 12.9784 2.66249 11.3034 3.89582 10.6317L14.4375 4.89838Z" fill="white"/>
</g>
<path d="M31.2483 18.5084C35.1594 18.5084 38.33 15.2979 38.33 11.3375C38.33 7.37718 35.1594 4.16669 31.2483 4.16669C27.3372 4.16669 24.1667 7.37718 24.1667 11.3375C24.1667 15.2979 27.3372 18.5084 31.2483 18.5084Z" fill="#2F8BE6"/>
<path fill-rule="evenodd" clip-rule="evenodd" d="M14.5692 25C17.4033 25 19.1983 23.3592 19.1983 20.0133V16.215C19.1983 15.5367 18.685 15 18.0367 15C17.3883 15 16.8758 15.5367 16.8758 16.2158V20.1075C16.8758 21.8592 16.0158 22.7592 14.5992 22.7592C13.1808 22.7592 12.3225 21.8283 12.3225 20.0292V16.215C12.3225 15.5367 11.8092 15 11.1608 15C10.5125 15 10 15.5367 10 16.215V20.0917C10 23.3433 11.7333 25 14.5692 25ZM21.0108 16.215V23.7058C21.0108 24.3842 21.5242 24.9208 22.1725 24.9208C22.8208 24.9208 23.3333 24.3842 23.3333 23.7067V16.215C23.3333 15.5367 22.8208 15 22.1725 15C21.5242 15 21.0108 15.5367 21.0108 16.215Z" fill="#353535"/>
<path fill-rule="evenodd" clip-rule="evenodd" d="M31.25 14.1666C30.0542 14.1666 29.1667 13.5183 29.1667 12.53V12.5133C29.1667 11.825 29.4675 11.42 30.0384 11.145C29.6217 10.8775 29.3517 10.5125 29.3517 9.90498V9.88831C29.3517 9.02248 30.1084 8.33331 31.25 8.33331C32.3917 8.33331 33.1484 9.01415 33.1484 9.88915V9.90581C33.1484 10.5125 32.8784 10.8775 32.4617 11.145C33.0092 11.445 33.3334 11.8091 33.3334 12.4816V12.4983C33.3334 13.55 32.4459 14.1666 31.25 14.1666ZM31.25 10.7316C31.7209 10.7316 32.0217 10.44 32.0217 10.0425V10.0258C32.0217 9.67831 31.7359 9.36248 31.25 9.36248C30.7642 9.36248 30.4784 9.67081 30.4784 10.0183V10.035C30.4784 10.4316 30.7792 10.7316 31.25 10.7316ZM32.1834 12.4325C32.1834 12.8291 31.8367 13.1375 31.25 13.1375C30.6634 13.1375 30.3167 12.8216 30.3167 12.4333V12.4166C30.3167 11.9791 30.71 11.72 31.25 11.72C31.79 11.72 32.1834 11.9791 32.1834 12.4166V12.4325Z" fill="white"/>
</g>
</g>
<defs>
<filter id="filter0_d_13729_12428" x="-0.333344" y="3.39557" width="34" height="35.2167" filterUnits="userSpaceOnUse" color-interpolation-filters="sRGB">
<feFlood flood-opacity="0" result="BackgroundImageFix"/>
<feColorMatrix in="SourceAlpha" type="matrix" values="0 0 0 0 0 0 0 0 0 0 0 0 0 0 0 0 0 0 127 0" result="hardAlpha"/>
<feOffset dy="1"/>
<feGaussianBlur stdDeviation="1"/>
<feComposite in2="hardAlpha" operator="out"/>
<feColorMatrix type="matrix" values="0 0 0 0 0 0 0 0 0 0 0 0 0 0 0 0 0 0 0.05 0"/>
<feBlend mode="normal" in2="BackgroundImageFix" result="effect1_dropShadow_13729_12428"/>
<feBlend mode="normal" in="SourceGraphic" in2="effect1_dropShadow_13729_12428" result="shape"/>
</filter>
<clipPath id="clip0_13729_12428">
<rect width="40" height="40" fill="white"/>
</clipPath>
<clipPath id="clip1_13729_12428">
<rect width="40" height="40" fill="white"/>
</clipPath>
</defs>
</svg>
