<svg width="64" height="64" viewBox="0 0 64 64" fill="none" xmlns="http://www.w3.org/2000/svg">
<g clip-path="url(#clip0_13713_12665)">
<path d="M2.00926 36.9928C4.35013 44.9932 11.0976 61.3133 22.4995 59.8485C33.9353 58.3791 29.4694 43.6328 39.938 41.6117C44.5464 40.722 47.6701 48.6978 52.2888 48.4497C58.2373 48.1301 61.265 42.2418 62.9273 37.2917C66.4519 26.7957 61.1736 8.99772 48.8199 5.91522C38.0394 3.22534 36.7784 16.3971 27.4046 12.5712C22.136 10.4208 22.6624 3.99922 16.2456 2.70347C-3.16662 -1.2164 -1.10562 26.3472 2.00926 36.9928Z" fill="#EEF1FF"/>
<path opacity="0.1" d="M43.779 61.6752H20.221C18.1499 61.6752 16.471 59.9963 16.471 57.9252V10.3403C16.471 8.26921 18.1499 6.59033 20.221 6.59033H43.779C45.8501 6.59033 47.529 8.26921 47.529 10.3403V57.9251C47.529 59.9962 45.8501 61.6752 43.779 61.6752Z" fill="#2626BC"/>
<path d="M43.779 58.6752H20.221C18.1499 58.6752 16.471 56.9963 16.471 54.9252V7.34033C16.471 5.26921 18.1499 3.59033 20.221 3.59033H43.779C45.8501 3.59033 47.529 5.26921 47.529 7.34033V54.9251C47.529 56.9962 45.8501 58.6752 43.779 58.6752Z" fill="#6583FE"/>
<path d="M16.4713 8.95398H47.5288V53.3115H16.4713V8.95398Z" fill="#2D58E0"/>
<path d="M29.9031 25.2393H23.5352C22.8449 25.2393 22.2852 24.6797 22.2852 23.9893V18.113C22.2852 17.4226 22.8449 16.863 23.5352 16.863H29.9031C30.5935 16.863 31.1531 17.4226 31.1531 18.113V23.9893C31.1531 24.6797 30.5935 25.2393 29.9031 25.2393Z" fill="#1F50C9"/>
<path d="M40.518 25.2041H34.1501C33.4598 25.2041 32.9001 24.6444 32.9001 23.9541V18.0777C32.9001 17.3873 33.4598 16.8277 34.1501 16.8277H40.518C41.2084 16.8277 41.768 17.3873 41.768 18.0777V23.9541C41.768 24.6444 41.2084 25.2041 40.518 25.2041Z" fill="#1F50C9"/>
<path d="M47.4935 16.8277V25.2039H44.7997C44.1097 25.2039 43.5497 24.6439 43.5497 23.9539V18.0777C43.5497 17.3877 44.1097 16.8277 44.7997 16.8277H47.4935Z" fill="#1F50C9"/>
<path d="M38.73 11.6326H25.27C24.9249 11.6326 24.645 11.9124 24.645 12.2576C24.645 12.6027 24.9249 12.8826 25.27 12.8826H38.73C39.0751 12.8826 39.355 12.6027 39.355 12.2576C39.355 11.9124 39.0753 11.6326 38.73 11.6326Z" fill="white"/>
<path d="M29.9031 23.9254H23.5352C22.8449 23.9254 22.2852 23.3658 22.2852 22.6754V16.799C22.2852 16.1086 22.8449 15.549 23.5352 15.549H29.9031C30.5935 15.549 31.1531 16.1086 31.1531 16.799V22.6754C31.1531 23.3658 30.5935 23.9254 29.9031 23.9254Z" fill="#FF7EB8"/>
<path d="M28.5743 21.3134H25.9891C25.644 21.3134 25.3641 21.5933 25.3641 21.9384C25.3641 22.2835 25.644 22.5634 25.9891 22.5634H28.5743C28.9194 22.5634 29.1993 22.2835 29.1993 21.9384C29.1993 21.5933 28.9194 21.3134 28.5743 21.3134Z" fill="white"/>
<path d="M28.5743 19.2722H27.8641C27.519 19.2722 27.2391 19.552 27.2391 19.8972C27.2391 20.2423 27.519 20.5222 27.8641 20.5222H28.5743C28.9194 20.5222 29.1993 20.2423 29.1993 19.8972C29.1993 19.552 28.9194 19.2722 28.5743 19.2722Z" fill="white"/>
<path d="M40.518 23.8902H34.1501C33.4597 23.8902 32.9001 23.3306 32.9001 22.6402V16.7637C32.9001 16.0734 33.4597 15.5137 34.1501 15.5137H40.518C41.2084 15.5137 41.768 16.0734 41.768 16.7637V22.6401C41.768 23.3305 41.2084 23.8902 40.518 23.8902Z" fill="#02FFB3"/>
<path d="M39.1891 21.2783H36.604C36.2589 21.2783 35.979 21.5581 35.979 21.9033C35.979 22.2484 36.2589 22.5283 36.604 22.5283H39.1891C39.5343 22.5283 39.8141 22.2484 39.8141 21.9033C39.8141 21.5581 39.5343 21.2783 39.1891 21.2783Z" fill="white"/>
<path d="M39.1891 19.2369H38.479C38.1339 19.2369 37.854 19.5168 37.854 19.8619C37.854 20.207 38.1339 20.4869 38.479 20.4869H39.1891C39.5343 20.4869 39.8141 20.207 39.8141 19.8619C39.8141 19.5168 39.5343 19.2369 39.1891 19.2369Z" fill="white"/>
<path d="M47.4935 15.5139V23.8901H44.7997C44.1097 23.8901 43.5497 23.3301 43.5497 22.6401V16.7639C43.5497 16.0739 44.1097 15.5139 44.7997 15.5139H47.4935Z" fill="#FFAA66"/>
<path d="M16.4713 53.3114V30.2189C16.4713 28.4939 17.87 27.0939 19.5963 27.0939H44.4038C46.13 27.0939 47.5288 28.4939 47.5288 30.2189V53.3114H16.4713Z" fill="white"/>
<path d="M43.779 59.3001H20.221C17.8086 59.3001 15.846 57.3375 15.846 54.9251V7.34045C15.846 4.92808 17.8086 2.96545 20.221 2.96545H43.779C46.1914 2.96545 48.154 4.92808 48.154 7.34045V54.9252C48.154 57.3375 46.1914 59.3001 43.779 59.3001ZM20.221 4.21545C18.4979 4.21545 17.096 5.61733 17.096 7.34045V54.9252C17.096 56.6483 18.4979 58.0502 20.221 58.0502H43.779C45.5021 58.0502 46.904 56.6483 46.904 54.9252V7.34045C46.904 5.61733 45.5021 4.21545 43.779 4.21545H20.221Z" fill="#2626BC"/>
<path d="M34.1854 7.01172H29.8146C29.4695 7.01172 29.1896 6.73184 29.1896 6.38672C29.1896 6.04159 29.4695 5.76172 29.8146 5.76172H34.1854C34.5305 5.76172 34.8104 6.04159 34.8104 6.38672C34.8104 6.73184 34.5305 7.01172 34.1854 7.01172Z" fill="#B7C5FF"/>
<path d="M37.1016 7.01173C37.4469 7.01173 37.7269 6.7318 37.7269 6.38648C37.7269 6.04116 37.4469 5.76123 37.1016 5.76123C36.7563 5.76123 36.4764 6.04116 36.4764 6.38648C36.4764 6.7318 36.7563 7.01173 37.1016 7.01173Z" fill="#B7C5FF"/>
<path d="M29.3243 31.1327H26.7391C26.394 31.1327 26.1141 31.4126 26.1141 31.7577C26.1141 32.1028 26.394 32.3827 26.7391 32.3827H29.3243C29.6694 32.3827 29.9493 32.1028 29.9493 31.7577C29.9493 31.4126 29.6694 31.1327 29.3243 31.1327Z" fill="#00D890"/>
<path d="M42.0743 33.6668H26.7391C26.394 33.6668 26.1141 33.9467 26.1141 34.2918C26.1141 34.6369 26.394 34.9168 26.7391 34.9168H42.0743C42.4194 34.9168 42.6993 34.6369 42.6993 34.2918C42.6993 33.9467 42.4194 33.6668 42.0743 33.6668Z" fill="#9FB0FE"/>
<path d="M23.1158 34.9167H20.5818C20.2366 34.9167 19.9568 34.6369 19.9568 34.2917V31.7578C19.9568 31.4126 20.2366 31.1328 20.5818 31.1328H23.1158C23.4609 31.1328 23.7408 31.4126 23.7408 31.7578V34.2917C23.7408 34.6369 23.4609 34.9167 23.1158 34.9167Z" fill="#02FFB3"/>
<path d="M29.3243 38.8757H26.7391C26.394 38.8757 26.1141 39.1556 26.1141 39.5007C26.1141 39.8459 26.394 40.1257 26.7391 40.1257H29.3243C29.6694 40.1257 29.9493 39.8459 29.9493 39.5007C29.9493 39.1556 29.6694 38.8757 29.3243 38.8757Z" fill="#FF5BA8"/>
<path d="M42.0743 41.4097H26.7391C26.394 41.4097 26.1141 41.6896 26.1141 42.0347C26.1141 42.3799 26.394 42.6597 26.7391 42.6597H42.0743C42.4194 42.6597 42.6993 42.3799 42.6993 42.0347C42.6993 41.6896 42.4194 41.4097 42.0743 41.4097Z" fill="#9FB0FE"/>
<path d="M23.1158 42.6597H20.5818C20.2366 42.6597 19.9568 42.3799 19.9568 42.0347V39.5007C19.9568 39.1556 20.2366 38.8757 20.5818 38.8757H23.1158C23.4609 38.8757 23.7408 39.1556 23.7408 39.5007V42.0347C23.7408 42.3799 23.4609 42.6597 23.1158 42.6597Z" fill="#FF7EB8"/>
<path d="M29.3243 46.6186H26.7391C26.394 46.6186 26.1141 46.8985 26.1141 47.2436C26.1141 47.5887 26.394 47.8686 26.7391 47.8686H29.3243C29.6694 47.8686 29.9493 47.5887 29.9493 47.2436C29.9493 46.8985 29.6694 46.6186 29.3243 46.6186Z" fill="#6583FE"/>
<path d="M42.0743 49.1526H26.7391C26.394 49.1526 26.1141 49.4325 26.1141 49.7776C26.1141 50.1227 26.394 50.4026 26.7391 50.4026H42.0743C42.4194 50.4026 42.6993 50.1227 42.6993 49.7776C42.6993 49.4325 42.4194 49.1526 42.0743 49.1526Z" fill="#9FB0FE"/>
<path d="M23.1158 50.4026H20.5818C20.2366 50.4026 19.9568 50.1227 19.9568 49.7776V47.2436C19.9568 46.8985 20.2366 46.6186 20.5818 46.6186H23.1158C23.4609 46.6186 23.7408 46.8985 23.7408 47.2436V49.7776C23.7408 50.1227 23.4609 50.4026 23.1158 50.4026Z" fill="#9FB0FE"/>
<path d="M52.292 49.655C51.307 49.655 50.5056 48.8536 50.5056 47.8685C50.5056 46.8833 51.307 46.082 52.292 46.082C53.277 46.082 54.0784 46.8833 54.0784 47.8685C54.0784 48.8536 53.277 49.655 52.292 49.655ZM52.292 47.3321C51.9962 47.3321 51.7556 47.5727 51.7556 47.8686C51.7556 48.1645 51.9962 48.4051 52.292 48.4051C52.5877 48.4051 52.8284 48.1645 52.8284 47.8686C52.8284 47.5727 52.5877 47.3321 52.292 47.3321Z" fill="#6583FE"/>
<path d="M10.3649 23.0511C10.0197 23.0511 9.73987 22.7712 9.73987 22.4261C9.73987 22.0125 9.40349 21.6761 8.98987 21.6761C8.64474 21.6761 8.36487 21.3962 8.36487 21.0511C8.36487 20.706 8.64474 20.4261 8.98987 20.4261C9.40349 20.4261 9.73987 20.0897 9.73987 19.6761C9.73987 19.331 10.0197 19.0511 10.3649 19.0511C10.71 19.0511 10.9899 19.331 10.9899 19.6761C10.9899 20.0897 11.3262 20.4261 11.7399 20.4261C12.085 20.4261 12.3649 20.706 12.3649 21.0511C12.3649 21.3962 12.085 21.6761 11.7399 21.6761C11.3262 21.6761 10.9899 22.0125 10.9899 22.4261C10.9899 22.7712 10.71 23.0511 10.3649 23.0511Z" fill="#01ECA5"/>
<path d="M54.0815 55.3116C53.7362 55.3116 53.4565 55.0317 53.4565 54.6866C53.4565 54.273 53.1201 53.9366 52.7065 53.9366C52.3612 53.9366 52.0815 53.6567 52.0815 53.3116C52.0815 52.9665 52.3612 52.6866 52.7065 52.6866C53.1201 52.6866 53.4565 52.3502 53.4565 51.9366C53.4565 51.5915 53.7362 51.3116 54.0815 51.3116C54.4267 51.3116 54.7065 51.5915 54.7065 51.9366C54.7065 52.3502 55.0429 52.6866 55.4565 52.6866C55.8017 52.6866 56.0815 52.9665 56.0815 53.3116C56.0815 53.6567 55.8017 53.9366 55.4565 53.9366C55.0429 53.9366 54.7065 54.273 54.7065 54.6866C54.7065 55.0317 54.4267 55.3116 54.0815 55.3116Z" fill="#01ECA5"/>
<path d="M55.4565 18.8277C55.1112 18.8277 54.8315 18.5478 54.8315 18.2027C54.8315 17.7891 54.4951 17.4527 54.0815 17.4527C53.7362 17.4527 53.4565 17.1728 53.4565 16.8277C53.4565 16.4826 53.7362 16.2027 54.0815 16.2027C54.4951 16.2027 54.8315 15.8663 54.8315 15.4527C54.8315 15.1076 55.1112 14.8277 55.4565 14.8277C55.8017 14.8277 56.0815 15.1076 56.0815 15.4527C56.0815 15.8663 56.4179 16.2027 56.8315 16.2027C57.1767 16.2027 57.4565 16.4826 57.4565 16.8277C57.4565 17.1728 57.1767 17.4527 56.8315 17.4527C56.4179 17.4527 56.0815 17.7891 56.0815 18.2027C56.0815 18.5478 55.8017 18.8277 55.4565 18.8277Z" fill="#FF5BA8"/>
<path d="M9.07837 29.2132C8.73324 29.2132 8.45337 28.9333 8.45337 28.5882C8.45337 28.1746 8.11699 27.8382 7.70337 27.8382C7.35824 27.8382 7.07837 27.5583 7.07837 27.2132C7.07837 26.8681 7.35824 26.5882 7.70337 26.5882C8.11699 26.5882 8.45337 26.2518 8.45337 25.8382C8.45337 25.4931 8.73324 25.2132 9.07837 25.2132C9.42349 25.2132 9.70337 25.4931 9.70337 25.8382C9.70337 26.2518 10.0397 26.5882 10.4534 26.5882C10.7985 26.5882 11.0784 26.8681 11.0784 27.2132C11.0784 27.5583 10.7985 27.8382 10.4534 27.8382C10.0397 27.8382 9.70337 28.1746 9.70337 28.5882C9.70337 28.9333 9.42362 29.2132 9.07837 29.2132Z" fill="#FF5BA8"/>
</g>
<defs>
<clipPath id="clip0_13713_12665">
<rect width="64" height="64" fill="white"/>
</clipPath>
</defs>
</svg>
