<svg width="64" height="64" viewBox="0 0 64 64" fill="none" xmlns="http://www.w3.org/2000/svg">
<path d="M17.0046 37.3059C18.1751 45.915 21.5488 63.4769 27.2498 61.9006C32.9676 60.3194 30.7347 44.4511 35.969 42.2762C38.2732 41.3187 39.8351 49.9015 42.1444 49.6345C45.1186 49.2905 46.6325 42.9543 47.4636 37.6275C49.226 26.3329 46.5868 7.18063 40.4099 3.86358C35.0197 0.969035 34.3892 15.143 29.7023 11.026C27.068 8.71203 27.3312 1.80179 24.1228 0.407451C14.4167 -3.81068 15.4472 25.8502 17.0046 37.3059Z" fill="#EEF1FF"/>
<path d="M35.3287 47.4788H21.8287V53.25H35.3287V47.4788Z" fill="#6583FE"/>
<path d="M24.309 47.4788H21.8287V53.25H24.309V47.4788Z" fill="#2626BC"/>
<path d="M41.6418 56.25C41.6418 56.5938 41.3605 56.875 41.0168 56.875H16.1414C15.7976 56.875 15.5164 56.5938 15.5164 56.25V53.75C15.5164 53.4062 15.7976 53.125 16.1414 53.125H41.0168C41.3605 53.125 41.6418 53.4062 41.6418 53.75V56.25Z" fill="#2626BC"/>
<path d="M17.9966 56.25V53.75C17.9966 53.4062 18.2779 53.125 18.6216 53.125H16.1414C15.7976 53.125 15.5164 53.4062 15.5164 53.75V56.25C15.5164 56.5938 15.7976 56.875 16.1414 56.875H18.6216C18.2779 56.875 17.9966 56.5938 17.9966 56.25Z" fill="#1A2B63"/>
<path d="M0 46.3542C0 47.0417 0.5625 47.6042 1.25 47.6042H38.7719V39.2354H0V46.3542Z" fill="#2D58E0"/>
<path d="M2.48025 46.3542V39.2354H0V46.3542C0 47.0417 0.5625 47.6042 1.25 47.6042H3.73025C3.04275 47.6042 2.48025 47.0417 2.48025 46.3542Z" fill="#2626BC"/>
<path d="M38.7719 35.8734C38.7719 35.5976 38.9961 35.3734 39.2719 35.3734H57.1581V8.30814C57.1581 7.55239 56.5399 6.93414 55.7842 6.93414H1.374C0.61825 6.93414 0 7.55239 0 8.30814V39.3604H38.7719V35.8734Z" fill="#6583FE"/>
<path d="M38.7719 35.8734C38.7719 35.5976 38.9961 35.3734 39.2719 35.3734H54.4102V10.3071C54.4102 9.96338 54.129 9.68213 53.7852 9.68213H3.37299C3.02924 9.68213 2.74799 9.96338 2.74799 10.3071V35.9873C2.74799 36.331 3.02924 36.6123 3.37299 36.6123H38.7717L38.7719 35.8734Z" fill="#EEF6FF"/>
<path d="M28.5788 45.2651C29.5391 45.2651 30.3176 44.4866 30.3176 43.5262C30.3176 42.5659 29.5391 41.7874 28.5788 41.7874C27.6184 41.7874 26.8399 42.5659 26.8399 43.5262C26.8399 44.4866 27.6184 45.2651 28.5788 45.2651Z" fill="#445EA0"/>
<path d="M52.0451 25.797C52.0451 26.1408 51.7639 26.422 51.4201 26.422H31.613C31.2693 26.422 30.988 26.1408 30.988 25.797V16.7073C30.988 16.3635 31.2693 16.0823 31.613 16.0823H51.4201C51.7639 16.0823 52.0451 16.3635 52.0451 16.7073V25.797Z" fill="#FFAA66"/>
<path d="M33.4684 25.797V16.7073C33.4684 16.3635 33.7496 16.0823 34.0934 16.0823H31.6131C31.2694 16.0823 30.9881 16.3635 30.9881 16.7073V25.797C30.9881 26.1408 31.2694 26.422 31.6131 26.422H34.0934C33.7496 26.422 33.4684 26.1408 33.4684 25.797Z" fill="#FF9518"/>
<path d="M37.4083 30.0151H32.0193C31.5015 30.0151 31.0818 29.5955 31.0818 29.0776C31.0818 28.5598 31.5015 28.1401 32.0193 28.1401H37.4083C37.926 28.1401 38.3458 28.5598 38.3458 29.0776C38.3458 29.5955 37.926 30.0151 37.4083 30.0151Z" fill="#C3DDF4"/>
<path d="M37.4083 32.8645H32.0193C31.5015 32.8645 31.0818 32.4449 31.0818 31.927C31.0818 31.4091 31.5015 30.9895 32.0193 30.9895H37.4083C37.926 30.9895 38.3458 31.4091 38.3458 31.927C38.3458 32.4449 37.926 32.8645 37.4083 32.8645Z" fill="#C3DDF4"/>
<path d="M43.91 30.0151H39.9025C39.3847 30.0151 38.965 29.5955 38.965 29.0776C38.965 28.5598 39.3847 28.1401 39.9025 28.1401H43.91C44.4277 28.1401 44.8475 28.5598 44.8475 29.0776C44.8475 29.5955 44.4277 30.0151 43.91 30.0151Z" fill="#C3DDF4"/>
<path d="M43.91 32.8645H39.9025C39.3847 32.8645 38.965 32.4449 38.965 31.927C38.965 31.4091 39.3847 30.9895 39.9025 30.9895H43.91C44.4277 30.9895 44.8475 31.4091 44.8475 31.927C44.8475 32.4449 44.4277 32.8645 43.91 32.8645Z" fill="#C3DDF4"/>
<path d="M51.4715 30.0151H46.367C45.8493 30.0151 45.4295 29.5955 45.4295 29.0776C45.4295 28.5598 45.8493 28.1401 46.367 28.1401H51.4715C51.9893 28.1401 52.409 28.5598 52.409 29.0776C52.409 29.5955 51.9893 30.0151 51.4715 30.0151Z" fill="#C3DDF4"/>
<path d="M51.4715 32.8645H46.367C45.8493 32.8645 45.4295 32.4449 45.4295 31.927C45.4295 31.4091 45.8493 30.9895 46.367 30.9895H51.4715C51.9893 30.9895 52.409 31.4091 52.409 31.927C52.409 32.4449 51.9893 32.8645 51.4715 32.8645Z" fill="#C3DDF4"/>
<path d="M44.9206 13.8855C44.9206 14.2292 44.6394 14.5105 44.2956 14.5105H42.9207C42.577 14.5105 42.2957 14.2292 42.2957 13.8855V12.5106C42.2957 12.1669 42.577 11.8856 42.9207 11.8856H44.2956C44.6394 11.8856 44.9206 12.1669 44.9206 12.5106V13.8855Z" fill="#FF7EB8"/>
<path d="M48.4204 13.8855C48.4204 14.2292 48.1391 14.5105 47.7954 14.5105H46.4205C46.0768 14.5105 45.7955 14.2292 45.7955 13.8855V12.5106C45.7955 12.1669 46.0768 11.8856 46.4205 11.8856H47.7954C48.1391 11.8856 48.4204 12.1669 48.4204 12.5106V13.8855Z" fill="#FF7EB8"/>
<path d="M51.9201 13.8855C51.9201 14.2292 51.6389 14.5105 51.2951 14.5105H49.9203C49.5765 14.5105 49.2953 14.2292 49.2953 13.8855V12.5106C49.2953 12.1669 49.5765 11.8856 49.9203 11.8856H51.2951C51.6389 11.8856 51.9201 12.1669 51.9201 12.5106V13.8855Z" fill="#FF7EB8"/>
<path d="M23.8622 32.1256H22.7372C22.2195 32.1256 21.7997 31.706 21.7997 31.1881C21.7997 30.6702 22.2195 30.2506 22.7372 30.2506H23.8622C24.38 30.2506 24.7997 30.6702 24.7997 31.1881C24.7997 31.706 24.38 32.1256 23.8622 32.1256Z" fill="#69CDFF"/>
<path d="M19.6122 32.1256H18.4872C17.9695 32.1256 17.5497 31.706 17.5497 31.1881C17.5497 30.6702 17.9695 30.2506 18.4872 30.2506H19.6122C20.13 30.2506 20.5497 30.6702 20.5497 31.1881C20.5497 31.706 20.13 32.1256 19.6122 32.1256Z" fill="#69CDFF"/>
<path d="M15.3621 32.1256H14.2371C13.7194 32.1256 13.2996 31.706 13.2996 31.1881C13.2996 30.6702 13.7194 30.2506 14.2371 30.2506H15.3621C15.8799 30.2506 16.2996 30.6702 16.2996 31.1881C16.2997 31.706 15.88 32.1256 15.3621 32.1256Z" fill="#69CDFF"/>
<path d="M11.1121 32.1256H9.98712C9.46937 32.1256 9.04962 31.706 9.04962 31.1881C9.04962 30.6702 9.46937 30.2506 9.98712 30.2506H11.1121C11.6299 30.2506 12.0496 30.6702 12.0496 31.1881C12.0496 31.706 11.63 32.1256 11.1121 32.1256Z" fill="#69CDFF"/>
<path d="M27.5185 28.2632C27.0007 28.2632 26.581 27.8436 26.581 27.3257V26.2007C26.581 25.683 27.0007 25.2632 27.5185 25.2632C28.0362 25.2632 28.456 25.683 28.456 26.2007V27.3257C28.456 27.8436 28.0362 28.2632 27.5185 28.2632Z" fill="#69CDFF"/>
<path d="M27.5185 24.0132C27.0007 24.0132 26.581 23.5936 26.581 23.0757V21.9507C26.581 21.433 27.0007 21.0132 27.5185 21.0132C28.0362 21.0132 28.456 21.433 28.456 21.9507V23.0757C28.456 23.5936 28.0362 24.0132 27.5185 24.0132Z" fill="#69CDFF"/>
<path d="M27.5185 19.7632C27.0007 19.7632 26.581 19.3436 26.581 18.8257V17.7007C26.581 17.183 27.0007 16.7632 27.5185 16.7632C28.0362 16.7632 28.456 17.183 28.456 17.7007V18.8257C28.456 19.3436 28.0362 19.7632 27.5185 19.7632Z" fill="#69CDFF"/>
<path d="M6.26837 28.2632C5.75062 28.2632 5.33087 27.8436 5.33087 27.3257V26.2007C5.33087 25.683 5.75062 25.2632 6.26837 25.2632C6.78612 25.2632 7.20587 25.683 7.20587 26.2007V27.3257C7.20587 27.8436 6.78625 28.2632 6.26837 28.2632Z" fill="#69CDFF"/>
<path d="M6.26837 24.0132C5.75062 24.0132 5.33087 23.5936 5.33087 23.0757V21.9507C5.33087 21.433 5.75062 21.0132 6.26837 21.0132C6.78612 21.0132 7.20587 21.433 7.20587 21.9507V23.0757C7.20587 23.5936 6.78625 24.0132 6.26837 24.0132Z" fill="#69CDFF"/>
<path d="M6.26837 19.7632C5.75062 19.7632 5.33087 19.3436 5.33087 18.8257V17.7007C5.33087 17.183 5.75062 16.7632 6.26837 16.7632C6.78612 16.7632 7.20587 17.183 7.20587 17.7007V18.8257C7.20587 19.3436 6.78625 19.7632 6.26837 19.7632Z" fill="#69CDFF"/>
<path d="M23.8622 15.1256H22.7372C22.2195 15.1256 21.7997 14.706 21.7997 14.1881C21.7997 13.6702 22.2195 13.2506 22.7372 13.2506H23.8622C24.38 13.2506 24.7997 13.6702 24.7997 14.1881C24.7997 14.706 24.38 15.1256 23.8622 15.1256Z" fill="#69CDFF"/>
<path d="M19.6122 15.1256H18.4872C17.9695 15.1256 17.5497 14.706 17.5497 14.1881C17.5497 13.6702 17.9695 13.2506 18.4872 13.2506H19.6122C20.13 13.2506 20.5497 13.6702 20.5497 14.1881C20.5497 14.706 20.13 15.1256 19.6122 15.1256Z" fill="#69CDFF"/>
<path d="M15.3621 15.1256H14.2371C13.7194 15.1256 13.2996 14.706 13.2996 14.1881C13.2996 13.6702 13.7194 13.2506 14.2371 13.2506H15.3621C15.8799 13.2506 16.2996 13.6702 16.2996 14.1881C16.2996 14.706 15.88 15.1256 15.3621 15.1256Z" fill="#69CDFF"/>
<path d="M11.1121 15.1256H9.98712C9.46937 15.1256 9.04962 14.706 9.04962 14.1881C9.04962 13.6702 9.46937 13.2506 9.98712 13.2506H11.1121C11.6299 13.2506 12.0496 13.6702 12.0496 14.1881C12.0496 14.706 11.63 15.1256 11.1121 15.1256Z" fill="#69CDFF"/>
<path d="M25.0185 28.0631C25.0185 28.4069 24.7372 28.6881 24.3935 28.6881H9.39349C9.04974 28.6881 8.76849 28.4069 8.76849 28.0631V17.3131C8.76849 16.9694 9.04974 16.6881 9.39349 16.6881H24.3935C24.7372 16.6881 25.0185 16.9694 25.0185 17.3131V28.0631Z" fill="#FF7EB8"/>
<path d="M11.2487 28.0631V17.3131C11.2487 16.9694 11.53 16.6881 11.8737 16.6881H9.39337C9.04962 16.6881 8.76837 16.9694 8.76837 17.3131V28.0631C8.76837 28.4069 9.04962 28.6881 9.39337 28.6881H11.8737C11.53 28.6881 11.2487 28.4069 11.2487 28.0631Z" fill="#E25F9A"/>
<path d="M29.2681 15.1261C29.2681 15.4698 28.9869 15.7511 28.6431 15.7511H26.0181C25.6744 15.7511 25.3931 15.4698 25.3931 15.1261V12.5011C25.3931 12.1573 25.6744 11.8761 26.0181 11.8761H28.6431C28.9869 11.8761 29.2681 12.1573 29.2681 12.5011V15.1261Z" fill="#52BBEF"/>
<path d="M8.51813 15.3761C8.51813 15.7198 8.23688 16.0011 7.89313 16.0011H5.26813C4.92438 16.0011 4.64313 15.7198 4.64313 15.3761V12.7511C4.64313 12.4073 4.92438 12.1261 5.26813 12.1261H7.89313C8.23688 12.1261 8.51813 12.4073 8.51813 12.7511V15.3761Z" fill="#52BBEF"/>
<path d="M29.2681 32.6104C29.2681 32.9541 28.9869 33.2354 28.6431 33.2354H26.0181C25.6744 33.2354 25.3931 32.9541 25.3931 32.6104V29.9854C25.3931 29.6416 25.6744 29.3604 26.0181 29.3604H28.6431C28.9869 29.3604 29.2681 29.6416 29.2681 29.9854V32.6104Z" fill="#52BBEF"/>
<path d="M8.51813 32.6104C8.51813 32.9541 8.23688 33.2354 7.89313 33.2354H5.26813C4.92438 33.2354 4.64313 32.9541 4.64313 32.6104V29.9854C4.64313 29.6416 4.92438 29.3604 5.26813 29.3604H7.89313C8.23688 29.3604 8.51813 29.6416 8.51813 29.9854V32.6104Z" fill="#52BBEF"/>
<path d="M26.7709 15.1261V12.5011C26.7709 12.1573 27.0521 11.8761 27.3959 11.8761H26.0181C25.6744 11.8761 25.3931 12.1573 25.3931 12.5011V15.1261C25.3931 15.4698 25.6744 15.7511 26.0181 15.7511H27.3959C27.0521 15.7511 26.7709 15.4698 26.7709 15.1261Z" fill="#1E99D6"/>
<path d="M6.02088 15.3761V12.7511C6.02088 12.4073 6.30213 12.1261 6.64588 12.1261H5.26813C4.92438 12.1261 4.64313 12.4073 4.64313 12.7511V15.3761C4.64313 15.7198 4.92438 16.0011 5.26813 16.0011H6.64588C6.30213 16.0011 6.02088 15.7198 6.02088 15.3761Z" fill="#1E99D6"/>
<path d="M26.7709 32.6104V29.9854C26.7709 29.6416 27.0521 29.3604 27.3959 29.3604H26.0181C25.6744 29.3604 25.3931 29.6416 25.3931 29.9854V32.6104C25.3931 32.9541 25.6744 33.2354 26.0181 33.2354H27.3959C27.0521 33.2354 26.7709 32.9541 26.7709 32.6104Z" fill="#1E99D6"/>
<path d="M6.02088 32.6104V29.9854C6.02088 29.6416 6.30213 29.3604 6.64588 29.3604H5.26813C4.92438 29.3604 4.64313 29.6416 4.64313 29.9854V32.6104C4.64313 32.9541 4.92438 33.2354 5.26813 33.2354H6.64588C6.30213 33.2354 6.02088 32.9541 6.02088 32.6104Z" fill="#1E99D6"/>
<path d="M54.4323 45.8466C54.4129 45.7938 54.4144 45.7638 54.4171 45.7541C54.4171 45.7541 54.4249 45.7533 54.432 45.7533C54.4463 45.7533 54.4711 45.7562 54.5088 45.7701L59.7718 47.7032V35.8735C59.7718 35.5297 59.4905 35.2485 59.1468 35.2485H39.2718C38.928 35.2485 38.6468 35.5297 38.6468 35.8735V50.2235C38.6468 50.5672 38.928 50.8485 39.2718 50.8485H56.2693L54.4323 45.8466Z" fill="#02FFB3"/>
<path d="M41.1271 50.2234V35.8734C41.1271 35.5296 41.4084 35.2484 41.7521 35.2484H39.2719C38.9281 35.2484 38.6469 35.5296 38.6469 35.8734V50.2234C38.6469 50.5671 38.9281 50.8484 39.2719 50.8484H41.7521C41.4084 50.8484 41.1271 50.5671 41.1271 50.2234Z" fill="#0AB984"/>
<path d="M54.5519 45.6528C54.346 45.5771 54.2393 45.6838 54.3149 45.8898L57.6105 54.8625C57.6861 55.0685 57.875 55.11 58.0301 54.9549L59.7798 53.2053C59.9349 53.0501 60.1887 53.0501 60.3441 53.2053L62.3601 55.2215C62.5153 55.3766 62.7691 55.3766 62.9244 55.2215L63.8836 54.2623C64.0388 54.1071 64.0388 53.8531 63.8836 53.698L61.8675 51.6819C61.7124 51.5268 61.7124 51.2729 61.8675 51.1176L63.617 49.368C63.7723 49.213 63.7306 49.0241 63.5246 48.9485L54.5519 45.6528Z" fill="#293D7C"/>
</svg>
