<svg width="64" height="64" viewBox="0 0 64 64" fill="none" xmlns="http://www.w3.org/2000/svg">
<g clip-path="url(#clip0_13713_13476)">
<path d="M38.7594 11.1691C36.0806 4.58547 29.6005 -0.0462762 22.0436 0.000348839C12.4031 0.0597238 4.47662 7.83585 4.24274 17.4736C4.12737 22.2286 5.86499 26.5762 8.78449 29.8465C11.1119 32.4535 12.2799 35.8871 12.1621 39.38C12.1465 39.8442 12.1441 40.3118 12.1556 40.7825C12.4636 53.4575 23.2915 64.0076 35.9702 64C49.1119 63.9921 59.7627 53.3362 59.7627 40.1928C59.7627 30.5586 54.0397 22.2618 45.8081 18.515C42.5997 17.0546 40.0879 14.4341 38.7594 11.1691Z" fill="#EEF1FF"/>
<path opacity="0.1" d="M57 11.0396V42.8209C57 43.8559 56.16 44.6959 55.125 44.6959H8.875C7.84 44.6959 7 43.8559 7 42.8209V11.0396C7 10.0046 7.84 9.16461 8.875 9.16461H55.125C56.16 9.16461 57 10.0046 57 11.0396Z" fill="#2626BC"/>
<path d="M39.9171 8.34947C39.7514 8.34947 39.5924 8.28359 39.4752 8.16647L38.098 6.78922C37.8539 6.54509 37.8539 6.14934 38.098 5.90534L39.4752 4.52809C39.5925 4.41084 39.7514 4.34509 39.9171 4.34509C40.0829 4.34509 40.2419 4.41097 40.359 4.52809L41.7364 5.90534C41.8536 6.02259 41.9195 6.18147 41.9195 6.34734C41.9195 6.51322 41.8537 6.67209 41.7364 6.78934L40.359 8.16659C40.2419 8.28359 40.0829 8.34947 39.9171 8.34947ZM39.4239 6.34722L39.9171 6.84059L40.4105 6.34722L39.9171 5.85384L39.4239 6.34722Z" fill="#FF7EB8"/>
<path d="M47.7562 54.56C47.5905 54.56 47.4315 54.4941 47.3144 54.377L45.9371 52.9997C45.693 52.7556 45.693 52.3599 45.9371 52.1159L47.3144 50.7386C47.5582 50.4946 47.954 50.4946 48.1981 50.7386L49.5755 52.1159C49.6927 52.2331 49.7586 52.392 49.7586 52.5579C49.7586 52.7237 49.6929 52.8826 49.5755 52.9999L48.1981 54.3771C48.0809 54.4941 47.922 54.56 47.7562 54.56ZM47.263 52.5577L47.7562 53.0511L48.2496 52.5577L47.7562 52.0644L47.263 52.5577Z" fill="#6583FE"/>
<path d="M13.3355 59.6549C12.9902 59.6549 12.7105 59.3751 12.7105 59.0299C12.7105 58.6152 12.373 58.2777 11.9581 58.2777C11.6129 58.2777 11.3331 57.9978 11.3331 57.6527C11.3331 57.3076 11.6129 57.0277 11.9581 57.0277C12.3729 57.0277 12.7105 56.6902 12.7105 56.2755C12.7105 55.9303 12.9902 55.6505 13.3355 55.6505C13.6807 55.6505 13.9605 55.9303 13.9605 56.2755C13.9605 56.6902 14.2979 57.0277 14.7127 57.0277C15.058 57.0277 15.3377 57.3076 15.3377 57.6527C15.3377 57.9978 15.058 58.2777 14.7127 58.2777C14.298 58.2777 13.9605 58.6152 13.9605 59.0299C13.9605 59.3751 13.6806 59.6549 13.3355 59.6549Z" fill="#97FFD2"/>
<path d="M18.752 53.8552C18.4067 53.8552 18.127 53.5753 18.127 53.2302C18.127 52.8155 17.7896 52.478 17.3747 52.478C17.0295 52.478 16.7497 52.1981 16.7497 51.853C16.7497 51.5078 17.0295 51.228 17.3747 51.228C17.7895 51.228 18.127 50.8905 18.127 50.4757C18.127 50.1306 18.4067 49.8507 18.752 49.8507C19.0972 49.8507 19.377 50.1306 19.377 50.4757C19.377 50.8905 19.7145 51.228 20.1294 51.228C20.4746 51.228 20.7544 51.5078 20.7544 51.853C20.7544 52.1981 20.4746 52.478 20.1294 52.478C19.7146 52.478 19.377 52.8155 19.377 53.2302C19.377 53.5755 19.0971 53.8552 18.752 53.8552Z" fill="#6583FE"/>
<path d="M39.0887 56.4092H24.9111L26.7589 49.0838L27.7464 45.1712H36.2535L37.241 49.0838L39.0887 56.4092Z" fill="#9FB0FE"/>
<path d="M37.241 49.0838H26.7589L27.7464 45.1712H36.2535L37.241 49.0838Z" fill="#8399FE"/>
<path d="M39.0892 57.0335H24.9107C24.718 57.0335 24.5361 56.9446 24.4177 56.7926C24.2994 56.6406 24.2576 56.4425 24.3049 56.2556L26.5364 47.4126C26.6209 47.0779 26.9606 46.8754 27.2952 46.9595C27.6299 47.044 27.8327 47.3837 27.7482 47.7184L25.7131 55.7835H38.2871L36.2339 47.6464C36.1494 47.3117 36.3522 46.9719 36.6869 46.8875C37.022 46.8032 37.3614 47.0059 37.4457 47.3406L39.6952 56.2556C39.7425 56.4425 39.7007 56.6406 39.5824 56.7926C39.464 56.9446 39.282 57.0335 39.0892 57.0335Z" fill="#2626BC"/>
<path d="M57 13.6646V45.4459C57 46.4809 56.16 47.3209 55.125 47.3209H8.875C7.84 47.3209 7 46.4809 7 45.4459V13.6646C7 12.6296 7.84 11.7896 8.875 11.7896H55.125C56.16 11.7896 57 12.6296 57 13.6646Z" fill="white"/>
<path d="M55.125 11.7896H44.375V47.3209H55.125C56.16 47.3209 57 46.4809 57 45.4459V13.6646C57 12.6296 56.16 11.7896 55.125 11.7896Z" fill="#FFC4DF"/>
<path d="M54.6875 23.6833L53.7887 20.5271C53.7125 20.2583 53.4662 20.0721 53.1875 20.0721H50.1375C49.8587 20.0721 49.6125 20.2583 49.5362 20.5271L48.6375 23.6833C47.3775 23.9921 46.1912 24.4883 45.1112 25.1433L42.2437 23.5471C42 23.4108 41.695 23.4533 41.4975 23.6508L39.3412 25.8083C39.1437 26.0058 39.1012 26.3096 39.2362 26.5546L40.8337 29.4221C40.1787 30.5021 39.6812 31.6883 39.3725 32.9471L36.2162 33.8471C35.9475 33.9233 35.7625 34.1683 35.7625 34.4483V37.4983C35.7625 37.7771 35.9475 38.0221 36.2162 38.0996L39.3725 38.9983C39.5841 39.8621 39.8856 40.6907 40.2651 41.4746H49.3724C47.2184 40.577 45.7037 38.4528 45.7037 35.9733C45.7037 32.6821 48.3712 30.0146 51.6625 30.0146C54.0012 30.0146 56.0237 31.3608 57 33.3208V24.4958C56.265 24.1533 55.4912 23.8808 54.6875 23.6833Z" fill="#FF7EB8"/>
<path d="M54.6875 23.6833L53.7887 20.5271C53.7125 20.2583 53.4662 20.0721 53.1875 20.0721H50.1375C49.8587 20.0721 49.6125 20.2583 49.5362 20.5271L48.6375 23.6833C47.3775 23.9921 46.1912 24.4883 45.1112 25.1433L42.2437 23.5471C42 23.4108 41.695 23.4533 41.4975 23.6508L39.3412 25.8083C39.1437 26.0058 39.1012 26.3096 39.2362 26.5546L40.8337 29.4221C40.1787 30.5021 39.6812 31.6883 39.3725 32.9471L36.2162 33.8471C35.9475 33.9233 35.7625 34.1683 35.7625 34.4483V37.4983C35.7625 37.7771 35.9475 38.0221 36.2162 38.0996L39.3725 38.9983C39.5841 39.8621 39.8856 40.6907 40.2651 41.4746H49.3724C47.2184 40.577 45.7037 38.4528 45.7037 35.9733C45.7037 32.6821 48.3712 30.0146 51.6625 30.0146C54.0012 30.0146 56.0237 31.3608 57 33.3208V24.4958C56.265 24.1533 55.4912 23.8808 54.6875 23.6833Z" fill="#FF5BA8"/>
<path d="M57 17.8114V13.665C57 12.6295 56.1605 11.79 55.125 11.79H8.875C7.8395 11.79 7 12.6295 7 13.665V17.8114H57Z" fill="#6583FE"/>
<path d="M57 18.4363H7C6.65475 18.4363 6.375 18.1565 6.375 17.8113C6.375 17.4662 6.65475 17.1863 7 17.1863H57C57.3453 17.1863 57.625 17.4662 57.625 17.8113C57.625 18.1565 57.3453 18.4363 57 18.4363Z" fill="#2626BC"/>
<path d="M6.99986 41.0222V45.446C6.99986 46.4815 7.83936 47.321 8.87486 47.321H55.1249C56.1604 47.321 56.9999 46.4815 56.9999 45.446V41.0222H6.99986Z" fill="#B7C5FF"/>
<path d="M56.9309 41.6472H10.9948C10.6495 41.6472 10.3698 41.3673 10.3698 41.0222C10.3698 40.6771 10.6495 40.3972 10.9948 40.3972H56.9308C57.276 40.3972 57.5558 40.6771 57.5558 41.0222C57.5559 41.3673 57.2761 41.6472 56.9309 41.6472Z" fill="#2626BC"/>
<path d="M41.4917 57.0334H22.5082C22.163 57.0334 21.8832 56.7536 21.8832 56.4084C21.8832 56.0633 22.163 55.7834 22.5082 55.7834H41.4916C41.8369 55.7834 42.1166 56.0633 42.1166 56.4084C42.1166 56.7536 41.8369 57.0334 41.4917 57.0334Z" fill="#2626BC"/>
<path d="M11.7603 15.4349C11.415 15.4349 11.1353 15.155 11.1353 14.8099V14.7916C11.1353 14.4465 11.415 14.1666 11.7603 14.1666C12.1055 14.1666 12.3853 14.4465 12.3853 14.7916V14.8099C12.3853 15.155 12.1055 15.4349 11.7603 15.4349Z" fill="#2626BC"/>
<path d="M14.1759 15.4349C13.8306 15.4349 13.5509 15.155 13.5509 14.8099V14.7916C13.5509 14.4465 13.8306 14.1666 14.1759 14.1666C14.5211 14.1666 14.8009 14.4465 14.8009 14.7916V14.8099C14.8009 15.155 14.5211 15.4349 14.1759 15.4349Z" fill="#2626BC"/>
<path d="M16.5914 15.4349C16.2461 15.4349 15.9664 15.155 15.9664 14.8099V14.7916C15.9664 14.4465 16.2461 14.1666 16.5914 14.1666C16.9366 14.1666 17.2164 14.4465 17.2164 14.7916V14.8099C17.2164 15.155 16.9366 15.4349 16.5914 15.4349Z" fill="#2626BC"/>
<path d="M55.125 47.9459H8.875C7.4965 47.9459 6.375 46.8244 6.375 45.4459V13.665C6.375 12.2865 7.4965 11.165 8.875 11.165H55.125C56.5035 11.165 57.625 12.2865 57.625 13.665V17.8114C57.625 18.1565 57.3453 18.4364 57 18.4364C56.6547 18.4364 56.375 18.1565 56.375 17.8114V13.665C56.375 12.9757 55.8142 12.415 55.125 12.415H8.875C8.18575 12.415 7.625 12.9757 7.625 13.665V45.446C7.625 46.1352 8.18575 46.696 8.875 46.696H55.125C55.8142 46.696 56.375 46.1352 56.375 45.446V21.254C56.375 20.9089 56.6547 20.629 57 20.629C57.3453 20.629 57.625 20.9089 57.625 21.254V45.446C57.625 46.8244 56.5035 47.9459 55.125 47.9459Z" fill="#2626BC"/>
<path d="M32.4636 34.2839H11.6209C11.2751 34.2839 10.9949 34.0036 10.9949 33.6579C10.9949 33.3121 11.2751 33.0319 11.6209 33.0319H32.4636C32.8094 33.0319 33.0896 33.3121 33.0896 33.6579C33.0896 34.0036 32.8094 34.2839 32.4636 34.2839Z" fill="#B7C5FF"/>
<path d="M24.9636 29.0348H11.6209C11.2751 29.0348 10.9949 28.7546 10.9949 28.4088C10.9949 28.0631 11.2751 27.7828 11.6209 27.7828H24.9636C25.3094 27.7828 25.5896 28.0631 25.5896 28.4088C25.5896 28.7546 25.3094 29.0348 24.9636 29.0348Z" fill="#FFA8CF"/>
<path d="M32.4636 36.7671H11.6209C11.2751 36.7671 10.9949 36.4868 10.9949 36.1411C10.9949 35.7953 11.2751 35.5151 11.6209 35.5151H32.4636C32.8094 35.5151 33.0896 35.7953 33.0896 36.1411C33.0896 36.4867 32.8094 36.7671 32.4636 36.7671Z" fill="#B7C5FF"/>
<path d="M13.2646 25.3077C13.1047 25.3077 12.9446 25.2467 12.8227 25.1247L11.3184 23.6203C11.0742 23.3762 11.0742 22.9804 11.3184 22.7364L12.8227 21.2321C13.0666 20.9881 13.4626 20.9881 13.7065 21.2321C13.9506 21.4762 13.9506 21.8719 13.7065 22.1159L12.6441 23.1784L13.7065 24.2409C13.9506 24.4851 13.9506 24.8808 13.7065 25.1248C13.5846 25.2467 13.4245 25.3077 13.2646 25.3077Z" fill="#4369FD"/>
<path d="M19.1099 25.3077C18.95 25.3077 18.7899 25.2467 18.668 25.1247C18.4239 24.8806 18.4239 24.4848 18.668 24.2408L19.7304 23.1783L18.668 22.1158C18.4239 21.8717 18.4239 21.476 18.668 21.232C18.9119 20.988 19.3079 20.988 19.5517 21.232L21.0561 22.7363C21.3002 22.9805 21.3002 23.3762 21.0561 23.6202L19.5517 25.1246C19.4297 25.2467 19.2697 25.3077 19.1099 25.3077Z" fill="#4369FD"/>
<path d="M15.3371 25.3078C15.233 25.3078 15.1275 25.2818 15.0305 25.2269C14.7299 25.0572 14.6238 24.6759 14.7935 24.3753L16.4925 21.3666C16.6621 21.0661 17.0435 20.9599 17.344 21.1296C17.6446 21.2993 17.7507 21.6806 17.581 21.9812L15.882 24.9899C15.767 25.1934 15.5551 25.3078 15.3371 25.3078Z" fill="#4369FD"/>
<path d="M47.3812 36.7671H45.3812C45.1741 36.7671 45.0062 36.5992 45.0062 36.3921V28.7839C45.0062 28.5767 45.1741 28.4089 45.3812 28.4089H47.3812C47.5884 28.4089 47.7562 28.5767 47.7562 28.7839V36.3921C47.7562 36.5992 47.5884 36.7671 47.3812 36.7671Z" fill="#02FFB3"/>
<path d="M43.2921 36.7671H41.2921C41.085 36.7671 40.9171 36.5992 40.9171 36.3921V31.685C40.9171 31.4779 41.085 31.31 41.2921 31.31H43.2921C43.4992 31.31 43.6671 31.4779 43.6671 31.685V36.3921C43.6671 36.5992 43.4992 36.7671 43.2921 36.7671Z" fill="#02FFB3"/>
<path d="M51.4704 36.7671H49.4704C49.2632 36.7671 49.0954 36.5992 49.0954 36.3921V26.5996C49.0954 26.3925 49.2632 26.2246 49.4704 26.2246H51.4704C51.6775 26.2246 51.8454 26.3925 51.8454 26.5996V36.3921C51.8454 36.5992 51.6775 36.7671 51.4704 36.7671Z" fill="#02FFB3"/>
<path d="M38.5926 22.4463C38.9785 22.4463 39.2914 22.1335 39.2914 21.7476C39.2914 21.3617 38.9785 21.0488 38.5926 21.0488C38.2067 21.0488 37.8939 21.3617 37.8939 21.7476C37.8939 22.1335 38.2067 22.4463 38.5926 22.4463Z" fill="#6583FE"/>
<path d="M36.4787 22.4463C36.8647 22.4463 37.1775 22.1335 37.1775 21.7476C37.1775 21.3617 36.8647 21.0488 36.4787 21.0488C36.0928 21.0488 35.78 21.3617 35.78 21.7476C35.78 22.1335 36.0928 22.4463 36.4787 22.4463Z" fill="#6583FE"/>
<path d="M34.365 22.4463C34.7509 22.4463 35.0637 22.1335 35.0637 21.7476C35.0637 21.3617 34.7509 21.0488 34.365 21.0488C33.9791 21.0488 33.6662 21.3617 33.6662 21.7476C33.6662 22.1335 33.9791 22.4463 34.365 22.4463Z" fill="#6583FE"/>
</g>
<defs>
<clipPath id="clip0_13713_13476">
<rect width="64" height="64" fill="white"/>
</clipPath>
</defs>
</svg>
