<svg width="48" height="48" viewBox="0 0 48 48" fill="none" xmlns="http://www.w3.org/2000/svg">
<g clip-path="url(#clip0_227_50414)">
<path fill-rule="evenodd" clip-rule="evenodd" d="M0 19.2C0 12.4794 0 9.11905 1.30792 6.55211C2.4584 4.29417 4.29417 2.4584 6.55211 1.30792C9.11905 0 12.4794 0 19.2 0H28.8C35.5206 0 38.8809 0 41.4479 1.30792C43.7058 2.4584 45.5416 4.29417 46.6921 6.55211C48 9.11905 48 12.4794 48 19.2V28.8C48 35.5206 48 38.8809 46.6921 41.4479C45.5416 43.7058 43.7058 45.5416 41.4479 46.6921C38.8809 48 35.5206 48 28.8 48H19.2C12.4794 48 9.11905 48 6.55211 46.6921C4.29417 45.5416 2.4584 43.7058 1.30792 41.4479C0 38.8809 0 35.5206 0 28.8V19.2ZM15.6667 7H37.2V13.8H10L15.6667 7ZM34.9337 19.4669L28.1337 13.8002V17.578H21.1787C19.4271 17.578 17.763 18.3433 16.6231 19.6732L10 27.4002L17.4836 37.2224H26.8381L18.419 27.4002L23.2958 21.8857C24.049 21.034 24.9318 20.3064 25.9116 19.7297C26.5871 19.3321 27.3516 19.1127 28.1337 19.0909V32.6891V33.0668L34.9337 41.0002V19.4669Z" fill="#0E1018"/>
</g>
<defs>
<clipPath id="clip0_227_50414">
<rect width="48" height="48" rx="12" fill="white"/>
</clipPath>
</defs>
</svg>
