<svg width="48" height="48" viewBox="0 0 48 48" fill="none" xmlns="http://www.w3.org/2000/svg">
<rect width="48" height="48" rx="12" fill="white"/>
<path d="M16.5 8H37.3999V14.6H11L16.5 8Z" fill="#0E1018"/>
<path d="M35.2002 20.1001L35.2002 41L28.6002 32.9333L28.6002 14.6001L35.2002 20.1001Z" fill="#0E1018"/>
<path d="M35.2002 20.1001L35.2002 41L28.6002 33.3L28.6002 14.6001L35.2002 20.1001Z" fill="#0E1018"/>
<path d="M27.3428 37.3337L19.1714 27.8004L23.9047 22.4481C24.6357 21.6215 25.4925 20.9153 26.4435 20.3555C27.1352 19.9484 27.9231 19.7337 28.7257 19.7337H30.0666V18.2671H21.931C20.1794 18.2671 18.5153 19.0325 17.3755 20.3623L11 27.8004L18.2635 37.3337H27.3428Z" fill="#0E1018"/>
</svg>
