<svg width="48" height="48" viewBox="0 0 48 48" fill="none" xmlns="http://www.w3.org/2000/svg">
<rect width="48" height="48" rx="12" fill="#0E1018"/>
<path d="M15.4287 6.85693H38.2287V14.0569H9.42871L15.4287 6.85693Z" fill="white"/>
<path d="M35.8291 20.0571L35.8291 42.8571L28.6291 34.0571L28.6291 14.0571L35.8291 20.0571Z" fill="white"/>
<path d="M35.8291 20.0571L35.8291 42.8571L28.6291 34.4571L28.6291 14.0571L35.8291 20.0571Z" fill="white"/>
<path d="M27.2573 38.8571L18.343 28.4571L23.5066 22.6183C24.3041 21.7165 25.2388 20.9461 26.2763 20.3354C27.0308 19.8913 27.8904 19.6571 28.7659 19.6571H30.2287V18.0571H21.1026C19.3511 18.0571 17.687 18.8225 16.5471 20.1524L9.42871 28.4571L17.3525 38.8571H27.2573Z" fill="white"/>
</svg>
